<?xml version="1.0" standalone="no"?>
<!DOCTYPE svg PUBLIC "-//W3C//DTD SVG 1.1//EN" "http://www.w3.org/Graphics/SVG/1.1/DTD/svg11.dtd" >
<svg xmlns="http://www.w3.org/2000/svg" xmlns:xlink="http://www.w3.org/1999/xlink" version="1.1">
<metadata>
Created by FontForge 20201107 at Sat Sep  9 10:39:01 2023
 By 
Typeface (c) (your company). 2023. All Rights Reserved
</metadata>
<defs>
<font id="Czizh-Body" horiz-adv-x="1024" >
  <font-face 
    font-family="Czizh Body"
    font-weight="400"
    font-stretch="normal"
    units-per-em="2048"
    panose-1="2 0 5 0 0 0 0 0 0 0"
    ascent="1638"
    descent="-410"
    x-height="864"
    cap-height="1524"
    bbox="-360 -756 2526 1866"
    underline-thickness="150"
    underline-position="-292"
    unicode-range="U+0020-2212"
  />
<missing-glyph 
 />
    <glyph glyph-name=".notdef" 
 />
    <glyph glyph-name=".null" horiz-adv-x="0" 
 />
    <glyph glyph-name="nonmarkingreturn" horiz-adv-x="682" 
 />
    <glyph glyph-name="space" unicode=" " horiz-adv-x="814" 
 />
    <glyph glyph-name="space" unicode="&#xa0;" horiz-adv-x="814" 
 />
    <glyph glyph-name="exclam" unicode="!" horiz-adv-x="683" 
d="M125 200l-16 16l2 5q16 48 33 93l21 56q278 793 354 1035q3 10 15 12.5t16.5 4t20.5 4.5l56 13q-160 -494 -370 -1083l-12 -36q-32 -101 -54 -103l-14 -4zM116 5q-10 0 -19 3q-37 14 -37 53q0 11 4 22q22 45 61 45q10 0 19 -4q36 -17 36 -53t-33 -58q-16 -8 -31 -8z" />
    <glyph glyph-name="quotedbl" unicode="&#x22;" horiz-adv-x="553" 
d="M77 1182l-12 20q65 42 93 85l8 14l-16 -4l-18 12v9q0 41 32 75l54 26q31 11 47 11q7 -5 11.5 -7.5t7.5 -6.5t3 -13q0 -116 -129 -199l-13 -6q-4 0 -25 -6q-17 -5 -43 -10zM318 1182l-12 20q66 42 93 85l8 14l-15 -4l-19 12v9q0 41 32 75l54 26q31 11 47 11
q7 -5 11.5 -7.5t7.5 -6.5t3 -13q0 -116 -129 -199l-13 -6q-4 0 -25 -6q-17 -5 -43 -10z" />
    <glyph glyph-name="numbersign" unicode="#" horiz-adv-x="1826" 
d="M937 3l-15 16q25 60 45 124l80 229q-301 0 -571 -2l-81 -236q-36 -112 -59 -114l-14 -4q-7 -3 -52 -12l-16 15q26 60 47 124l78 227l-280 -1q-43 0 -96 -4l-3 25q23 0 41.5 8t41.5 11q70 3 135 3h175q101 287 203 589l-283 -1q-42 0 -95 -4l-3 25q22 0 28 4q17 11 55 15
q69 3 136 3l177 1l34 100q40 111 79 236q3 11 19 12l24 5q31 7 64 18l-5 -22l-4 -9q-35 -109 -114 -339q287 2 570 2l35 102q39 110 77 231q3 11 22 12q3 1 7.5 3t23.5 5l56 14l-7 -21q-33 -107 -117 -346h268l100 -2v-22q-20 -4 -46 -14q-19 -7 -42 -7l-112 2l-183 -1
l-201 -588l269 1l102 -2l-2 -22q-19 -4 -47 -14q-17 -7 -41 -7l-163 1h-133q-33 -96 -69 -196q-37 -109 -52 -145q-6 -9 -86 -28zM491 413q295 2 570 2l202 589q-276 -1 -570 -2z" />
    <glyph glyph-name="dollar" unicode="$" horiz-adv-x="1273" 
d="M471 -95l-15 17l2 6q20 48 31 82q-20 -2 -53 -2q-86 0 -155 19l-18 -48q-6 -23 -17 -45q-3 -7 -85 -29l-16 17q26 64 50 135q-40 17 -82 44q-173 111 -173 260q0 73 28 78h1q55 14 91 26q-18 -50 -18 -88l2 -25q15 -88 74 -146t101 -79l132 373q102 297 106 309
q-58 25 -120.5 70.5t-100.5 119.5q-20 42 -20 85q0 135 186 239q105 62 265 95q13 37 28 86q5 11 17.5 14t21.5 4q35 7 70 17q-19 -62 -35 -107l30 1q97 0 173 -32l35 103q3 11 52 22q23 3 57 13l-62 -182q128 -86 151 -226v-2q0 -14 -52 -21l-49 -13q-12 112 -74 170
q-152 -420 -195 -542q41 -20 92.5 -56t92.5 -90q56 -83 56 -176q0 -68 -30 -129q-65 -126 -249 -194q-91 -33 -199 -55q-5 0 -12 -2h4q-29 -79 -33.5 -87.5t-85.5 -28.5zM482 879q75 214 148 431l26 76q-12 -1 -41 -8q-54 -18 -105 -46q-192 -100 -192 -231q0 -27 9 -53
q37 -104 155 -169zM603 57q35 5 81 15q101 36 158 76q64 45 98 105.5t34 129.5q-3 172 -164 266zM752 761l196 570q-86 52 -193 58q-89 -260 -191 -552q53 -23 109 -45q45 -17 79 -31zM512 75q6 20 18 50l198 568q-68 33 -141 61q-30 11 -46 18l-108 -312
q-104 -301 -131 -373q88 -36 202 -36z" />
    <glyph glyph-name="percent" unicode="%" horiz-adv-x="1711" 
d="M1039 5q-61 0 -108.5 33t-67.5 82t-20 104q0 67 26 131q44 110 81 125l42 11l-8 23q135 46 203 46q23 0 43 -5q103 -25 140 -135q12 -38 12 -76q0 -71 -31 -133.5t-72 -105.5q-34 -36 -73 -58q-44 -21 -88 -29l-1 -1l-11 -3q-32 -9 -67 -9zM1106 47l8 1q55 26 100 91
q65 96 65 190q0 40 -13 76q-26 71 -85 99q-21 10 -45 11l-38 -13q-49 -20 -83 -60q-68 -81 -68 -197q0 -56 21 -105t67 -75q29 -15 71 -18zM16 7l-16 19q66 94 148 195q94 114 150 175q137 149 320 254q123 67 249 124q70 32 140 66q181 92 319 230q132 134 188 260
q-33 -16 -102 -37q-97 -29 -261 -61q-59 -12 -114 -20.5t-114 -8.5q-25 1 -41 2q0 -122 -102 -238q-66 -70 -164 -89q-36 -11 -78 -11q-61 0 -107.5 32.5t-66.5 82t-20 104.5q0 67 26 131q32 80 97 125l4 3l-11 9l6 17q20 6 29 8q125 42 193 42q22 0 43 -4q116 -27 146 -158
q53 -12 107 -13q48 0 97 7t98 16q77 12 149 29l20 6q115 35 198 99q5 5 10 5.5t31 7.5l64 17q-75 -220 -264 -392q-135 -128 -340 -225l-122 -57q-134 -61 -262 -136q-167 -103 -300 -258q-137 -155 -264 -331q-6 -6 -69 -22q-2 0 -14 -5zM606 909h9q54 28 100 91
q65 97 65 191q0 17 -2 31q-53 13 -110 31q-76 19 -147 57q-48 -53 -66 -134q-8 -34 -8 -70q0 -55 21.5 -104.5t67.5 -75.5q30 -15 70 -17zM757 1291q-34 78 -120 86q-25 -7 -47 -17q34 -23 80.5 -40.5t86.5 -28.5z" />
    <glyph glyph-name="ampersand" unicode="&#x26;" horiz-adv-x="1451" 
d="M1027 5q-14 0 -17 8q-67 94 -102 163q-161 -96 -388 -142q-72 -15 -134 -15q-63 0 -118 15q-129 37 -198 136q-70 112 -70 240q0 130 72 245q72 101 172.5 160t187.5 90q92 34 160 53q-13 68 -13 132q4 224 179 301q48 17 87 25q36 10 68 11q72 0 122 -41.5t59 -105.5
l1 -19q0 -50 -23 -89t-52.5 -66t-50.5 -40q-59 -38 -125.5 -61.5t-128.5 -39.5l-16 -5q14 -61 43 -141q120 -341 223 -537q201 165 320 495q5 10 17 12.5t33.5 6.5t59.5 15l-8 -21q-82 -227 -199 -374q-89 -108 -196 -185q42 -76 128 -205q-14 0 -28 -4t-20 -6
q-38 -11 -45 -11zM454 62q66 0 146 19q20 5 40 13q122 41 244 125q-94 173 -192 435l-16 41q-48 119 -77 235q-337 -105 -440 -287q-56 -102 -56 -215q0 -69 20 -133t60 -115q67 -83 184 -109q41 -9 87 -9zM693 987q46 12 104.5 36t108.5 64q35 27 60.5 68t25.5 89
q0 22 -7 44q-18 54 -69 80q-28 13 -68 15h-12q-155 -73 -155 -277q0 -37 5 -77l3 -19z" />
    <glyph glyph-name="quotesingle" unicode="'" horiz-adv-x="251" 
d="M37 1182l-12 20q65 42 93 85l8 14l-16 -4l-18 12v9q0 41 32 75l54 26q31 11 47 11q7 -5 11.5 -7.5t7.5 -6.5t3 -13q0 -116 -129 -199l-13 -6q-4 0 -25 -6q-17 -5 -43 -10z" />
    <glyph glyph-name="parenleft" unicode="(" horiz-adv-x="764" 
d="M189 -44q-12 0 -15 7q-64 64 -107 172q-67 168 -67 356q0 277 149 531q175 281 482 435q13 6 38 11l42 11l11 -22q-169 -83 -298 -208q-252 -250 -309 -585q-12 -78 -12 -156q0 -100 20 -198q44 -209 148 -316l13 -16q-15 0 -29 -4t-20 -6l-12 -4q-22 -8 -34 -8z" />
    <glyph glyph-name="parenright" unicode=")" horiz-adv-x="764" 
d="M533 1477q12 0 15 -7q64 -65 107 -172q67 -168 67 -356q0 -277 -149 -531q-175 -281 -482 -435q-13 -6 -38 -11l-42 -11l-11 22q169 83 298 208q252 249 309 584q12 79 12 156q0 101 -19 199q-45 209 -148 316l-14 15q15 0 29.5 4t19.5 6l12 5q23 8 34 8z" />
    <glyph glyph-name="asterisk" unicode="*" horiz-adv-x="1029" 
d="M679 828q-125 11 -196 106q-48 68 -55 124q-138 -138 -423 -198l-5 25l72 19q21 6 38 13q52 22 74 34q131 70 215 179q8 9 13 18q-19 56 -81 91q-69 41 -185 43v23l49 14q13 6 26 6h3q171 -3 238 -77q21 65 30 162q0 7 10 11t32 8l20 5q20 5 42 14q-9 -119 -36 -200
q13 7 47 19q88 30 161 36q50 0 93 -48l-53 -15q-25 -9 -39 -9q-10 0 -16 5q-26 24 -50 24l-24 -2l-3 -1q-52 -20 -109 -67q-26 -22 -38 -42l-2 -26q0 -80 54 -159q62 -82 178 -93l-3 -20l-7 -4l-38 -11q-14 -7 -32 -7z" />
    <glyph glyph-name="plus" unicode="+" horiz-adv-x="953" 
d="M255 366l-16 16q15 32 36 95q47 131 85 247q-319 -5 -357 -9l-3 25q20 2 32 7q28 9 44 12q41 3 103 3q85 3 197 4q77 228 107 323q4 11 16.5 13.5t21.5 3.5l11 3q23 4 58 14l-5 -21q-54 -165 -112 -335l223 2q59 0 127 -2v-22l-14 -5q-28 -7 -31 -9q-16 -7 -33 -7l-118 1
l-169 -1l-94 -269q-10 -30 -24 -62q-7 -10 -85 -27z" />
    <glyph glyph-name="comma" unicode="," horiz-adv-x="434" 
d="M173 -97h-24q59 33 93 106q-48 9 -48 63q0 13 5 28q24 53 70 53q10 0 22 -4q41 -19 41 -62q0 -17 -7 -31q-25 -79 -125 -154z" />
    <glyph glyph-name="hyphen" unicode="-" horiz-adv-x="641" 
d="M3 475l-3 23q24 4 41 11q27 11 101 12q84 2 170 2q100 0 203 -3h11l-1 -23l-10 -3q-59 -17 -68 -17l-199 3q-185 -1 -245 -5z" />
    <glyph glyph-name="hyphen" unicode="&#xad;" horiz-adv-x="641" 
d="M3 475l-3 23q24 4 41 11q27 11 101 12q84 2 170 2q100 0 203 -3h11l-1 -23l-10 -3q-59 -17 -68 -17l-199 3q-185 -1 -245 -5z" />
    <glyph glyph-name="period" unicode="." horiz-adv-x="435" 
d="M237 5q-12 0 -23 4q-44 22 -44 66q0 14 5 28q27 57 76 57q11 0 23 -4q44 -20 44 -64q0 -14 -6 -29q-27 -58 -75 -58z" />
    <glyph glyph-name="slash" unicode="/" horiz-adv-x="749" 
d="M15 4l-15 16q26 60 47 127l16 47q173 496 316 918q74 218 90 268q4 10 15.5 12.5t16 4t20.5 4.5l56 11l-63 -187q-205 -606 -360 -1049l-14 -41q-35 -113 -58 -115l-14 -4q-22 -6 -53 -12z" />
    <glyph glyph-name="zero" unicode="0" horiz-adv-x="1436" 
d="M465 5q-129 0 -236 68q-104 71 -153.5 173t-62.5 192q-13 70 -13 142q0 153 57 302q93 233 240.5 343t291.5 167q108 38 203 38q77 0 162 -20t162 -74q159 -120 188 -357q4 -35 4 -71q0 -160 -73 -330q-85 -197 -240 -345q-76 -72 -159.5 -122.5t-204.5 -80.5l-3 -1
q-89 -24 -163 -24zM538 48q44 0 91 9l7 3q41 12 89 40q156 87 281 249q98 128 148.5 266t50.5 271q0 99 -29 190q-33 101 -91 169q-97 111 -287 136q-203 -31 -314 -105t-191 -157q-137 -161 -178 -377q-13 -73 -13 -147q0 -116 33.5 -224.5t101.5 -188t172 -114.5
q62 -20 129 -20z" />
    <glyph glyph-name="one" unicode="1" horiz-adv-x="687" 
d="M20 3l-20 15q113 289 325 881l55 152q28 82 74 203q-78 -52 -134 -81q-65 -29 -132 -45q-23 -6 -50 -10.5t-57 -4.5l-27 1l1 22l49 15q13 5 25 5l26 -1q20 0 38 3q75 31 144 78q55 33 101.5 71.5t71.5 90.5q5 9 111 35q-42 -89 -207 -553l-70 -194q-236 -666 -264 -667
q-44 -10 -60 -16z" />
    <glyph glyph-name="two" unicode="2" horiz-adv-x="1388" 
d="M736 5q-90 0 -192 68q-105 68 -219 68q-82 0 -210 -26q-88 -27 -153 -72q-13 -7 -28 -10l-29 -7l-11 -2l-44 -13l11 17q190 299 460 478q123 82 256 133q126 47 297 80l68 14l6 1q3 1 35 14q61 29 104 78q78 94 80 227q0 113 -64 207q-100 137 -277 137q-61 0 -120 -13
q-18 -5 -52 -21q-69 -34 -129 -82t-117 -101q-9 -5 -13 -6t-75 -6l-7 8q32 30 62 55q54 49 122.5 94.5t150.5 70.5q59 17 121 30.5t126 13.5q200 0 311 -157q63 -98 63 -212q-6 -154 -98 -253q-62 -61 -141.5 -88.5t-151.5 -40.5q-116 -22 -144 -29q-14 -4 -29 -9l-21 -7
q-164 -57 -318 -169q-208 -151 -356 -362q78 29 170 45q51 11 103 19.5t104 8.5q43 0 86 -8q81 -15 170 -73q26 -17 52 -30q50 -26 105 -27q36 0 65 6q119 46 197 143q5 7 13 8t75 14l9 -14q-95 -117 -239 -163q-43 -14 -89.5 -25.5t-94.5 -11.5z" />
    <glyph glyph-name="three" unicode="3" horiz-adv-x="1161" 
d="M409 5h-17q-220 10 -377 229q-80 112 -85 215q0 8 10 12t30 8l20 4q21 3 42 10v-16q9 -109 90 -216q152 -203 355 -203q45 0 91 9q28 10 56 22l11 5q176 82 246 245q40 95 40 192q0 74 -24 143q-10 35 -33.5 75.5t-61.5 73.5q-66 53 -133 53l-11 -1q-14 -3 -43 -6l-3 24
l52 13l48 10q27 4 44 7.5t21 5.5q82 29 120 87q31 51 31 110q0 37 -12 74q-38 103 -144 147q-41 15 -82 21t-78 6q-44 0 -99 -8q-91 -29 -164 -95q-7 -5 -17.5 -7.5t-64.5 -15.5l-13 19q91 84 223 118l30 8q88 24 174 24q103 0 188 -36q132 -64 158 -199q3 -19 3 -37
q0 -104 -88 -177q-66 -45 -136 -60q50 -12 106 -66q73 -73 100 -193q11 -49 11 -100q0 -133 -72 -257q-103 -168 -325 -236q-51 -17 -105.5 -29t-111.5 -12z" />
    <glyph glyph-name="four" unicode="4" horiz-adv-x="1401" 
d="M724 3l-20 14l6 19l134 379l41 111q-112 8 -230 48l-25 7q-124 36 -200 37q-74 0 -450 -70q487 261 822 514q217 162 419 354l7 7q5 5 14 7l62 16l19 -13q-41 -93 -137 -350q-81 -211 -190 -516h11q51 0 125 10q37 8 44 9q63 21 115 47q14 6 29 8l27 6q7 1 23 9l12 -24
q-71 -35 -142 -56q-150 -45 -259 -50l-26 -71q-26 -70 -150 -424q-5 -9 -19 -12q-50 -11 -62 -16zM902 574q168 462 265 710q-198 -176 -450 -347.5t-515 -315.5q16 2 152 24q36 6 72.5 10.5t74.5 4.5q55 0 110.5 -13t111.5 -31q92 -29 179 -42z" />
    <glyph glyph-name="five" unicode="5" horiz-adv-x="1378" 
d="M480 5h-10q-72 0 -158.5 23t-161.5 92q-55 55 -88.5 125t-56.5 143l-5 13q12 0 22.5 2.5t17.5 5.5q39 11 49 11q16 0 16 -8l24 -68q20 -54 56.5 -115.5t97.5 -107.5q103 -74 266 -74q79 3 137 12q58 21 113 57q107 73 176 190t78 248l2 41q0 118 -57 195q-40 52 -95 79.5
t-113.5 37t-107.5 9.5q-135 -4 -200 -27q-22 -8 -104 -45q-10 -6 -30 -14t-30 -24q-8 -7 -21 -10l-89 -23q129 300 233 612q1 13 47 23l32 6q28 7 61.5 13.5t70.5 6.5q88 -4 194 -51q75 -33 167 -48q32 -5 61 -5q37 1 55 4l7 2q1 0 3 1q72 30 118 88q9 7 83 24l16 -18
q-59 -71 -150 -103q-112 -40 -201 -40q-106 0 -242 56q-105 45 -175 47q-18 0 -49 -4q-89 -266 -195 -516q168 72 379 87h26q56 0 126.5 -12.5t134.5 -49.5t106 -108q23 -42 32 -87t9 -89q0 -55 -10 -103q-27 -143 -118 -262q-92 -118 -225 -177q-89 -35 -164 -50
q-71 -15 -160 -15z" />
    <glyph glyph-name="six" unicode="6" horiz-adv-x="1290" 
d="M114 743q-12 -64 -12 -130q0 -96 25 -193q24 -97 83.5 -197t170.5 -150q62 -25 135 -25q52 0 81 7q101 36 174 89q174 130 239 336q26 86 26 169q0 153 -87 267q-50 62 -128.5 95t-173.5 33q-46 0 -95 -8q-14 -1 -33 -7q-35 -8 -66 -25l-6 -2q-150 -68 -248 -236
q-5 -7 -23.5 -12t-59.5 -13zM125 796q98 150 258 218q72 29 154 48q94 25 179 25q108 0 196 -39q119 -53 180 -173q46 -96 46 -208q0 -130 -63 -266q-106 -215 -320 -320q-49 -24 -107 -40q-114 -36 -196 -36q-253 0 -376 256q-76 161 -76 335q0 106 28 206q32 108 102 221
q49 84 137 176t217 152q68 28 136 43q97 25 196 25q44 0 86 -5q48 -5 107.5 -24t112 -62t77.5 -117l2 -10l-29 -8q-26 -8 -39.5 -11t-19.5 -3q-16 0 -22 25t-30 56q-56 67 -138.5 91.5t-159.5 24.5q-92 0 -157 -13l-17 -7q-67 -23 -141 -79q-173 -130 -276 -349
q-30 -66 -47 -132z" />
    <glyph glyph-name="seven" unicode="7" horiz-adv-x="1169" 
d="M-95 3l-15 17l54 107q74 145 181 307q129 191 263.5 319.5t321.5 243.5l54 32q298 167 372 310l30 47q-102 -3 -286 -45q-181 -44 -321 -46q-78 0 -143 19q-52 16 -91 39l-37 -81q-7 -9 -39 -17.5t-48 -8.5l-14 15l67 147q6 8 81 26q9 0 14 -3q81 -60 164 -80
q57 -13 116 -13q56 0 113.5 8.5t117.5 20.5l78 15q163 41 346 48l3 -23q-17 -3 -28 -17l-15 -25q-35 -60 -46 -76q-34 -44 -75 -78t-81 -62q-83 -58 -170 -109q-117 -71 -148 -92q-164 -107 -298 -248q-121 -128 -240 -316q-100 -156 -162 -284q-36 -77 -50 -79l-3 -1
q-25 -7 -49 -13z" />
    <glyph glyph-name="eight" unicode="8" horiz-adv-x="1174" 
d="M424 5q-23 0 -46 2q-115 11 -207.5 83.5t-139.5 185.5q-31 78 -31 150q0 43 11 84q36 122 143 200q56 39 117.5 62t123.5 39q53 15 84 22q-85 45 -162 127q-61 73 -61 154q0 108 101 190q46 37 97.5 58t98.5 32q44 13 92 20l-18 -1l-12 1l3 15q89 15 97 15
q235 -9 302 -129q26 -47 26 -103q0 -60 -29 -125q-52 -113 -170 -170q-100 -46 -206 -70l-18 -5q67 -37 101 -59q118 -78 179 -185q53 -98 53 -198q0 -74 -28 -141.5t-84 -117.5q-50 -44 -107 -68t-110 -37q-112 -31 -200 -31zM493 48q28 0 59 3q49 5 70 13l6 3
q178 69 216 241q8 37 8 74q0 81 -34 158q-73 156 -290 267l-14 8q-23 -5 -51 -13l-21 -5q-4 -1 -22 -7q-177 -50 -255 -158q-64 -91 -64 -190q0 -16 2 -32q13 -109 79 -200q116 -162 311 -162zM586 860l10 3l42 13q60 15 115.5 40.5t98.5 68.5q85 90 89 210q0 102 -91 160
q-45 24 -90 30l-55 -13q-8 -2 -15 -2q-40 6 -61 6q-28 0 -64 -7q-59 -23 -94 -47q-30 -20 -60.5 -54t-45.5 -82q-8 -26 -8 -53q0 -63 41 -122q29 -41 68 -71.5t75 -52.5z" />
    <glyph glyph-name="nine" unicode="9" horiz-adv-x="1342" 
d="M1089 682q11 64 11 130q0 96 -24.5 193t-84.5 196t-170 149q-59 24 -135 26q-43 0 -81 -8q-102 -34 -174 -88q-174 -129 -240 -336q-26 -87 -26 -168q0 -154 87 -268q51 -62 129.5 -95t174.5 -33q45 0 92 8q62 12 93 28l13 6q58 27 102 61q81 63 146 174q7 11 37 15
l47 13zM1077 627q-23 -34 -46 -62q-84 -100 -212 -154q-72 -30 -154 -49q-95 -25 -179 -25q-268 0 -375 212q-47 97 -47 209q0 129 63 264q135 277 440 365q102 32 183 32q253 0 376 -256q76 -161 76 -339q0 -103 -28 -201q-32 -109 -101 -222q-50 -85 -138 -177t-218 -151
q-50 -20 -135 -43q-97 -25 -195 -25q-45 0 -87 5q-47 5 -107 24t-112.5 62t-76.5 116l-4 11l30 8q25 7 38.5 10.5t20.5 3.5q16 0 16 -10q12 -41 35 -71q56 -68 139 -92t159 -24h14q109 0 160 20q72 27 142 79q173 130 276 349q30 65 47 131z" />
    <glyph glyph-name="colon" unicode=":" horiz-adv-x="583" 
d="M471 717q-12 0 -23 4q-47 22 -47 67q0 13 5 28q29 56 80 56q12 0 24 -4q46 -20 46 -64q0 -14 -6 -29q-28 -58 -79 -58zM219 5q-11 0 -23 4q-46 22 -46 66q0 14 5 28q28 57 80 57q11 0 23 -4q46 -20 46 -64q0 -14 -6 -30q-28 -57 -79 -57z" />
    <glyph glyph-name="semicolon" unicode=";" horiz-adv-x="540" 
d="M461 717q-11 0 -22 4q-43 22 -43 67q0 13 4 28q27 56 75 56q12 0 23 -4q43 -20 43 -64q0 -14 -5 -29q-27 -58 -75 -58zM109 -97q59 34 93 106q-48 10 -48 63q0 14 5 28q24 54 70 54q10 0 22 -4q41 -20 41 -62q0 -17 -7 -32q-25 -79 -125 -153h-51z" />
    <glyph glyph-name="less" unicode="&#x3c;" horiz-adv-x="1016" 
d="M706 298l-10 3q-61 38 -114 76q-303 216 -535 390q-22 16 -47 34l5 17q20 7 104 30q484 130 751 303q14 7 26.5 9t15.5 3q1 1 39 9l12 -20q-195 -121 -407.5 -197.5t-431.5 -133.5l59 -44l388 -284q108 -81 226 -156l-5 -18l-13 -4z" />
    <glyph glyph-name="equal" unicode="=" horiz-adv-x="972" 
d="M3 879l-3 25q22 3 37 8q27 13 98 14q99 3 394 6q51 1 167 1l127 -1v-23l-37 -11q-32 -9 -41 -9l-132 1q-206 0 -519 -6l-19 -1q-30 0 -72 -4zM3 602l-3 23q24 5 42 11q28 13 112 13q50 4 560 7l109 -2v-23l-10 -2q-9 -4 -28 -8l-13 -4q-11 -6 -24 -6q-21 1 -120 1
q-171 0 -350 -3q-235 -4 -275 -7z" />
    <glyph glyph-name="greater" unicode="&#x3e;" horiz-adv-x="1016" 
d="M109 1196l10 -1q66 -28 125 -58q333 -166 589 -301q24 -13 53 -26l-2 -18q-17 -9 -97 -45q-458 -205 -694 -417q-13 -9 -25 -13t-17 -7l-35 -14l-16 20q172 149 370 257.5t407 199.5l-65 34l-427 220q-120 63 -249 119l2 18l11 6z" />
    <glyph glyph-name="question" unicode="?" horiz-adv-x="1335" 
d="M336 8q-36 0 -52 35q-4 10 -4 20q0 37 33 58q15 10 31 10q10 0 19 -4q37 -14 37 -53q0 -36 -33 -58q-16 -8 -31 -8zM361 212q-80 14 -80 90q0 72 59 138q85 96 249 154q75 26 150 46q63 18 126 39q77 25 142.5 62.5t101.5 101.5q27 52 27 114q0 74 -39 155
q-67 138 -197 210q-110 57 -234 57q-67 0 -145 -17q-17 -7 -34 -12l-56 -23q-29 -13 -71 -38.5t-83 -64.5t-69.5 -92t-28.5 -121l1 -20q0 -8 -12 -12t-37 -9l-14 -3q-19 -5 -39 -13l-1 42q0 20 3 39q16 97 78.5 163.5t136 105.5t123.5 54q62 22 152 43.5t163 21.5
q145 0 269 -71q141 -85 207 -237q29 -73 29 -139q0 -87 -49 -156q-50 -62 -123.5 -98t-154.5 -60l-106 -31q-208 -55 -305 -129q-115 -84 -115 -180q0 -58 57 -69l-3 -22l-9 -2q-60 -17 -69 -17z" />
    <glyph glyph-name="at" unicode="@" horiz-adv-x="1491" 
d="M426 5q-190 0 -304 126q-49 56 -75.5 121.5t-36.5 132.5t-10 126l1 44q12 220 117 404.5t285 300.5q89 56 200 95q127 38 139 38q67 16 146 19q117 0 214.5 -54.5t151.5 -149.5q57 -106 57 -236q0 -61 -13 -124q-42 -199 -173 -320q-59 -58 -140 -79l-50 -13
q-36 -12 -76 -12q-13 0 -28 2q-43 10 -56.5 41t-14.5 51q-26 -27 -72 -52q-36 -17 -70 -25q-57 -15 -85 -15q-57 0 -107 47q-44 43 -63.5 97.5t-19.5 110.5q0 58 18 110q54 149 203 207q92 32 149 32q22 0 44 -4q90 -21 118 -93l3 -12l-38 -9q-23 -6 -34 -9t-17 -3
q-16 0 -16 9q-22 60 -97 75q-16 3 -34 3l-14 -1q-146 -70 -177 -227q-6 -28 -6 -59q0 -58 22 -114.5t70 -93.5q27 -19 54 -23q12 0 12 1q62 33 104 98q42 69 69 143q34 90 50 165q0 7 10 11t97 24l-4 -11q-8 -55 -24 -103l-22 -59q-26 -76 -26 -136q0 -19 1 -38v-3
q2 -26 10 -54t28 -36q12 -4 28 -4q12 0 24 2l27 13q57 34 109 100q104 136 122 318q2 26 2 52q0 156 -80 268q-110 148 -307 148q-68 0 -107 -11q-6 0 -50 -15q-144 -51 -258 -146q-145 -123 -224.5 -297t-79.5 -367l2 -56q3 -85 37 -182t119 -171q53 -42 113.5 -58.5
t121.5 -16.5q84 0 167 24q80 28 156 71q173 101 322 305q77 99 125 193q7 7 86 27l14 -17q-66 -132 -202 -289l-5 -7q-170 -195 -389 -279q-197 -71 -343 -71z" />
    <glyph glyph-name="A" unicode="A" horiz-adv-x="1561" 
d="M1009 5q-15 0 -18 9l-35 69q-68 137 -185 297q-25 32 -38 45l-14 -21q-119 -179 -265 -297q-50 -38 -92 -56q-108 -42 -186 -42q-74 0 -138 37q-89 55 -124 155q-14 41 -14 83q0 58 26 114q42 92 133 163q74 57 176 83l37 10q70 18 139 18q181 0 318 -116l126 188
q126 189 202 291q63 86 136 166.5t163 142.5q77 54 177 81l32 9q69 20 127 20q31 0 71 -6l-1 -21l-35 -10q-33 -11 -45 -11q-29 4 -55 4q-52 0 -61 -5q-2 -9 -56 -166q-46 -142 -90 -268l-292 -846q-33 -102 -58 -104q-5 0 -10 -2l-21 -7q-20 -7 -30 -7zM1037 147
q272 782 411 1198q-68 -43 -146 -127q-82 -88 -153 -184.5t-134 -191.5q-112 -169 -227 -338q124 -121 249 -357zM252 53q13 0 22 1l5 2q44 16 96 63q78 63 138 135q53 65 101 135l65 94q-77 75 -160 110t-178 37q-17 0 -55 -4q-44 -4 -103 -42q-44 -28 -85 -70t-68.5 -96
t-27.5 -114q0 -17 3 -34q16 -96 84.5 -156.5t154.5 -60.5h8z" />
    <glyph glyph-name="B" unicode="B" horiz-adv-x="1533" 
d="M111 5q-16 0 -32 4.5t-30 15.5q-20 19 -28.5 46t-12.5 51v1q-8 39 -8 83q0 127 65 322q161 476 694 802l34 92q5 9 82 26l31 -18h-13l-12 -33q25 13 67 24q46 14 99 25.5t112 11.5l22 -1q126 -4 193 -61t71 -154v-9q0 -82 -51 -156t-146 -128q-31 -17 -59 -29
q134 -82 173 -229q10 -44 10 -86q0 -74 -24 -139.5t-55 -116.5q-101 -164 -259 -257q-96 -50 -188 -69q-51 -13 -100 -13q-37 0 -72 8q-180 43 -261 179q-10 -22 -37 -60t-69 -67q-35 -23 -71 -36q-72 -26 -125 -29zM817 54q27 0 53 4q2 1 37 15q101 47 196 149
q45 47 90.5 118.5t67.5 162.5q9 39 9 79q0 122 -81 222q-42 51 -98 83l-3 -1q-111 -30 -192.5 -40t-160.5 -10q-44 0 -58 2q-149 -396 -235 -581q31 9 36 9q14 0 17 -9q34 -67 95 -118q108 -85 227 -85zM611 925l15 39q-7 0 -19.5 -5t-17.5 -17l-1 -6q0 -11 19 -21zM808 880
q109 0 227 21l21 5q-49 25 -124 42q-100 24 -193 24h-13l-32 -86q45 -6 114 -6zM1147 943q42 21 93 64t82 109q20 46 20 96q0 52 -23 98.5t-71 72.5q-57 31 -159 31q-43 0 -82 -5l-2 -1q-65 -24 -146 -72l-118 -323q23 2 60 2q189 0 343 -70zM179 49q44 19 75 53
q30 33 51.5 73t39.5 81v1q72 160 152 363l85 228q-58 8 -66 54l-1 8q0 19 15.5 37.5t39 28t50.5 15.5q9 0 16 3l95 258q-35 -23 -95 -72q-439 -352 -524 -855q-9 -55 -9 -102q0 -49 10 -91q4 -20 12 -41t22 -34q10 -8 29 -8h3z" />
    <glyph glyph-name="C" unicode="C" horiz-adv-x="1391" 
d="M549 5q-137 0 -249 55q-127 65 -205.5 191t-92.5 287q-2 28 -2 58q0 146 50.5 288t145.5 257q107 131 263 199q72 31 168 58q130 38 233 38q156 0 279 -75q153 -100 213 -287l3 -15q-10 0 -33.5 -6t-36 -9t-19.5 -3q-14 0 -21 25t-25 60q-76 155 -221 225q-94 42 -206 42
q-43 0 -89 -7l-57 -11q-121 -38 -203 -91q-121 -81 -205 -212q-66 -103 -100.5 -221.5t-34.5 -236.5q0 -54 8 -107q22 -146 98.5 -254t192.5 -161q96 -44 211 -44q51 0 106 9q29 3 57 10q101 26 265 116q19 8 82 21l11 -21q-151 -82 -273 -121q-179 -57 -313 -57z" />
    <glyph glyph-name="D" unicode="D" horiz-adv-x="1688" 
d="M679 5q-76 0 -197 25q-124 24 -195 24l-33 -1q-43 -3 -67 -17q-8 -10 -39.5 -17t-47.5 -9l-15 15q15 30 68 189q128 365 252 729q98 282 127 373l11 35l-6 -3q-86 -44 -162 -111.5t-136.5 -154.5t-97.5 -187.5t-37 -205.5q0 -96 37 -194l-42 -11q-35 -13 -47 -13
q-16 0 -17 11q-35 93 -35 191q0 133 54.5 254.5t140.5 219.5t184 162q67 45 85 52l-38 -8l-5 26l27 6q29 9 218 45v-3q110 28 220 28q158 0 304 -57q217 -87 315 -250q38 -67 52.5 -136t14.5 -131q0 -53 -7 -98q-28 -190 -138.5 -361t-305.5 -288q-100 -60 -216 -92
q-52 -15 -108.5 -26t-117.5 -11zM754 48q71 0 117 13q113 33 244 130q89 66 147 135q56 65 101 148q95 176 104 355l1 38q0 67 -19.5 145.5t-73.5 151.5q-110 141 -311 209q-120 39 -246 39q-87 0 -155 -16l-7 -1q-9 -29 -46 -140l-81 -237q-225 -663 -291 -843l-10 -31
q-13 -40 -25 -69l12 2l4 2q69 17 143 17q49 0 103 -7l103 -18q100 -21 186 -23z" />
    <glyph glyph-name="E" unicode="E" horiz-adv-x="1151" 
d="M437 5q-73 0 -152 21.5t-149 80.5q-66 58 -101 141t-35 175q0 60 16 120q68 226 287 332q56 24 111 37q71 20 131 27q-56 31 -94 91q-33 55 -33 116q0 45 14 78l3 7q-49 27 -97 67q2 19 17 22t35 9t29 6q11 0 16 -5q22 -18 40 -30q54 73 167 111q98 35 171 35
q71 0 121.5 -32.5t50.5 -86.5q0 -36 -24.5 -73t-82.5 -57q-52 -19 -114 -30q-29 -5 -65 -5q-78 0 -165 27l-10 4q-3 -13 -3 -34q5 -86 70 -149q76 -72 235 -88q15 -2 105 -9q-61 -19 -64 -20t-7 -1q-11 -4 -26 -8l-11 -3q-13 -6 -26 -6q-22 0 -75 7l-49 6q-65 10 -141 10
q-42 0 -99 -9q-77 -30 -125 -65q-173 -125 -202 -332q-3 -26 -3 -51q0 -97 40.5 -182.5t112.5 -136.5q60 -41 125 -57.5t127 -16.5q96 0 172 26l40 15q121 49 214 113q5 5 9.5 5.5t55.5 14.5l16 4l7 -9l8 -10l-4 -4q-186 -126 -433 -180q-31 -7 -71 -12.5t-85 -5.5z
M764 1206q27 0 48 3v-1q27 11 43 31q28 34 28 70q0 35 -24.5 56t-53.5 29q-30 8 -63 8q-31 0 -41 -4q-33 -13 -71.5 -38.5t-67.5 -65.5q-10 -16 -18 -34q110 -54 220 -54z" />
    <glyph glyph-name="F" unicode="F" horiz-adv-x="1370" 
d="M134 5q-55 0 -89.5 30t-41.5 87q-3 37 -3 73q0 107 10 157q17 93 63 203q167 394 619 706l62 43l36 113q2 8 19 12l90 21l-7 -19q-10 -38 -16 -55q26 14 83 31q79 25 147 29q46 0 87.5 -14t81.5 -31l30 -11q48 -23 105 -23q33 0 54 8q73 38 104 96q5 8 16 10l70 17
l15 -17q-46 -86 -148.5 -121.5t-171.5 -35.5t-145 32q-45 20 -85 33.5t-83 13.5q-59 -2 -156 -69l-26 -15q-80 -242 -150 -423q36 -10 74 -34q98 -58 198 -58q22 1 42 4q44 17 84 55q8 5 82 24l14 -20q-41 -39 -88 -58.5t-98 -31.5q-57 -15 -110 -15q-78 0 -162 35
q-21 10 -62 34q-158 -425 -237 -580q-22 -46 -50.5 -91t-69.5 -81q-35 -30 -83 -43l-16 -5q-21 -6 -43 -11t-45 -5zM583 825q-42 -1 -53 -44l4 -26l19 -12zM201 49l10 6l6 4q52 41 80 96q53 87 93.5 181t76.5 189q45 115 74 166q-11 -4 -33 -4q-39 8 -39 58q0 75 63 111
q19 11 73 26q76 202 122 340q-425 -307 -570 -702q-44 -113 -51 -207q-3 -39 -3 -74l1 -65q0 -38 12 -72q10 -24 26.5 -35.5t34 -14.5t24.5 -3z" />
    <glyph glyph-name="G" unicode="G" horiz-adv-x="1542" 
d="M746 -547q-47 0 -80 32q-45 44 -45 109q0 27 7 51t17 47q70 158 232 308q81 73 150 114l5 15q-167 -81 -377 -118q-54 -8 -105 -8q-139 0 -251 55q-127 64 -205 190.5t-92 287.5q-2 28 -2 58q0 145 50.5 287t144.5 257q108 129 263 197q72 33 168 59q135 38 236 38
q153 0 275 -76q153 -98 213 -287l4 -11l-32 -7q-26 -8 -39 -11t-19 -3q-16 0 -16 8l1 2q-13 40 -31 76q-75 155 -221 223q-93 42 -203 42q-44 0 -92 -7q-5 0 -56 -10q-29 -9 -66 -23q-215 -84 -341 -280q-67 -104 -101.5 -222.5t-34.5 -235.5q0 -53 8 -105
q23 -146 99.5 -254t191.5 -161q95 -44 211 -44q85 0 155 17l18 5q113 35 253 112q6 4 9 5l13 47q8 32 23 80q46 165 77 283q-9 -4 -34 -10q-99 -34 -188 -34q-133 0 -237 95l46 12q31 12 50 12q9 0 14 -5q79 -71 192 -71l41 1q9 0 40 6q72 29 92 39l27 8l52 13l13 -18
q-2 -5 -9 -29t-16 -60.5t-20 -78.5l-68 -256l-13 -48q88 35 223 69q150 40 351 60l3 -25q-19 -3 -32 -8q-29 -10 -45 -11q-153 -18 -228 -33q-60 -10 -130 -35q-92 -32 -156 -69q-27 -96 -54 -208q-16 -68 -38.5 -142t-57.5 -147q-25 -56 -65 -103q-44 -41 -94 -53.5
t-74 -12.5zM799 -503q42 33 76 110q58 117 106 327l19 78l5 20q-48 -38 -111 -110q-90 -99 -135 -193q-14 -27 -24 -57t-10 -61q0 -33 17 -66q22 -39 57 -48z" />
    <glyph glyph-name="H" unicode="H" horiz-adv-x="1664" 
d="M1253 5h-17q-77 0 -131 30q-95 56 -95 177q0 35 7.5 69.5t17.5 64.5l38 124q49 153 76 253q32 121 37 136q-29 -12 -82 -26q-115 -33 -202 -46q-105 -16 -198 -24q-72 -4 -138 -12l-25 -3q-4 -11 -8 -28l-88 -270q-30 -97 -66 -185q-37 -92 -90 -149q-47 -51 -92 -74
q-63 -25 -82.5 -27t-33.5 -2q-16 0 -32 7q-49 37 -49 139q0 147 97 323q35 64 86.5 130.5t127.5 107.5q62 28 138 45q137 441 185 592l5 13q-8 -1 -17 -4q-140 -50 -263 -50v26q16 0 45 11q16 7 32 7q56 0 103 9q49 20 73.5 33t53.5 24q27 7 79 20l12 -20l-4 -11
q-39 -103 -69 -208l-24 -78l-107 -344q62 10 134 15l59 5q25 0 137 14q80 9 138 21l13 3q100 29 166 66q56 192 108 388q10 41 30 78t60 53q22 11 46 15.5t30 5.5t18 2q37 0 63 -26q23 -30 23 -62q0 -47 -7 -82q-48 -237 -270 -366l-3 -8q-45 -173 -110 -385l-38 -119
q-37 -107 -37 -174q0 -26 7 -55.5t24 -55.5q22 -30 50.5 -45t52.5 -19q30 -6 65 -6l34 3q8 1 22 6t20 6q37 13 130 63q19 9 81 22l11 -22l-9 -5q-179 -101 -348 -116zM136 60q18 13 40 35q47 47 76.5 106.5t52.5 124.5q75 216 135 407q-17 -4 -32 -10l-33 -19
q-67 -47 -114 -113t-78 -129q-80 -155 -80 -278q0 -24 3 -49t11.5 -47.5t18.5 -27.5zM1324 998l12 13q113 121 135 274q4 21 4 47q0 20 -5.5 38.5t-18.5 28.5l-1 1q-7 -6 -15 -25q-26 -53 -38 -114q-19 -80 -49 -180z" />
    <glyph glyph-name="I" unicode="I" horiz-adv-x="969" 
d="M111 5q-44 0 -77 24q-34 30 -34 71q1 39 33 60q15 6 30 9l35 9q3 0 14 7l14 -24q-23 -15 -23 -44q0 -33 28 -56q19 -12 46 -13l7 1q85 38 149.5 146.5t109.5 225.5l1 2q64 150 157 425l36 104q42 130 87 256q-15 -2 -44.5 -3t-48.5 -4l-9 -1q-10 -5 -18 -10
q-17 -9 -33.5 -27t-24.5 -46q-6 -12 -84 -27l-19 12q20 71 106 106q18 7 44 14q57 19 146 26l29 80q24 76 74 95q33 12 79 21l16 2q17 0 28 -5.5t18 -11.5q21 -22 21 -53q-4 -62 -62 -105q-46 -30 -99 -41q-7 -2 -15 -5q-24 -66 -46 -133l-23 -67q-158 -495 -292 -763
q-95 -188 -231 -230l-17 -5l-9 -3q-58 -19 -99 -19zM842 1263q39 18 55 67q4 12 4 25q0 28 -9 35q-7 -8 -14 -30l-3 -6q-20 -53 -33 -91z" />
    <glyph glyph-name="J" unicode="J" horiz-adv-x="1350" 
d="M215 5q-74 0 -142 31q-67 35 -114 91.5t-81 115.5l-8 15q13 0 26 3.5t19 5.5q42 12 47 12q13 0 16 -8q20 -33 37 -58q95 -138 206 -158q34 -7 70 -7q37 0 76 7q50 17 106 52q117 72 203 178q129 163 231 483q81 243 115 337.5t78 200.5q-53 10 -119 39q-83 40 -169 42
q-63 0 -119 -22q-15 -5 -32 -9q-32 -8 -47 -15l-10 26q78 28 88 28q104 35 188 36q82 0 170 -39q51 -23 78 -30q19 30 50 44q36 16 75 23l10 3q16 5 41 5q24 0 44 -8q9 -2 21 -10.5t12 -25.5q0 -45 -60 -67q-74 -28 -127 -28q-71 -178 -129 -346q-15 -48 -31 -96
q-36 -116 -79.5 -232t-105.5 -224q-171 -280 -437 -361q-46 -13 -96 -23.5t-101 -10.5zM1259 1341q19 12 19 31l-1 5q-3 13 -27 16q-21 -15 -36 -50q24 -2 45 -2z" />
    <glyph glyph-name="K" unicode="K" horiz-adv-x="1451" 
d="M15 3l-15 17l2 6q25 62 67 185q113 318 161 461l48 139q-46 9 -75 45q-20 25 -20 50q0 11 3 20q16 32 50.5 43t55.5 13.5t47 3.5l140 412h1l-127 -26l-7 24l70 20l150 29h25l-2 -11l-5 -13q-35 -110 -108 -319l-45 -133q69 -26 133 -95q5 2 18 5q34 10 72 27
q196 84 306 239q45 64 76.5 137t56.5 146q5 10 16 12t18 3q41 9 76 20l-18 -52q-70 -208 -173 -319q-93 -101 -227 -169q-88 -42 -198 -73q24 -27 57 -72q96 -133 173 -276l12 -22q112 -205 194 -307q41 -57 106 -96q48 -24 108 -24q33 1 58 5h4q30 10 60 25q14 6 29 9
q36 8 52 15l11 -25q-39 -17 -71 -29q-128 -44 -211 -44q-54 0 -100 17q-70 29 -119.5 85.5t-85.5 113.5q-76 115 -139 234q-136 254 -242 366q-56 -12 -108 -17q-55 -162 -108 -312q-44 -130 -89 -254l-37 -105q-22 -67 -39 -105q-4 -7 -87 -29zM403 849q28 1 52 5
q-29 28 -50 42l-15 -46zM303 884l19 53q-16 5 -31 6q-3 -4 -4 -17q0 -28 16 -42z" />
    <glyph glyph-name="L" unicode="L" horiz-adv-x="1228" 
d="M818 -5q-88 0 -209 39l-73 22q-102 28 -199 28q-48 0 -101 -7q-70 -12 -139 -49q-9 -4 -97 -26q2 20 3 22q0 17 13 50l48 139q133 377 267 754q49 135 85 239l65 183l2 6l-78 -19q-61 -24 -79 -27t-43 -13l-10 25q83 34 204 62q32 9 66 14l9 3q14 0 25.5 -9.5t11.5 -11.5
t-41 -115q-45 -129 -92 -259q-161 -454 -174 -493q-129 -359 -163 -466l-4 -13l23 8q151 47 272 47q65 0 130 -12q48 -10 134 -35q138 -43 216 -43q21 1 40 3q57 25 123 81q65 48 101 70q13 5 38.5 10.5t31.5 9.5h12l10 -20q-52 -32 -96 -67q-67 -52 -110 -76
q-59 -28 -120 -40q-56 -14 -102 -14z" />
    <glyph glyph-name="M" unicode="M" horiz-adv-x="2122" 
d="M835 3l-16 16l3 13q24 88 39 165q45 199 140 648q53 251 93 427q12 61 26 111q-93 -37 -167 -128q-71 -91 -120 -188q-48 -88 -102 -204q-25 -53 -111 -248q-111 -253 -185 -386q-23 -45 -53 -89.5t-73 -78.5q-43 -29 -96 -41q-50 -14 -79 -14q-22 0 -45 7
q-53 17 -91 55.5t-71 86.5l-7 16q13 0 26.5 3.5t18.5 4.5q36 13 46 13q13 0 17 -8q33 -50 73 -88.5t89 -45.5h10q10 5 23 15q75 64 176 278q72 152 133 294q159 370 276 547q74 116 165 170q99 55 212 78q67 16 130 16v-24q-16 0 -39.5 -9.5t-38.5 -9.5h-12
q-14 -54 -44 -195q-50 -219 -112 -518q-44 -209 -112 -513q-23 -100 -25 -106q40 27 80 73q96 111 224 431q40 97 79 186q60 148 151 306q95 157 220 249q135 99 346 128l4 -24q-30 -7 -41 -11t-96 -299q-100 -335 -141 -469q-89 -287 -117 -362t-28 -119q0 -22 6.5 -42.5
t22.5 -36.5q31 -30 104 -30q112 5 191 70q7 5 83 24l14 -20q-60 -48 -150 -75q-116 -41 -213 -42q-83 0 -125 39q-36 35 -36 95q0 47 25 117l14 39q56 166 114 355q43 140 144 479l70 243q-96 -41 -191 -140q-62 -67 -108 -141.5t-79 -144.5q-106 -220 -186 -417l-9 -24
q-31 -76 -66 -151t-81 -144q-99 -147 -211 -182l-61 -17q-36 -9 -50 -13z" />
    <glyph glyph-name="N" unicode="N" horiz-adv-x="1875" 
d="M62 5q-22 0 -46 4q-86 21 -119 88l-7 14q12 0 25 3.5t22 7.5q35 11 44 11q14 0 17 -9q30 -61 104 -73q15 -3 31 -3l17 1l3 1q76 40 144 148q119 187 229 505q42 126 82 252q71 235 165 468q4 10 44 18q19 5 27.5 7t15.5 2q13 -5 14 -9v-1q35 -143 85 -332
q118 -444 154 -567q73 -241 158 -384q15 60 24 103q7 37 16 72q39 181 102.5 379t167.5 390q165 296 391 372q117 41 223 49l2 -24q-16 -3 -26 -7q-37 -12 -50 -13q-30 -3 -55 -7q-54 -12 -108 -47q-180 -109 -320 -398q-82 -167 -139 -356q-51 -163 -103 -398
q-10 -59 -33 -140q-8 -30 -14 -58l-2 -8q-2 -5 -2 -16q0 -5 8 -20l-89 -24q-14 0 -18 8q-88 123 -155 278q-45 107 -78.5 219t-62.5 223l-7 24q-19 73 -23 89l-111 420q-35 -99 -102 -309q-56 -181 -118.5 -351.5t-150.5 -330.5q-43 -81 -100 -149.5t-144 -96.5l-56 -15
q-34 -10 -76 -10z" />
    <glyph glyph-name="O" unicode="O" horiz-adv-x="1394" 
d="M467 5q-130 0 -237 69q-105 71 -154 173t-63 193q-13 70 -13 142q0 154 58 304q93 235 281 358q91 59 226 102q108 32 172 48h-12q-82 0 -182 -21l-5 24l73 20q89 20 185 20q77 0 162.5 -20t163.5 -74q159 -120 188 -359q4 -36 4 -74q0 -160 -73 -330q-85 -196 -241 -346
q-77 -73 -161 -123.5t-205 -80.5l-3 -1q-90 -24 -164 -24zM536 48q49 0 104 12q36 11 88 40q158 87 283 250q98 129 149 268t51 272q0 100 -29 192q-34 101 -92 169q-97 112 -268 136l-18 -5q-46 -14 -70 -18l-52 -13q-131 -37 -219 -87q-95 -54 -169 -139
q-138 -162 -178 -380q-13 -74 -13 -150q0 -116 33 -224.5t101.5 -188t173.5 -114.5q59 -20 125 -20z" />
    <glyph glyph-name="P" unicode="P" horiz-adv-x="1750" 
d="M116 5q-36 0 -62 14q-54 33 -54 168q0 32 3 70q32 363 376 720q204 212 401 325l38 117q2 8 20 12q67 15 89 24l-30 -93q20 9 38 15l14 5q57 18 121.5 31.5t131.5 13.5q86 0 170 -34q101 -46 168.5 -131t87.5 -191q6 -35 6 -71q0 -93 -41 -185.5t-119 -171.5
q-84 -84 -196 -132q-49 -22 -120 -41q-127 -37 -232 -37q-54 0 -116 11t-120.5 41t-91.5 71q-45 -112 -103 -237q-31 -73 -75 -144.5t-119 -117.5q-30 -17 -69 -28l-26 -8q-53 -16 -90 -16zM193 49q108 49 179 212q38 83 71 159q182 419 313 808q-148 -99 -320 -291
q-321 -352 -332 -705q0 -104 18 -148q16 -35 62 -35h9zM988 475q75 0 123 12q35 7 74 23q147 62 243 187q103 140 103 286q0 52 -14 102q-55 187 -233 269q-59 26 -157 28q-42 0 -107 -10l-13 -3q-69 -30 -127 -63q-122 -366 -267 -715q0 -1 -0.5 -1.5t5.5 1.5t17 6
q23 9 34 9q12 0 17 -7q40 -50 90.5 -76.5t106 -37t105.5 -10.5z" />
    <glyph glyph-name="Q" unicode="Q" horiz-adv-x="1427" 
d="M933 -34q-150 0 -264 85q-1 -1 -24 -7l-19 -4q-85 -23 -158 -23q-132 0 -238 68q-105 72 -154 174t-63 193q-13 71 -13 142q0 153 58 303q93 234 281 357q132 86 397 150h-11q-81 0 -180 -22l-5 26l27 7q105 32 227 32q78 0 163.5 -20t162.5 -74q159 -121 188 -359
q4 -36 4 -74q0 -159 -72 -328q-87 -198 -242 -347q-115 -110 -236 -161q104 -76 240 -76q37 0 72 5q29 9 88 45l25 15q69 40 105 45q17 3 41 11l13 -26h-10q-33 -16 -67 -36l-28 -16q-63 -37 -134 -57q-33 -9 -71 -18.5t-103 -9.5zM538 60q69 0 103 13l-3 2l-22 21
q-32 31 -64 54.5t-71 30.5q-15 3 -33 3q-27 -1 -52 -4q-40 -10 -94 -45q98 -75 236 -75zM729 113q156 86 281 249q98 129 148.5 267.5t50.5 271.5q0 99 -29 191q-33 100 -91 169q-96 110 -269 136l-55 -16l-85 -20q-129 -37 -218 -87q-94 -54 -168 -140q-138 -161 -177 -379
q-13 -68 -13 -143q0 -124 39.5 -246.5t122.5 -200.5q43 23 78 29q95 33 170 33q59 0 102 -23q46 -24 99 -78z" />
    <glyph glyph-name="R" unicode="R" horiz-adv-x="1703" 
d="M1359 5q-44 0 -87 8q-82 15 -132.5 74t-84.5 123q-40 69 -69 141q-7 15 -12 30q-13 34 -27 63l-32 -1q-84 0 -151 22q-109 37 -167 100q-45 -109 -101 -232q-31 -74 -75.5 -146t-119.5 -119q-26 -14 -86.5 -33t-100.5 -19q-36 0 -60 15q-54 31 -54 167q0 32 3 69
q32 362 376 719q203 213 399 325q19 54 38 117q4 10 20 12q35 7 89 22l-29 -90q15 7 53 19q55 17 119 30.5t130 13.5q45 0 89.5 -8.5t87.5 -27.5q211 -105 253 -332q4 -28 4 -57q0 -97 -44.5 -193t-129.5 -177q-87 -82 -204 -129q-55 -20 -107 -33q-59 -16 -92 -22l11 -26
q48 -131 138 -271q32 -55 92 -88q48 -23 133 -23q33 0 66 6q19 3 20 3l6 3q63 24 118 66q9 5 15 5l51 15l17 2l11 -19q-67 -52 -143 -78q-133 -46 -231 -46zM193 60q108 49 178 212q31 67 60 134l11 24q177 400 312 807q-145 -99 -319 -290q-242 -266 -308 -537
q-21 -87 -23 -187q0 -85 17 -124.5t63 -39.5zM921 489q-77 106 -232 116h-3q63 -69 170 -102q37 -12 65 -14zM1039 488l44 5q49 9 74 18q156 59 254 179q118 147 118 302q0 45 -11 90q-50 191 -229 278q-64 31 -147 31h-17q-48 0 -115 -12l-2 -1q-5 -1 -29 -11
q-56 -25 -94 -47l-7 -4q-116 -352 -255 -689l23 6q53 16 106 16q66 0 125 -24q109 -42 162 -137z" />
    <glyph glyph-name="S" unicode="S" horiz-adv-x="1338" 
d="M498 5q-177 0 -324 93q-96 62 -141 141q-33 59 -33 121q0 79 32 80q48 11 86 23q-15 -61 -15 -87l1 -24q11 -74 56 -126.5t97.5 -85.5t88.5 -47q99 -45 223 -45q95 0 181 21q102 36 159 77q133 97 133 234q-3 163 -150 260q-106 68 -226 111l-71 29q-92 35 -172 86
t-125 138q-20 42 -20 85q0 136 187 242q85 49 198 80q44 12 95.5 21.5t106.5 9.5q31 0 64 -5q117 -14 219 -90.5t127 -209.5v-2q0 -14 -101 -35q-8 66 -38 118q-50 86 -142.5 133t-204.5 47q-57 0 -109 -12q-54 -18 -106 -46q-193 -101 -193 -233q0 -27 9 -54
q33 -92 136 -158q100 -59 209 -98l86 -35q73 -29 144.5 -72t122.5 -111q57 -84 57 -178q0 -68 -31 -131q-65 -125 -250 -194q-189 -71 -366 -71z" />
    <glyph glyph-name="T" unicode="T" horiz-adv-x="1092" 
d="M182 3l-20 15q28 74 131 429q64 218 120 403q75 259 167 500q-69 18 -143 40q-48 17 -97.5 27.5t-92.5 10.5l-28 -1q-23 -12 -53 -40l-9 -8q-27 -30 -65 -52q-13 -5 -38 -11q-27 -6 -42 -13l-12 24q32 19 56 43q30 29 46 41q43 33 136 51q30 9 77 9q40 0 78 -7t72 -17
l245 -67q99 -22 178 -22q48 0 94 10q76 25 149 83q8 6 15 6l68 18l12 -20q-110 -90 -273 -123q-64 -16 -137 -16q-72 0 -147 14q-102 -275 -277 -882l-94 -317q-32 -108 -53 -112l-22 -5l-13 -3q-16 -3 -28 -8z" />
    <glyph glyph-name="U" unicode="U" horiz-adv-x="1487" 
d="M445 5h-18q-172 0 -300 145q-127 154 -127 416q0 108 25 225q35 166 131 375l100 206l-138 -16l-4 24q23 4 40 10t37 10l174 25l8 -18l-13 -17l-49 -100q-36 -69 -88 -192q-84 -197 -108 -363q-12 -60 -12 -154q0 -67 12 -144t44.5 -150.5t91.5 -133.5q110 -105 248 -105
q49 0 82 13q116 46 203 129q106 99 190 279q47 102 108 262q109 282 167 456l69 216q-57 -6 -149 -26l-5 26q18 3 34 8q63 17 135 28l89 10l6 -16q-10 -25 -43 -130q-91 -283 -213 -589l-3 -9q-60 -168 -144 -323t-234 -260q-148 -98 -346 -117z" />
    <glyph glyph-name="V" unicode="V" horiz-adv-x="1331" 
d="M191 1l6 32q3 43 3 87q0 50 -2 99l-1 35q-5 137 -16 352q-21 388 -46 665q-6 55 -10 83q-4 57 -42 57q-31 -2 -76 -43q-9 -8 -18 -8q-11 -3 -23 -6t-25 -7l-18 -2l-13 17q30 28 63 45t94 33q40 12 82 15q29 0 53 -18q22 -28 26 -58q6 -39 9 -77l11 -134q20 -230 37 -568
q16 -289 16 -417q37 56 145 214l126 178l117 172q109 169 253 325q138 144 327 256q78 51 178 89q23 9 111 32q48 11 93 11h20l-2 -21l-12 -6q-26 -5 -32 -9q-17 -7 -33 -7h-10q-22 0 -42 -3q-38 -8 -107 -44q-274 -145 -467 -376q-122 -150 -225 -310q-32 -43 -60 -86
q-23 -33 -48 -68q-66 -92 -129 -188q-34 -52 -70 -102l-53 -79l-19 -29l-39 -53l-6 -8q-9 -15 -24.5 -31.5t-46.5 -23.5z" />
    <glyph glyph-name="W" unicode="W" horiz-adv-x="1767" 
d="M165 1l1 20q5 233 6 605q0 385 -27 606l-1 6q-5 61 -27 116q-11 24 -31.5 43.5t-49.5 21.5l2 -1q-33 -14 -72 -49q-10 -6 -18 -6l-24 -7q-24 -6 -41 -8l-13 17q38 35 80 55q37 17 95 32q27 11 59 11q22 0 44 -10q36 -18 58 -52q34 -60 39 -126q29 -222 29 -546l1 -147
q0 -238 -4 -456q196 198 345 422q60 89 102 169l-9 29q-53 148 -78 304q-7 50 -7 94q0 33 4 64q15 137 115 167l18 6q44 15 79 17q63 0 101 -65q23 -44 23 -115q0 -205 -123 -447q-9 -19 -19 -36q104 -323 122 -493l74 174q71 167 157.5 334t204.5 318q206 257 455 358
q80 33 210 62l7 -25l-45 -12l-42 -12l-8 -3q-78 -31 -135 -61q-334 -184 -581 -684q-86 -177 -160 -355q-129 -304 -152 -307q-48 -12 -84 -23q4 39 4 78v22q-3 91 -17.5 174.5t-31.5 150.5q-26 101 -49 180q-184 -295 -488 -582zM784 853q78 174 78 340q0 145 -74 159
q-20 -14 -32.5 -39t-17.5 -48q-11 -52 -11 -103q0 -53 7.5 -102t16.5 -88q19 -76 33 -119z" />
    <glyph glyph-name="X" unicode="X" horiz-adv-x="1656" 
d="M151 5h-3q-49 1 -92 27.5t-55 77.5l-1 3q0 6 13.5 10.5t50.5 13.5q18 4 38 13q8 -57 43 -79t74 -22h6q70 33 140 116q56 65 102 138t87 147q89 156 176 285l-6 23q-74 303 -140 456q-48 107 -114 156q-24 18 -52 23.5t-58 5.5q-36 0 -70 -4h-11l-2 24q23 3 37 9
q33 14 113 14q40 0 77 -9t70 -36q72 -59 123 -184q55 -142 113 -364q104 146 195 258q60 84 157 179q90 81 200 120q50 18 124 35q26 7 56 7q32 0 68 -17l-6 -18l-22 -7l-54 -14l-9 2q-20 11 -45 11q-14 0 -27 -2q-56 -20 -110 -54t-98.5 -79t-83.5 -92q-156 -189 -296 -393
l-24 -36q12 -52 22 -104q26 -152 55 -259q20 -77 62.5 -162.5t123.5 -135.5q56 -32 131 -32q41 2 75 7q63 25 114 62l8 3q1 1 73 19l14 -20q-66 -47 -133.5 -70t-125.5 -34q-49 -10 -95 -10q-74 0 -134 29q-96 51 -145 143t-71 176q-28 105 -46 211l-10 53q-49 -76 -96 -159
l-37 -66q-49 -85 -109 -170.5t-144 -149.5q-54 -41 -119 -56q-24 -8 -48 -13.5t-49 -5.5z" />
    <glyph glyph-name="Y" unicode="Y" horiz-adv-x="1216" 
d="M257 3l-20 14q84 308 193 609q-5 376 -147 653q-18 38 -41.5 68.5t-56.5 44.5q-19 6 -39 6q-22 0 -25 -1q-26 -10 -40 -35q-5 -10 -26 -15t-59 -13l-16 16q16 29 42 43t54 22l21 6q27 8 55.5 15t58.5 7l16 -1q87 -6 147 -117q131 -236 152 -547q159 223 357 393
q134 116 254 170q96 43 183 70l8 2q44 13 90.5 24t94.5 11l42 -2l-3 -21l-12 -5l-30 -9q-19 -8 -33 -8l-27 1q-37 0 -76 -7q-146 -52 -227 -100q-139 -85 -247.5 -193.5t-180.5 -198.5q-77 -93 -136 -181l-6 -9q-16 -22 -32 -49l-7 -11q-112 -308 -198 -623
q-4 -11 -16.5 -13.5t-31.5 -6t-35 -9.5z" />
    <glyph glyph-name="Z" unicode="Z" horiz-adv-x="1727" 
d="M115 5h-13q-28 1 -59 11t-58 34q-35 40 -35 92l1 19q14 73 68.5 110t102.5 47q30 9 65 16.5t72 7.5q109 0 229 -63q73 96 142 208q86 139 131 228q59 118 166 285q91 135 182 221q-66 4 -144 14q-125 12 -243.5 37t-209.5 73q-15 -58 -53 -118q-3 -5 -85 -27l-15 17
q53 87 65 186v1q0 12 41 19q18 4 43 11q10 0 15 -5q48 -34 105 -59q116 -51 243 -71t255 -30l34 -3q113 96 241 136q3 1 11 3.5t24 6.5q50 14 94 14l24 -1q12 -2 28 -6t29.5 -12.5t13.5 -24.5q-1 -15 -13 -25.5t-25 -19.5l-1 -1q-32 -21 -65 -40q-53 -28 -129 -49
q-86 -26 -194 -29l-16 -16q-92 -96 -165 -210t-138 -236q-107 -191 -144 -253q-78 -126 -181 -261q27 -16 58 -35l53 -33q116 -68 224 -97q101 -25 204 -25q69 0 136 11q32 6 38 8q143 49 242 129q7 6 14 6h1l68 17l17 -23h-10q-42 -36 -95 -66q-62 -35 -124 -56.5
t-117 -35.5q-123 -33 -234 -33q-133 0 -252 36q-69 22 -129.5 53t-110.5 63l-35 20q-102 -117 -240 -148q-59 -17 -88.5 -22.5t-58.5 -5.5zM1271 1262q49 0 84 6l26 6q59 24 116 65q9 5 17 11.5t8 13.5q0 6 -11 10q-14 7 -29 9h-13q-22 -1 -48 -10q-28 -10 -47 -22
q-70 -39 -128 -89h25zM185 48q21 0 81 20q56 27 99.5 67.5t75.5 82.5q-62 39 -156 68q-51 14 -98 14q-32 0 -42 -6q-27 -14 -47 -33q-45 -48 -45 -106v-3q0 -18 8 -38.5t28 -37.5q22 -17 48.5 -22.5t47.5 -5.5z" />
    <glyph glyph-name="bracketleft" unicode="[" horiz-adv-x="948" 
d="M0 -113q50 132 79 217q128 368 409 1190q8 25 17 50q24 68 43 130h-23l-3 23q20 3 32 7q28 10 44 13q40 3 220 5q108 0 229 -3v-23l-13 -5l-37 -10q-13 -5 -25 -5q-184 2 -326 2q-43 -140 -203 -599q-217 -631 -275 -798l-53 -149h15l160 2q109 0 231 -3l-2 -23l-6 -2
q-3 -2 -9 -2l-19 -5q-20 -11 -43 -11q-96 2 -321 2q-53 0 -121 -3z" />
    <glyph glyph-name="backslash" unicode="\" horiz-adv-x="741" 
d="M562 4q-31 6 -53 12l-14 4q-23 2 -58 115l-14 41q-155 443 -360 1049l-63 187l56 -11q16 -3 20.5 -4.5t16.5 -4t15 -12.5q16 -50 90 -268q143 -422 316 -918l16 -47q21 -67 47 -127z" />
    <glyph glyph-name="bracketright" unicode="]" horiz-adv-x="848" 
d="M-61 -113q-104 0 -219 3v26q11 0 46 11q16 6 32 6l199 -2h123q199 591 479 1396l54 150h-16q-44 0 -85 -1t-92 -1q-101 0 -213 3v22l14 5q23 5 29 8q20 8 35 8q29 -2 199 -3q174 1 213 3l18 -10l7 -3q-31 -76 -55 -151q-9 -27 -19 -52l-130 -377q-237 -690 -278 -814
l-4 -10q-20 -53 -58 -171q3 0 24 4l4 -25q-26 -5 -47 -13t-69 -9l-20 -1q-43 0 -82 -1t-89 -1z" />
    <glyph glyph-name="asciicircum" unicode="^" horiz-adv-x="1014" 
d="M913 1093l-8 2q-113 50 -214.5 116.5t-165.5 156.5q-160 -121 -429 -207q-11 -5 -43 -11q-26 -11 -62 -11l-24 1q3 25 12 25q84 16 91 20l67 24q219 88 365 213q10 6 41 14t40 8l11 -1l4 -7q65 -108 169.5 -179t226.5 -124l-4 -18l-13 -5l-25 -7z" />
    <glyph glyph-name="underscore" unicode="_" 
d="M3 -94l-3 24q24 4 41 11q16 6 35 9q89 5 761 6q82 0 174 -2l-1 -22l-13 -5q-22 -5 -28 -8q-20 -8 -37 -8q-65 2 -154 2q-690 0 -775 -7z" />
    <glyph glyph-name="grave" unicode="`" horiz-adv-x="228" 
d="M206 1222q-26 5 -42 9q-22 7 -26 7l-13 5q-129 83 -129 199q0 10 3 13.5t7.5 6t11.5 7.5q16 0 47 -11l54 -25q32 -35 32 -76v-9l-18 -11l-15 3l7 -13q28 -43 93 -86z" />
    <glyph glyph-name="a" unicode="a" horiz-adv-x="998" 
d="M741 5q-22 0 -43 3q-58 14 -75.5 62t-21.5 92l-2 9q-72 -100 -207 -141q-12 -5 -50 -13q-50 -10 -71 -10q-85 0 -158 72q-113 117 -113 289q0 79 27 160q97 274 414 330q32 6 61 6q35 0 67 -8q122 -31 157 -127l4 -14q-17 -3 -37 -9q-43 -12 -52 -12q-17 0 -17 10
q-32 88 -144 112q-24 4 -49 4q-17 0 -36 -3h-3q-37 -14 -87 -45q-153 -104 -192 -292q-9 -43 -9 -87q0 -61 22.5 -147.5t111.5 -158.5q50 -37 102 -37l16 1q100 44 171 152q61 99 99 206q51 121 75 244q1 7 11 11t31 8l65 17l-5 -31q-14 -81 -50 -175l-15 -39
q-6 -14 -10 -28q-28 -86 -28 -170q0 -42 4 -57q3 -40 15 -81.5t46 -54.5q19 -5 43 -5q95 0 188 95l15 6l20 5q0 1 16.5 4t22.5 7h12l12 -17q-84 -86 -204 -116q-86 -27 -149 -27z" />
    <glyph glyph-name="b" unicode="b" horiz-adv-x="947" 
d="M254 5q-124 0 -189 105q-56 93 -63 244l-1 39q0 184 85 392l-33 -1l-53 2l1 23q38 10 45 14q18 7 34 7l25 -1q70 157 137 270q131 221 261 281q93 39 167 39q25 0 54.5 -7t55.5 -26q24 -18 33 -39.5t9 -44.5q0 -36 -13 -71q-27 -87 -89 -164q-170 -205 -525 -269l-7 -1
l-20 -54q-63 -177 -63 -333q0 -65 11 -127q25 -136 90 -193q47 -41 116 -41l32 2q173 68 274 272q24 50 43.5 112.5t19.5 126.5q0 160 -127 209q-40 15 -86 15q-40 -2 -61 -6q-29 -9 -45 -16q-14 -5 -29 -8q-30 -6 -51 -15l-10 25q68 27 143 45q67 18 124 18q80 0 139 -36
q105 -67 105 -210q0 -57 -17 -123q-28 -111 -94 -209q-106 -158 -261 -211q-94 -35 -167 -35zM204 834l34 4q22 3 44 8q85 24 167 72q208 122 260 310q9 29 9 57q0 10 -1 19q-14 54 -82 68q-16 3 -33 3l-18 -1q-20 -10 -42 -25q-48 -36 -87 -81.5t-67 -87.5
q-94 -138 -184 -346z" />
    <glyph glyph-name="c" unicode="c" horiz-adv-x="851" 
d="M314 5q-26 0 -51 4q-101 22 -172 101.5t-87 184.5q-4 29 -4 61q0 70 19 144q52 193 210 291q76 47 202 72q33 6 65 6q84 0 153 -41q83 -57 95 -167q0 -16 -104 -34l1 8q0 3 -5 22.5t-16 46t-28 51t-39 39.5q-54 31 -132 31q-18 0 -35 -2q-140 -55 -220 -198
q-62 -116 -62 -256q0 -48 10 -88q22 -87 84.5 -149.5t142.5 -78.5q20 -5 42 -5q51 0 77 16l15 8q96 46 171 100q20 17 93 28l11 -21l-30 -19q-95 -66 -201 -110q-123 -45 -205 -45z" />
    <glyph glyph-name="d" unicode="d" horiz-adv-x="1096" 
d="M254 5h-12q-57 4 -103 32q-49 33 -77 78.5t-40 86.5q-22 67 -22 138q0 121 63 240q105 183 298 243l5 1q37 11 76.5 20.5t80.5 9.5q36 0 72 -10q99 -30 142 -110q7 21 71 193l33 89q67 174 127 353q5 10 19 12q25 7 72 18q5 -6 12 -15q-49 -148 -104 -290l-57 -156
q-47 -123 -88.5 -244t-75.5 -257q-19 -78 -30 -145q-13 -55 -13 -112q0 -25 5 -50q6 -29 33 -56q13 -10 26.5 -14t25.5 -4l15 1q56 21 110 56q11 6 30 10l53 12l5 -24q-83 -54 -211 -87q-35 -12 -70 -12q-78 0 -111 71q-14 30 -15 60q-89 -85 -234 -120l-22 -5
q-20 -5 -42.5 -9t-46.5 -4zM326 48l29 3l35 14q36 17 79.5 48t81.5 76q53 64 74 167q2 5 4 7q36 155 94 328l-22 -6q-27 -8 -37 -9q-13 0 -16 9q-67 126 -195 126q-19 0 -38 -2q-24 -9 -47 -21q-123 -64 -193.5 -182.5t-70.5 -248.5q0 -83 32 -162q13 -33 39 -69t68 -59
q37 -19 83 -19z" />
    <glyph glyph-name="e" unicode="e" horiz-adv-x="849" 
d="M280 5q-42 0 -86 12t-84 43q-61 53 -85.5 128t-24.5 151q0 64 13 121q30 134 115 237q45 55 99 88q73 39 150 56l25 5q29 7 56.5 11t56.5 4q98 0 161 -50q33 -27 49.5 -63.5t16.5 -78.5q0 -166 -221 -255q-90 -33 -168 -52q-94 -25 -174 -26v25l25 4q44 14 54 14
q36 1 70 7l5 1q40 5 104 31l5 2q61 25 100 55q96 77 96 176v9q-11 111 -117 147q-35 11 -77 11q-79 0 -125 -34q-89 -56 -145.5 -156.5t-67.5 -221.5l-1 -42q0 -38 8 -91t33.5 -104t74.5 -86q30 -19 62.5 -27t64.5 -8q118 0 259 120q9 6 38.5 13t44.5 11l14 -20
q-93 -80 -195 -118q-134 -49 -229 -49z" />
    <glyph glyph-name="f" unicode="f" horiz-adv-x="973" 
d="M-100 -575l-20 15q17 48 32 96q164 504 295 1035q-24 -7 -85 -9q-30 0 -64 10t-51 45q-6 12 -6 24q0 11 5 21q14 30 55 42l15 4q24 7 46 12.5t47 5.5q35 0 70 -13l6 26h-19q-52 0 -105 14l5 19l36 11l37 11l55 -9q66 374 275 545q67 54 137 80q106 36 169 38
q74 0 120 -45q30 -32 39 -69t9 -62q-5 -160 -157 -293q-76 -62 -162 -104.5t-167 -71.5q-86 -32 -170 -49q-8 -42 -19 -84l25 -14q29 -20 61 -36q65 -33 136 -33q36 0 69 7q140 51 254 122q14 7 82 22l12 -22q-65 -37 -135 -72t-146 -59q-54 -18 -105 -30t-102 -12
q-96 0 -168 45q-1 -3 -4 -15l-4 -15q-126 -523 -320 -1105q-4 -9 -21 -12q-45 -10 -62 -16zM354 786q10 1 31 5q75 21 209 86q166 82 241 194q10 14 25 41.5t27 64.5t12 78q0 45 -22 90q-32 59 -109 59l-27 -2l-9 -3q-109 -50 -180 -136t-111.5 -180t-57.5 -165t-29 -132z
M193 605l22 1l8 35q-6 3 -17 8q-60 33 -94 33q-7 -6 -7 -24q0 -10 5 -19q19 -26 45 -31q16 -3 38 -3z" />
    <glyph glyph-name="g" unicode="g" horiz-adv-x="962" 
d="M73 -756q-39 0 -74 25q-31 28 -40 63t-9 57q0 175 213 384q151 144 360 248q32 78 52 124q-85 -74 -171 -100l-31 -9q-25 -8 -51 -14t-57 -6q-129 1 -195 130q-34 69 -34 165q4 129 43.5 236.5t97.5 171.5q75 80 199 114q38 11 76.5 19t77.5 8q48 0 96 -17
q52 -20 91 -55.5t72 -73.5l26 -29q-15 0 -29.5 -4t-20.5 -6q-35 -12 -46 -12q-10 0 -26 18q-37 41 -75 74.5t-85 49.5q-37 12 -77 12l-46 -3q-182 -70 -247 -317q-9 -32 -16.5 -75.5t-7.5 -91.5t11 -96.5t38 -90.5q60 -83 145 -83l17 1q5 2 10 3l1 1q56 25 140 96
q85 72 138 132l42 95q30 72 77 140q6 10 21 10l82 22q-8 -134 -120 -256q-22 -51 -97 -228q107 46 266 96l50 12q9 3 28 9l8 -25q-225 -71 -374 -144q-43 -109 -74 -196q-45 -133 -111 -283q-24 -56 -58.5 -114t-86.5 -103q-61 -54 -162 -75q-28 -9 -57 -9zM142 -713
q63 33 115 104q36 51 62 106.5t47 108.5q35 85 74 197q31 85 57 153q-154 -88 -273 -215q-170 -181 -170 -335q0 -93 62 -114q13 -5 26 -5z" />
    <glyph glyph-name="h" unicode="h" horiz-adv-x="899" 
d="M-74 3l-16 16q2 4 2 6q27 67 49 136q122 345 242 699q145 422 174 512l2 5l-131 -27l-5 25q66 18 251 56q-9 -28 -10 -31q-26 -81 -53 -162q-38 -105 -68 -197l-82 -238l-22 -66q107 65 225 102t164 37q44 -1 64.5 -22.5t27 -48.5t7.5 -49l1 -22q0 -44 -8.5 -85
t-19.5 -74q-18 -58 -39 -114l-10 -28q-76 -191 -76 -281q0 -30 10 -52.5t33 -31.5q15 -6 34 -6q22 0 42 8q40 20 77 42l24 13l6 5q19 16 48 24l77 21l8 -24q-22 -8 -37 -18l-6 -4q-92 -64 -201 -92q-18 -3 -33 -7q-29 -11 -71 -11l-15 1q-99 9 -99 109q0 20 2 40
q13 91 46 174l32 87q27 66 47.5 134t24.5 139l1 17q0 95 -42 110q-12 3 -23 3q-15 0 -24 -2t-11 -3l-13 -5q-142 -52 -299 -162q-30 -85 -59 -172q-80 -229 -109 -311q-33 -102 -53 -146q-4 -7 -44 -18z" />
    <glyph glyph-name="i" unicode="i" horiz-adv-x="551" 
d="M246 5q-59 0 -111 27q-65 35 -93 101q-13 32 -17.5 66t-4.5 66l1 42q5 68 26 135t48 131q57 140 117 246q-95 -26 -187 -26l-1 25q16 0 25 4q43 14 53 14q32 2 63.5 6t44 6t39.5 9l26 5q16 2 22 2q13 0 22 -7l-4 -25q-10 -16 -19 -34q-57 -108 -102 -221
q-25 -60 -44.5 -122.5t-24.5 -126.5l-1 -40q0 -160 88 -211q49 -29 102 -29q10 0 17 1h2q36 14 85 54q6 5 83 24l13 -20q-52 -45 -102 -64.5t-118 -32.5q-24 -5 -48 -5zM263 986l-4 25l7 1q7 6 10 29l7 31q7 29 17 55t29 44q49 37 107 47l27 6l10 -23q-35 -13 -55 -33
q-19 -25 -25 -58l-15 -55q-3 -32 -29 -47q-39 -14 -86 -22z" />
    <glyph glyph-name="j" unicode="j" horiz-adv-x="601" 
d="M-241 -735q-53 0 -87 43q-19 26 -25.5 58t-6.5 64q0 335 479 566q44 171 106 370q28 95 50 150q35 99 63 160v1q3 13 70 156q-96 -25 -189 -27l-2 23l48 14q15 7 30 7q70 3 104 9l6 1q51 18 88 18q13 0 18.5 -3.5t6.5 -8.5q-1 -9 -8 -20l-27 -58q-15 -30 -35 -79l-18 -43
l-13 -32v-1q-45 -115 -89 -252l-25 -83q-32 -106 -72 -251l16 7q81 33 198 63.5t218 36.5l1 -24q-11 -1 -45 -12l-31 -7q-76 -5 -146 -22l-16 -5l-7 -2q-100 -33 -200 -83l-34 -127q-24 -98 -53 -196q-20 -67 -50.5 -143t-81.5 -142q-21 -27 -54.5 -55.5t-76.5 -44.5
q-26 -9 -52 -15q-9 -2 -16 -4q-16 -7 -42 -7zM-184 -691q96 52 161 208q46 116 74 221l53 200q-37 -20 -98.5 -62t-116.5 -96q-146 -151 -146 -327q0 -38 10 -76q6 -30 35 -56q15 -12 28 -12zM443 976l-4 25l7 2q8 5 11 29l7 29q12 64 45 100q50 37 107 47l27 6l10 -23
q-35 -13 -55 -33q-18 -25 -25 -58l-13 -52q-3 -13 -8.5 -28t-23.5 -22l-15 -5q-29 -9 -70 -17z" />
    <glyph glyph-name="k" unicode="k" horiz-adv-x="1000" 
d="M20 3l-20 15q38 96 78 186l91 216q-33 7 -56 25t-23 39q0 6 3 12q4 13 29.5 26.5t92.5 15.5l2 6q6 12 12 30q139 354 265 710l14 43l11 35q3 8 3 16q0 5 -0.5 6t-2.5 1q-64 -7 -143 -22l-4 25l75 20l143 21q12 0 22 -5q15 -11 15 -25q0 -15 -6 -28q-13 -46 -33 -98
q-93 -262 -192 -517l-35 -92q-36 -97 -53 -136q56 -13 106 -50q63 27 121 81q122 112 178 300q5 10 27.5 15t45.5 8l37 8l-7 -18q-22 -82 -76.5 -177t-155.5 -170q-62 -47 -141 -71q42 -38 76 -90.5t63 -107.5l37 -65q77 -130 177 -130q23 1 33 2q45 17 81 41q12 6 27 9
q19 4 37 9l17 4l12 -21q-54 -35 -112 -53q-90 -31 -157 -34q-108 0 -187 102q-40 55 -68 115q-17 30 -34 61q-52 88 -105 131q-44 -11 -77 -12q-40 -97 -82 -198q-50 -113 -78 -186q-4 -9 -35.5 -15.5t-47.5 -12.5zM190 476l11 28l-16 3l-7 -2q-9 -3 -11 -7l-1 -8
q2 -8 22 -19zM307 457q-3 2 -21 17l-10 -26q14 0 31 9z" />
    <glyph glyph-name="l" unicode="l" horiz-adv-x="761" 
d="M290 5l-24 1q-170 15 -235 173q-17 43 -23.5 87.5t-6.5 87.5q0 61 7 108q-21 -6 -57 -6q-16 0 -40 3l3 22q20 7 37 10l26 8q2 0 3 1l11 1l22 -1l6 36q52 310 215 578q56 95 111 168q29 38 64.5 70.5t81.5 46.5l13 4q16 5 35.5 10t38.5 5q22 0 41 -9t31 -30q14 -28 14 -59
q0 -61 -36 -163q-85 -234 -272 -463q-132 -164 -243 -202q0 -4 -1 -8q-8 -34 -8 -114q0 -51 10 -104t37 -101q68 -110 203 -116h14q19 0 39 2q65 24 113 83q6 6 13.5 7t15.5 3l43 11l13 3l14 -18q-23 -28 -52 -50q-70 -47 -139 -61l-36 -10q-22 -6 -47.5 -10t-54.5 -4z
M122 548q41 28 114 115q231 269 307 537q5 18 11.5 45.5t6.5 55.5q0 23 -7 42t-24 27l-4 2q-73 -54 -152 -187l-4 -5q-198 -310 -248 -632z" />
    <glyph glyph-name="m" unicode="m" horiz-adv-x="1399" 
d="M575 -5l-10 2q-51 48 -51 141q4 86 38 174q18 50 37 98q24 47 57 160q20 69 20 133q0 32 -5.5 63t-23.5 49q-7 6 -17 8t-20 2q-36 0 -49 -7l-12 -4q-92 -33 -156 -72q-88 -242 -243 -627l-9 -23q-28 -77 -42 -80.5t-74 -16.5l-15 16q21 45 37 91q120 303 185 471
q73 196 99 254l-136 -27l-5 26q19 3 36 8.5t213 45.5q-10 -42 -21 -70l-4 -10q33 14 92 31q110 38 173 38q27 0 51 -11q30 -18 39.5 -52t9.5 -57q99 51 185 79q113 37 165 37q44 0 65 -22t27.5 -49.5t7.5 -49.5l1 -20q0 -45 -8.5 -86t-19.5 -75q-10 -32 -66 -185
q-34 -87 -53 -177q-7 -32 -7 -62t10.5 -53t33.5 -32q16 -5 37 -5q12 0 23 2l6 2q5 1 8 4q44 17 103 56q37 22 53 28l79 20l7 -24q-23 -8 -42 -21l-14 -8q-102 -63 -188 -84q-18 -3 -34 -8q-29 -11 -70 -11l-15 1q-100 10 -100 110q0 20 2 40q13 92 46 174l30 82
q27 67 49 137t26 142v16q0 97 -42 111q-13 4 -25 4l-20 -2l-13 -3l-13 -5q-137 -51 -235 -118q-6 -102 -74 -267l-2 -5q-23 -55 -42 -111q-24 -64 -32 -142v-12q0 -86 41 -124q-13 -19 -14 -20l-28 -9q-34 -9 -42 -9z" />
    <glyph glyph-name="n" unicode="n" horiz-adv-x="1029" 
d="M15 -6l-15 15v2q21 44 37 90q120 303 185 471q73 196 99 254l-136 -27l-5 26q15 2 33.5 8t215.5 46q-17 -67 -39 -119l-10 -27q103 63 217 99.5t166 36.5q44 0 65 -22t27.5 -49.5t7.5 -49.5l1 -20q0 -45 -8.5 -86t-19.5 -76q-9 -27 -66 -184q-35 -88 -53 -177
q-6 -32 -6 -62t10 -53t34 -32q14 -5 33 -5q13 0 27 2q19 6 54 26q40 21 77 45q18 13 60 24t57 16l7 -25q-24 -8 -42 -22l-4 -2q-5 -4 -10 -6q-103 -63 -189 -83l-29 -7q-31 -12 -74 -12l-15 1q-100 10 -100 109q0 21 3 41q12 92 45 174l30 81q28 68 50 138t25 142v12
q0 101 -42 115q-13 4 -25 4l-20 -2l-13 -3q-141 -47 -310 -166q-55 -148 -138 -359q-97 -247 -110 -274q-6 -12 -87 -28z" />
    <glyph glyph-name="o" unicode="o" horiz-adv-x="941" 
d="M305 5q-99 0 -178 56q-107 82 -125 247q-2 22 -2 45q0 100 37 199q49 122 141 193q40 21 63 35l87 43l-86 -21l-16 -4l-4 13q42 13 81 23q47 14 97 25.5t102 11.5q61 0 121 -24q123 -58 166 -206q13 -51 13 -105q0 -96 -39.5 -194.5t-114.5 -181.5q-50 -55 -106 -89
q-61 -33 -141 -52q-47 -14 -96 -14zM371 48q33 0 50 8q96 46 172 154q106 156 106 307q0 66 -21 127q-44 118 -143 164q-37 15 -80 18q-38 -11 -78 -25q-207 -78 -259 -313q-13 -57 -13 -116q0 -91 35 -171.5t112 -122.5q56 -29 119 -30z" />
    <glyph glyph-name="p" unicode="p" horiz-adv-x="951" 
d="M-152 -554l-19 13q105 371 329 1028l95 269l19 44q-37 -12 -112 -27l-5 24l72 20l16 5l50 21l26 7q12 3 74 14l-21 -50l-19 -53q52 34 183 75q72 21 111 21q131 0 177 -164q17 -62 17 -131q0 -125 -57 -262q-76 -174 -185 -238q-40 -21 -84 -31l-38 -10q-35 -10 -75 -10
q-31 0 -63 9q-81 25 -123 102l8 15q71 21 78 21q14 0 16 -9q36 -68 105 -88q24 -7 49 -7l18 1q73 32 133 125q52 80 82 172q32 100 32 193q0 77 -22 144q-44 124 -135 124q-14 0 -29 -2l-12 -5q-54 -19 -110 -57q-75 -48 -118 -105q-236 -676 -379 -1169q-2 -11 -49 -21z
" />
    <glyph glyph-name="q" unicode="q" horiz-adv-x="1000" 
d="M345 -676l-12 1q-39 8 -39 37q82 288 242 755l-20 -11q-1 -1 -10.5 -7t-21.5 -13t-13 -7q-41 -23 -81 -35q-22 -6 -42 -12t-41.5 -11t-54.5 -6q-58 0 -99.5 26.5t-68.5 62.5t-42 70.5t-20 53.5q-22 73 -22 148q0 117 52 229q76 156 219 218q70 30 126 42q26 7 56 12t62 5
q57 0 112 -26q46 -26 77.5 -68.5t44.5 -67.5l43 116q9 29 22 37t102 28l-27 -68q-55 -139 -255 -714l7 -3q34 -6 76 -6q87 2 136 23q28 11 46.5 13.5t42.5 12.5l11 -24q-56 -23 -131 -43q-90 -25 -171 -25l-33 1q84 -104 84 -268q0 -30 -3 -62q-12 -130 -57 -222
q-17 -35 -49 -75.5t-85 -69.5q-47 -23 -98 -34l-21 -6q-12 -7 -44 -7zM328 59q5 0 9 1l21 9l8 3q46 23 99 60q70 45 117 135l11 19l134 377q-33 -12 -46 -12q-14 0 -18 9q-24 51 -54.5 93.5t-74.5 66.5q-39 19 -93 19h-8q-33 -1 -68 -14q-121 -55 -191.5 -173t-70.5 -256
q0 -86 30 -170q6 -17 20.5 -44.5t37.5 -56t55.5 -47.5t73.5 -19h8zM410 -632q36 16 69 50q119 132 119 349q0 115 -24 172l-67 -202q-39 -113 -110 -354v-1q0 -4 4 -9t9 -5z" />
    <glyph glyph-name="r" unicode="r" horiz-adv-x="647" 
d="M286 5h-7q-80 0 -149 43.5t-104 117.5q-26 56 -26 118q0 102 66 198q89 120 276 179q53 16 68 27q-30 20 -47 36q-34 36 -67 81l-8 -9q-16 -16 -29 -31q-44 -51 -59 -59l-43 13l-23 10q22 21 53 58q16 20 30 35l18 19q3 3 4 10v10q90 29 103 29q22 -5 28 -17l4 -7
q50 -83 121 -139q25 -12 25 -20q0 -11 -28 -24l-16 -8l-50 -18q-97 -31 -160 -74q-77 -53 -120 -126.5t-43 -153.5v-5q4 -87 53.5 -152t129.5 -89q30 -9 57 -9l37 3q113 41 197 99q14 8 39 13l45 9q3 -9 11 -21q-136 -92 -292 -129q-44 -15 -94 -17z" />
    <glyph glyph-name="s" unicode="s" horiz-adv-x="794" 
d="M215 5q-59 0 -118 27q-108 61 -117 167q0 15 43 21l61 15q0 -69 36 -111t83 -61q35 -15 80 -15q22 0 43 3q25 3 62 23q130 75 130 207q0 121 -89 259q-47 -39 -130 -90q-13 -8 -31 -11q-25 -6 -51 -11l-12 20l26 17q84 51 162 127l-20 26q-25 31 -44 63t-19 71q0 13 3 28
q10 49 57 66q23 8 44 14t46 6q18 0 36 -5q56 -21 80 -72q8 -19 8 -39q0 -32 -19 -67q-21 -33 -63 -75q119 -168 119 -307q-1 -110 -83 -185q-44 -38 -95.5 -59t-107.5 -34q-26 -7 -57 -12.5t-63 -5.5zM458 665q20 25 22 67q0 38 -36 70q-14 12 -21 14q-9 -19 -10 -45
q0 -51 45 -106z" />
    <glyph glyph-name="t" unicode="t" horiz-adv-x="725" 
d="M266 5q-90 0 -150 44q-71 54 -71 164q0 53 11 102q35 187 94 378l-27 -1l-47 2q-76 6 -76 37l2 8q20 31 67.5 41.5t73.5 10.5l18 1l20 -1q75 234 182 476q12 30 30.5 59.5t53.5 46.5q16 7 32 11l26 6.5t29 7.5l16 2q29 0 53 -17q29 -25 38.5 -60t9.5 -61v-8
q0 -69 -28 -131t-58 -106q-81 -131 -172 -191q-51 -35 -119 -54l-11 -34q24 1 135 9q140 11 215 11q38 0 83 -6l-4 -22q-21 -7 -60 -17l-16 -4q-40 6 -77 6q-39 0 -79 -3l-209 -14q-70 -218 -96 -394q-7 -36 -7 -76q0 -47 17 -91q27 -53 89 -76q34 -12 79 -12q31 0 82 8
q50 17 112 49q15 7 39 11l42 11l12 -21q-42 -23 -76 -37q-168 -65 -278 -65zM289 818q65 36 138 136q120 159 120 283l-1 23q-3 29 -15 56.5t-27 33.5q-16 -12 -49 -93l-8 -18q-89 -204 -158 -421zM163 736l-1 2q-24 17 -47 18h-9q-9 0 -18 -3q0 -2 1 -3q17 -13 31.5 -13
h26.5z" />
    <glyph glyph-name="u" unicode="u" horiz-adv-x="960" 
d="M757 5q-64 0 -121 35q-96 60 -111 179q-84 -155 -212 -190l-51 -14q-35 -8 -56 -9q-53 0 -99 27t-73 72q-20 37 -27 77.5t-7 79.5q0 27 2 52q18 171 163 453q22 47 27 51l-44 -11q-53 -10 -143 -15l-1 24q16 2 25 6q45 14 53 14q61 2 107 10l14 3l5 2q35 11 70 13
q14 0 22 -5l2 -2q3 -2 3 -5l1 -2q0 -4 -4 -7q-6 -14 -13 -25l-3 -4q-104 -193 -151 -349q-27 -84 -30 -145l-1 -38q0 -37 6.5 -77t26.5 -74q53 -80 134 -80h4q19 10 39 26q132 107 221 391q14 56 32 112l11 37q23 95 69 193q5 9 23 12.5t58 14.5l22 -13l-2 -3
q-41 -92 -87 -261l-20 -69q-21 -82 -21 -148v-24q2 -62 21.5 -126.5t76.5 -108.5q49 -35 113 -35q52 23 113 63q31 21 46 30q13 5 39 10q28 7 41 14l12 -24l-32 -21l-31 -20q-89 -58 -173 -79l-20 -6q-35 -11 -69 -11z" />
    <glyph glyph-name="v" unicode="v" horiz-adv-x="990" 
d="M193 2l2 18l2 180l-1 90q-6 246 -38 421q-6 35 -21 70.5t-45 58.5q-13 8 -21 9q-37 -20 -72 -61q-6 -7 -14 -7l-29 -7q-16 -6 -42 -11l-14 18q64 77 159 99l19 5q26 9 54 9l17 -1q53 -15 77 -60t32 -82q14 -70 25 -182q11 -83 14 -171.5t3 -191.5v-11l28 47
q171 296 294 442q31 37 78 79t108 70q119 47 260 55l2 -26q-14 0 -19 -2l-7 -2q-6 -3 -13 -4q-31 -9 -38 -9l-64 -7q-47 -5 -118 -60q-82 -68 -146 -155t-120 -179l-1 -3q-45 -70 -87 -141l-79 -134l-40 -69q-22 -40 -43 -65q-5 -5 -26.5 -10.5t-75.5 -19.5z" />
    <glyph glyph-name="w" unicode="w" horiz-adv-x="1326" 
d="M194 2l2 89q1 46 1 114q-3 319 -39 507q-6 35 -21 70.5t-45 58.5q-13 8 -21 9q-37 -20 -72 -61q-8 -8 -20 -9l-64 -16l-15 18q48 57 106 82q27 11 57 17q40 14 69 14l17 -1q53 -15 77.5 -60t31.5 -82q18 -88 25 -179l2 -18q15 -182 15 -347l-1 -94q30 26 70 67
q98 98 143 165q-38 129 -38 245q0 95 26 173l11 27q10 34 39 63q22 16 63 24h1q25 9 52 12q37 0 65 -31q40 -45 40 -126l-1 -35q-13 -102 -58 -187.5t-95 -150.5q10 -33 22 -66q25 -69 37 -117l39 67q166 290 295 444q31 37 78 79t108 70q119 47 260 55l3 -26q-14 0 -20 -2
q-41 -14 -67 -16q-39 -4 -78 -10q-45 -18 -95 -56q-82 -68 -146 -155t-120 -179l-1 -3q-54 -87 -156 -259q-25 -41 -49 -84q-8 -16 -28 -42.5t-48 -35.5l-69 -19q7 20 7 29q0 55 -13.5 108.5t-31.5 103.5l-5 16q-63 -73 -161 -159l-15 -15q-18 -16 -49.5 -39t-56.5 -31z
M591 464q74 120 77 251q0 79 -38 116l-1 4q-9 -13 -19 -40q-33 -83 -33 -186q0 -79 14 -145z" />
    <glyph glyph-name="x" unicode="x" horiz-adv-x="1012" 
d="M15 -6l-15 17q130 210 381 467l-10 50q-12 57 -27 113q-17 74 -51 137q-26 41 -49 46q-38 -28 -57 -80q-4 -11 -39.5 -18.5t-69.5 -17.5q37 122 140 146l38 10q19 6 38 7q40 0 75 -33q27 -29 42 -65.5t24 -67.5q23 -74 35 -138q138 135 311 291q7 6 13.5 6.5t17.5 4.5
l53 13l14 -20l-39 -35q-194 -176 -354 -338l18 -80q11 -58 26 -124q13 -60 39.5 -116t76.5 -88q46 -26 97 -26l20 1q40 17 74 55q8 6 17 7l2 1q2 0 10 2l15 4q22 5 42 8l14 -17q-59 -62 -140 -81l-40 -11q-40 -12 -86 -12q-174 0 -236 217q-13 49 -31 143l-6 25
q-190 -204 -296 -377q-8 -7 -87 -26z" />
    <glyph glyph-name="y" unicode="y" horiz-adv-x="971" 
d="M120 -732q-70 0 -104 73q-16 39 -16 93q0 164 114 303q54 63 115 109t114 78q78 47 152 84l52 159q-81 -46 -210 -84q-24 -6 -47 -11t-49 -5q-86 0 -143 75q-63 92 -63 217q0 20 2 42q8 75 30 142t47 120q11 25 23 51l32 64l18 35l-69 -22l-50 -13q-9 -1 -29 -9l-6 27
l218 63q4 3 15 3l26 8l9 -22q-6 -5 -16 -25q-17 -40 -36 -80q-110 -214 -110 -371q0 -105 50 -186q9 -16 26.5 -34.5t42.5 -30.5q22 -10 48 -11l21 1q118 48 228 113l15 7l34 95q91 250 143 497q0 11 107 32l-24 -106q-48 -205 -146 -474q-21 -55 -74 -216q17 7 50 19
q204 71 367 82l1 -23q-15 -3 -20 -5l-6 -2q-43 -13 -51 -14q-73 -5 -133 -19q-20 -6 -39 -12q-80 -23 -185 -74l-95 -311q-19 -65 -42.5 -129.5t-57.5 -123.5q-40 -66 -91 -108q-60 -47 -137 -63l-13 -3q-15 -5 -38 -5zM177 -688q23 13 45 33q51 48 82.5 105.5t48.5 104.5
q27 75 71 219l53 176q-83 -45 -158 -105q-215 -168 -215 -385q0 -26 4 -52q1 -20 13.5 -49.5t43.5 -43.5q5 -3 12 -3z" />
    <glyph glyph-name="z" unicode="z" horiz-adv-x="1037" 
d="M121 5q-49 0 -78 32t-38 73q-5 23 -5 45q0 25 7 48q12 36 35 62t46 42q57 38 126 56l8 2q16 3 31 7t33 7.5t43 3.5q96 0 175 -80q34 36 78 99q41 59 81 121.5t85 125t89 106.5q-21 -4 -43 -4q-50 0 -99 23l-41 21q-52 31 -96 31h-7q-45 -22 -69 -71q-5 -10 -34 -14
l-77 -22q40 109 156 131l14 5q43 15 85 15q47 0 99 -27l29 -16q49 -29 104 -33l14 1q8 4 21.5 12t29.5 9l33 9q29 7 73 21l-38 -33q-24 -19 -53 -48q-103 -113 -181 -242q-115 -183 -208 -269q22 -27 44 -55q47 -67 102 -111q50 -39 109 -39l31 2h3q61 24 146 73
q22 15 46 19q36 8 50 15l13 -24q-22 -12 -32 -18q-109 -66 -223 -94l-8 -2q-57 -14 -93 -14q-55 0 -101 23q-63 38 -108 97l-53 67l-92 -69q-39 -30 -86 -61q-79 -44 -152 -56q-11 -2 -24 -2zM178 48q39 21 109 73q88 63 151 116q-91 102 -182 102l-21 -1q-15 -6 -27 -13
q-104 -60 -104 -157q0 -69 49 -109q18 -11 25 -11z" />
    <glyph glyph-name="braceleft" unicode="{" horiz-adv-x="722" 
d="M223 -25q-115 0 -184 77q-38 47 -39 108q0 28 5.5 55t12.5 54q25 112 59 204l7 22q11 32 19 64.5t8 64.5q0 84 -67 130l-28 22q0 11 62 29l52 15q57 21 80 78q42 88 87 202q33 102 87 189q75 117 202 149q30 9 39 9q25 10 64 10q23 0 53 -6l-2 -22l-60 -16q-10 -4 -17 -4
q-33 5 -48 5l-4 -1q-37 -15 -69 -45q-41 -37 -68 -84t-44 -90l-35 -87l-40 -103l-45 -98q-18 -43 -63 -75q-38 -20 -80 -29l-6 -2q-10 -3 -29 -8q82 -55 82 -150q-2 -75 -38 -162l-15 -47q-33 -97 -54 -211q-4 -23 -4 -43q0 -70 52 -115q56 -46 137 -46l37 2l3 -24
q-20 -2 -32 -7q-28 -10 -44 -11.5t-33 -2.5z" />
    <glyph glyph-name="bar" unicode="|" horiz-adv-x="328" 
d="M19 4l-19 15q10 62 13 128l4 50q41 508 73 960q14 189 17 241q1 10 17 12l30 8l52 12l-2 -19q-3 -59 -11 -171q-45 -613 -82 -1061l-3 -42q-5 -114 -28 -116l-13 -4q-20 -7 -48 -13z" />
    <glyph glyph-name="braceright" unicode="}" horiz-adv-x="701" 
d="M-69 -25q-22 0 -51 7l3 21l8 2q4 2 53 15q8 3 15 3q30 -5 44 -5h10q46 22 84.5 62.5t65.5 94t49 111.5q27 73 52 146q63 190 109 243q39 33 90 45q25 6 51 13q-82 49 -82 151q0 33 8.5 67.5t20.5 67.5l18 53q16 43 27 89q5 23 9.5 45t4.5 45q0 60 -39 104q-57 58 -150 58
l-37 -1l-3 23q22 3 39 9.5t35 9.5t33 3q66 0 118 -25.5t81 -71.5q25 -41 25 -94q0 -50 -26 -138q-8 -26 -19 -54q-16 -43 -29 -88t-13 -87q0 -37 15 -69.5t51 -57.5l7 -4q22 -9 22 -18q0 -13 -27.5 -21t-48.5 -12l-35 -10l-9 -4q-54 -19 -83 -94q-15 -36 -84 -233
q-31 -93 -79 -189q-59 -115 -150 -164q-48 -24 -100 -35q-51 -13 -83 -13z" />
    <glyph glyph-name="asciitilde" unicode="~" horiz-adv-x="1244" 
d="M829 593q-32 0 -65.5 5.5t-65.5 20.5q-45 21 -83 52t-71 65l-32 29q-41 41 -92 72t-111 33q-15 0 -33 -3h1q-72 -27 -183 -108q-13 -7 -28 -9l-54 -13l-12 20q89 62 148 94q75 38 177 57q25 5 50 5q101 0 201 -87q31 -27 61 -56q52 -53 114 -93t147 -40q32 0 67 5
q12 1 22 5q96 38 151 114q6 5 41 13q6 3 21 6v2l23 3l15 -17q-51 -67 -124 -105q-77 -37 -161 -54q-63 -16 -124 -16z" />
    <glyph glyph-name="guillemotleft" unicode="&#xab;" horiz-adv-x="951" 
d="M281 279q-21 0 -75 149q-21 57 -47.5 117.5t-63.5 116.5q-19 29 -39 53l-10 11q-8 10 -14 16t-9 6l-5 -1q-17 0 -18 13q0 4 10 11q69 23 133 56q220 116 352 327q10 10 40 16.5t40 8.5t35 16l-15 -32q-146 -232 -393 -352q-19 -10 -80 -34q17 -14 30 -30q63 -76 110 -179
q24 -57 45 -114q26 -72 58 -140l6 -11l-47 -12q-34 -12 -43 -12zM576 286q-20 0 -75 149q-21 57 -47.5 117.5t-63.5 115.5q-19 29 -39 54l-5 6q-7 10 -15.5 18.5t-13.5 8.5l-4 -1q-17 0 -18 13q0 5 10 11q69 23 132 56q220 117 353 327q6 8 22.5 11.5t39.5 9.5l51 13
q-75 -134 -198 -240q-127 -110 -273 -165l-15 -6q15 -11 26 -26l4 -4q85 -103 155 -293q26 -71 58 -139l6 -11l-47 -13q-34 -12 -43 -12z" />
    <glyph glyph-name="acute" unicode="&#xb4;" horiz-adv-x="189" 
d="M-53 1153l-12 20q65 42 93 85l8 14l-16 -4l-18 12v9q0 41 32 75l54 26q31 10 47 10q7 -4 11.5 -6.5t7.5 -6.5t3 -13q0 -116 -129 -200l-13 -5q-4 0 -25 -6q-17 -5 -43 -10z" />
    <glyph glyph-name="guillemotright" unicode="&#xbb;" horiz-adv-x="947" 
d="M14 279l-14 17q99 131 201 243q44 50 95.5 94t113.5 71q13 7 33 13q-46 46 -81 113q-78 150 -98 346v1q0 16 50 21l52 13v-15q9 -88 35 -180q48 -171 129 -258l7 -6l12 -10t6 -13q-2 -8 -17 -12q-54 -20 -72 -30q-55 -30 -102.5 -75.5t-87.5 -91.5q-102 -116 -177 -217
q-7 -6 -44 -15zM318 278l-15 18q99 130 201 242q44 50 95.5 94.5t113.5 71.5l33 13h-1q-45 44 -80 113q-78 149 -98 345v1q0 16 50 22q26 5 51 12q30 -243 110 -376q32 -57 62 -82q18 -18 18 -23q-2 -11 -18 -13l-15 -5q-26 -10 -56 -25q-55 -29 -102 -74t-88 -93
q-102 -117 -177 -216q-5 -5 -53 -18z" />
    <glyph glyph-name="gravecomb" unicode="&#x300;" horiz-adv-x="16" 
d="M206 1202q-26 5 -42 10q-22 6 -26 6l-13 5q-129 84 -129 200q0 9 3 13t7.5 6.5t11.5 6.5q16 0 47 -10l54 -26q32 -34 32 -75v-9l-18 -12l-15 4l7 -14q28 -43 93 -85z" />
    <glyph glyph-name="acutecomb" unicode="&#x301;" horiz-adv-x="16" 
d="M-63 1182l-12 20q65 42 93 85l8 14l-16 -4l-18 12v9q0 41 32 75l54 26q31 11 47 11q7 -5 11.5 -7.5t7.5 -6.5t3 -13q0 -116 -129 -199l-13 -6q-4 0 -25 -6q-17 -5 -43 -10z" />
    <glyph glyph-name="u0302" unicode="&#x302;" horiz-adv-x="12" 
d="M401 1280l-7 2q-52 23 -98.5 53t-72.5 67q-67 -51 -189 -90q-5 -3 -20 -6q-12 -5 -31 -5l-16 1l3 15q44 8 46 9l31 12q98 39 163 95q6 3 21 7t21 4l8 -1l3 -4q29 -49 75.5 -80.5t104.5 -56.5l-3 -11l-8 -3l-12 -3z" />
    <glyph glyph-name="u0401" unicode="&#x401;" horiz-adv-x="1129" 
d="M437 5q-73 0 -152 21.5t-149 80.5q-66 58 -101 141t-35 175q0 60 16 120q68 226 287 332q61 26 120 40q57 17 122 24q-56 31 -94 91q-33 55 -33 116q0 45 14 78l3 7q-49 27 -97 67l12 18q57 20 69 20q11 0 16 -6q22 -18 40 -30q54 73 167 111q98 35 171 35
q71 0 121.5 -32.5t50.5 -86.5q0 -36 -24.5 -73t-82.5 -57q-67 -21 -114 -30q-29 -5 -65 -5q-78 0 -165 27l-10 4q-3 -13 -3 -34q5 -86 70 -149q76 -72 235 -88q15 -2 106 -9l-109 -32q-13 -6 -26 -6q-22 0 -75 7l-50 6q-63 10 -140 10q-74 0 -114 -14q-56 -21 -110 -60
q-173 -125 -202 -332q-3 -26 -3 -51q0 -97 40.5 -182.5t112.5 -136.5q60 -41 125 -57.5t127 -16.5q96 0 172 26l40 15q121 49 214 113q5 5 9.5 5.5t55.5 14.5l18 4l4 -9q5 -6 9 -11q-190 -129 -437 -183q-31 -7 -71 -12.5t-85 -5.5zM764 1206q27 0 50 3q26 12 41 30
q28 34 28 70q0 35 -24.5 56t-53.5 29q-30 8 -63 8q-31 0 -41 -4q-33 -13 -71.5 -38.5t-67.5 -65.5q-10 -16 -18 -34q110 -54 220 -54zM809 1563l-11 22q32 18 32 46q-1 35 -38 50l5 14q11 11 60 22q10 4 18 4l5 -1q48 -19 54 -66v-2q0 -41 -46 -68l-9 -3q-10 -3 -51 -14z
M611 1563l-11 22q33 19 33 48q0 33 -39 48l6 17q7 7 59 19q11 4 18 4l5 -1q52 -21 54 -70q0 -41 -45 -66z" />
    <glyph glyph-name="u0410" unicode="&#x410;" horiz-adv-x="1587" 
d="M1009 5q-15 0 -18 9l-35 69q-68 137 -185 297q-25 32 -38 45l-14 -21q-119 -179 -265 -297q-50 -38 -92 -56q-108 -42 -186 -42q-74 0 -138 37q-89 55 -124 155q-14 41 -14 83q0 58 26 114q42 92 133 163q74 57 176 83l37 10q70 18 139 18q181 0 318 -116l126 188
q126 189 202 291q63 86 136 166.5t163 142.5q77 54 177 81l32 9q69 20 127 20q31 0 71 -6l-1 -21l-35 -10q-33 -11 -45 -11q-29 4 -55 4q-52 0 -61 -5q-2 -9 -56 -166q-46 -142 -90 -268l-292 -846q-33 -102 -58 -104q-5 0 -10 -2l-21 -7q-20 -7 -30 -7zM1037 147
q272 782 411 1198q-68 -43 -146 -127q-82 -88 -153 -184.5t-134 -191.5q-112 -169 -227 -338q124 -121 249 -357zM252 53q13 0 22 1l5 2q44 16 96 63q78 63 138 135q53 65 101 135l65 94q-77 75 -160 110t-178 37q-17 0 -55 -4q-44 -4 -103 -42q-44 -28 -85 -70t-68.5 -96
t-27.5 -114q0 -17 3 -34q16 -96 84.5 -156.5t154.5 -60.5h8z" />
    <glyph glyph-name="u0411" unicode="&#x411;" horiz-adv-x="1516" 
d="M126 -5h-10q-58 0 -88 38q-25 44 -25 91v6q-3 31 -3 61q0 344 322 712q143 161 295 295q91 79 172 125l1 4l26 82q6 12 85 28l19 -13l-15 -43q30 12 81 26q57 17 112 28.5t112 11.5h12q87 -5 173 -33q90 -30 165 -30q34 0 67 6q60 25 89 66q6 8 30 13q5 1 13 3l42 11
l15 -18q-45 -63 -140 -92l-35 -9q-74 -23 -147 -23q-61 0 -123 16t-64 18q-87 29 -160 29q-60 0 -113 -12q-85 -28 -145 -64q-1 -1 -1 -4q-55 -165 -113 -326q114 6 148 6q47 0 94 -6q130 -20 224 -111q65 -67 95.5 -150t30.5 -170q0 -193 -126 -351q-76 -89 -186 -137
q-63 -25 -132 -42q-91 -26 -159 -26q-92 0 -184 54q-101 59 -146 122q-72 -127 -190 -165l-15 -5q-51 -17 -103 -22zM833 54q56 0 94 13q27 9 50 20q141 63 218 197q69 126 69 262q0 31 -4 62q-26 181 -160 283q-97 70 -246 70q-50 0 -93 -3q-96 -259 -207 -516l-95 -200
q29 10 39 10q14 0 16 -9q37 -54 84 -91t87 -58q77 -40 148 -40zM187 38l5 1q71 32 127 117q48 77 83 163q200 438 360 923q-34 -26 -104 -91q-171 -159 -280 -292q-145 -175 -211 -346q-64 -159 -64 -313q0 -51 8 -93q9 -50 40 -63q16 -6 36 -6z" />
    <glyph glyph-name="u0412" unicode="&#x412;" horiz-adv-x="1524" 
d="M111 5q-16 0 -32 4.5t-30 15.5q-20 19 -28.5 46t-12.5 51v1q-8 39 -8 83q0 127 65 322q161 476 694 802l34 92q5 9 82 26l31 -18h-13l-12 -33q25 13 67 24q46 14 99 25.5t112 11.5l22 -1q126 -4 193 -61t71 -154v-9q0 -82 -51 -156t-146 -128q-31 -17 -59 -29
q134 -82 173 -229q10 -44 10 -86q0 -74 -24 -139.5t-55 -116.5q-101 -164 -259 -257q-96 -50 -188 -69q-51 -13 -100 -13q-37 0 -72 8q-180 43 -261 179q-10 -22 -37 -60t-69 -67q-35 -23 -71 -36q-72 -26 -125 -29zM817 54q27 0 53 4q2 1 37 15q101 47 196 149
q45 47 90.5 118.5t67.5 162.5q9 39 9 79q0 122 -81 222q-42 51 -98 83l-3 -1q-111 -30 -192.5 -40t-160.5 -10q-44 0 -58 2q-149 -396 -235 -581q31 9 36 9q14 0 17 -9q34 -67 95 -118q108 -85 227 -85zM611 925l15 39q-7 0 -19.5 -5t-17.5 -17l-1 -6q0 -11 19 -21zM808 880
q109 0 227 21l21 5q-49 25 -124 42q-100 24 -193 24h-13l-32 -86q45 -6 114 -6zM1147 943q42 21 93 64t82 109q20 46 20 96q0 52 -23 98.5t-71 72.5q-57 31 -159 31q-43 0 -82 -5l-2 -1q-65 -24 -146 -72l-118 -323q23 2 60 2q189 0 343 -70zM179 49q44 19 75 53
q30 33 51.5 73t39.5 81v1q72 160 152 363l85 228q-58 8 -66 54l-1 8q0 19 15.5 37.5t39 28t50.5 15.5q9 0 16 3l95 258q-35 -23 -95 -72q-439 -352 -524 -855q-9 -55 -9 -102q0 -49 10 -91q4 -20 12 -41t22 -34q10 -8 29 -8h3z" />
    <glyph glyph-name="u0413" unicode="&#x413;" horiz-adv-x="1344" 
d="M134 5h-5q-112 6 -126 118q-3 36 -3 72q0 107 10 158q17 93 63 203q138 323 466 591q105 86 206 151l11 8l35 113q3 10 84 28l19 -12l-17 -56q44 21 106 36q8 4 18 6q53 15 104 18q48 0 90 -14t83 -32q73 -34 134 -34q20 0 42 4l20 9q66 35 97 92q4 8 16 10.5t70 16.5
l15 -17q-45 -86 -149.5 -122t-170.5 -36q-70 0 -165 40q-39 17 -73.5 28t-72.5 11q-28 -1 -32.5 -2t-9.5 -4q-47 -17 -115 -60l-28 -18q-105 -323 -322 -863q-34 -94 -92 -207q-21 -43 -50 -89.5t-71 -82.5q-38 -33 -98 -47q-21 -7 -43 -12t-46 -5zM201 49l11 7q39 24 86 99
q52 86 91.5 178t74.5 184q1 2 27 69l47 120q104 264 190 518q-422 -303 -571 -703q-43 -114 -51 -207q-3 -39 -3 -74l1 -66q0 -38 12 -72q26 -53 85 -53z" />
    <glyph glyph-name="u0414" unicode="&#x414;" horiz-adv-x="1689" 
d="M679 5q-76 0 -197 25q-124 24 -195 24l-33 -1q-43 -3 -67 -17q-8 -10 -39.5 -17t-47.5 -9l-15 15q15 30 68 189q128 365 252 729q98 282 127 373l11 35l-6 -3q-86 -44 -162 -111.5t-136.5 -154.5t-97.5 -187.5t-37 -205.5q0 -96 37 -194l-42 -11q-35 -13 -47 -13
q-16 0 -17 11q-35 93 -35 191q0 133 54.5 254.5t140.5 219.5t184 162q67 45 85 52l-38 -8l-5 26l27 6q29 9 218 45v-3q110 28 220 28q158 0 304 -57q217 -87 315 -250q38 -67 52.5 -136t14.5 -131q0 -53 -7 -98q-28 -190 -138.5 -361t-305.5 -288q-100 -60 -216 -92
q-52 -15 -108.5 -26t-117.5 -11zM754 48q71 0 117 13q113 33 244 130q89 66 147 135q56 65 101 148q95 176 104 355l1 38q0 67 -19.5 145.5t-73.5 151.5q-110 141 -311 209q-120 39 -246 39q-87 0 -155 -16l-7 -1q-9 -29 -46 -140l-81 -237q-225 -663 -291 -843l-10 -31
q-13 -40 -25 -69l12 2l4 2q69 17 143 17q49 0 103 -7l103 -18q100 -21 186 -23z" />
    <glyph glyph-name="u0415" unicode="&#x415;" horiz-adv-x="1164" 
d="M437 5q-73 0 -152 21.5t-149 80.5q-66 58 -101 141t-35 175q0 60 16 120q68 226 287 332q56 24 111 37q71 20 131 27q-56 31 -94 91q-33 55 -33 116q0 45 14 78l3 7q-49 27 -97 67q2 19 17 22t35 9t29 6q11 0 16 -5q22 -18 40 -30q54 73 167 111q98 35 171 35
q71 0 121.5 -32.5t50.5 -86.5q0 -36 -24.5 -73t-82.5 -57q-52 -19 -114 -30q-29 -5 -65 -5q-78 0 -165 27l-10 4q-3 -13 -3 -34q5 -86 70 -149q76 -72 235 -88q15 -2 105 -9q-61 -19 -64 -20t-7 -1q-11 -4 -26 -8l-11 -3q-13 -6 -26 -6q-22 0 -75 7l-49 6q-65 10 -141 10
q-42 0 -99 -9q-77 -30 -125 -65q-173 -125 -202 -332q-3 -26 -3 -51q0 -97 40.5 -182.5t112.5 -136.5q60 -41 125 -57.5t127 -16.5q96 0 172 26l40 15q121 49 214 113q5 5 9.5 5.5t55.5 14.5l16 4l7 -9l8 -10l-4 -4q-186 -126 -433 -180q-31 -7 -71 -12.5t-85 -5.5z
M764 1206q27 0 48 3v-1q27 11 43 31q28 34 28 70q0 35 -24.5 56t-53.5 29q-30 8 -63 8q-31 0 -41 -4q-33 -13 -71.5 -38.5t-67.5 -65.5q-10 -16 -18 -34q110 -54 220 -54z" />
    <glyph glyph-name="u0416" unicode="&#x416;" horiz-adv-x="2342" 
d="M1755 5h-20q-122 5 -201 62q-58 46 -83.5 107t-33.5 112q-14 78 -14 162q0 129 29 255l-16 -10q-117 -72 -209.5 -140.5t-165.5 -162.5l-3 -5q-8 -13 -23 -13q-50 -13 -68 -16l-7 23q18 65 42 127q2 6 4 11q57 155 135 335q53 127 82 155l-82 -25q-110 -36 -216 -73
q-70 -356 -300 -586q-77 -74 -158 -129q-72 -57 -177 -108q-43 -21 -98 -35l-1 -1q-10 -3 -23.5 -6.5t-14.5 -3.5q-56 -17 -103 -17q-20 0 -40 6t-36 21q-33 38 -33 93l-1 26q0 85 45 172q27 51 61.5 91t66.5 69q132 126 345 240q183 99 365 166l5 23q6 39 11.5 83t5.5 90
v18q0 31 -10 81.5t-39.5 99.5t-87.5 78q-40 19 -98 19q-21 0 -41 -2q-71 -26 -160 -98q-7 -5 -28.5 -10.5t-32.5 -8t-24 -2.5l-11 18q50 38 87 62q88 54 215 79q33 6 64 6q80 0 143 -39q53 -34 80.5 -83.5t36.5 -101t9 -93.5q-4 -109 -17 -182l96 32q143 46 214 70l76 19
l12 -20q-6 -5 -8 -12l-27 -53q-71 -158 -130 -307q-35 -85 -57 -143q111 91 263 179l5 3q90 57 94 58q78 277 266 481q107 113 212 153q61 24 138 39q34 6 68 6q32 0 72 -6l-4 -21l-12 -5q-56 -15 -66 -16q-28 5 -54 5q-27 0 -55 -4l-32 -14q-123 -62 -240 -216
q-141 -188 -199 -423q-36 -152 -36 -286q0 -277 124 -363q66 -45 163 -51l28 -1q72 0 159 20q11 3 21 8l4 1q65 21 124 50q10 5 38 11l43 11l10 -22q-26 -13 -46 -21q-117 -49 -224 -73q-107 -28 -196 -28zM99 66q47 0 81 21l11 6q40 18 84 46q182 114 292 243
q167 195 229 485q-163 -65 -332 -163q-187 -108 -307 -230q-27 -28 -57.5 -70.5t-53.5 -97.5t-23 -119q0 -92 39 -113q18 -8 37 -8z" />
    <glyph glyph-name="u0417" unicode="&#x417;" horiz-adv-x="1309" 
d="M580 5q-181 0 -318 77q-168 95 -259 328l-3 11l41 11q36 13 47 13q16 0 17 -11q95 -242 276 -330q119 -55 269 -55q62 0 97 7q102 42 185 132q121 131 121 295q0 138 -90 256q-70 84 -167 116q-70 19 -126 20q-49 0 -100 3l-93 4l114 32q20 8 37 8l49 -2q28 0 57 -2
q94 0 164 13q30 11 63 28q40 20 87.5 66.5t61.5 120.5q2 13 2 27q0 58 -33.5 107.5t-92.5 79.5q-78 38 -181 38q-43 0 -78 -8q-118 -43 -226 -146q-8 -5 -41 -13l-14 -4q-9 -2 -29 -6l-13 19q70 66 138 107q74 44 172 69l19 4q77 21 150 21q116 0 210 -52q82 -48 110 -125
q13 -36 13 -73q0 -40 -15 -77q-70 -164 -322 -218q11 -2 37 -14q117 -53 185 -170q55 -101 55 -210t-55 -211q-51 -91 -142 -163q-87 -71 -192 -96q-88 -27 -187 -27z" />
    <glyph glyph-name="u0418" unicode="&#x418;" horiz-adv-x="1487" 
d="M317 5q-73 0 -133 31q-101 52 -150 167q-34 82 -34 187q0 103 33 232q30 114 70 225.5t83 220.5q57 144 77 192q9 20 16 40.5t7 40.5q-3 44 -32 50l-3 -1q-20 -16 -39 -38q-6 -5 -67 -20l-15 -4l-17 20q54 56 93 66q4 3 33 10h1q34 13 67 13q31 0 58 -20q24 -25 24 -55
q0 -34 -16 -67l-36 -94l-48 -122q-86 -208 -147 -420q-15 -51 -27 -115.5t-12 -133.5q0 -80 24 -159q37 -107 118 -161q64 -42 135 -42q28 0 57 4l13 4q59 25 76 34q142 70 288 214q-9 50 -9 101q0 85 20.5 170t47.5 167q29 88 98 270q47 120 89 241l60 163q5 10 17.5 12.5
t21.5 4.5q41 8 73 17q-30 -74 -53 -140l-57 -160l-46 -119q-72 -189 -106 -291q-25 -78 -43.5 -157.5t-18.5 -159.5q0 -64 16 -128q28 -99 96 -162t157 -76l27 -2q21 0 43 3q103 43 191 143q7 6 15 7.5t69 16.5l14 -18q-78 -90 -171 -137q-63 -30 -129 -44
q-20 -6 -44.5 -10.5t-52.5 -4.5l-17 1q-102 8 -180.5 73t-108.5 152q-112 -104 -263 -170q-155 -62 -253 -62z" />
    <glyph glyph-name="u0419" unicode="&#x419;" horiz-adv-x="1494" 
d="M317 5q-73 0 -133 31q-101 52 -150 167q-34 82 -34 187q0 103 33 232q30 114 70 225.5t83 220.5q57 144 77 192q9 20 16 40.5t7 40.5q-3 44 -32 50l-3 -1q-20 -16 -39 -38q-6 -5 -84 -24l-15 20q54 56 94 66q4 3 31 9l4 2q32 12 65 12q31 0 58 -20q24 -25 24 -55
q0 -34 -16 -67l-36 -94l-48 -122q-86 -208 -147 -420q-15 -51 -27 -115.5t-12 -133.5q0 -80 24 -159q37 -107 118 -161q64 -42 135 -42q57 0 86 14l7 4q26 9 53 24q142 70 288 214q-9 50 -9 101q0 85 20.5 170t47.5 167q29 88 98 270q47 120 89 241l60 163q5 10 17.5 12.5
t20.5 4.5l70 14l-5 -18q-23 -59 -44 -119l-16 -43q-31 -92 -87 -236q-72 -189 -106 -291q-25 -78 -43.5 -157.5t-18.5 -159.5q0 -64 16 -128q28 -99 96 -162t157 -76l27 -2q21 0 43 3q103 43 191 143q7 5 15 6l3 1l66 17l14 -18q-78 -90 -171 -137q-63 -30 -129 -44
q-20 -6 -44.5 -10.5t-52.5 -4.5l-17 1q-102 8 -180.5 73t-108.5 152q-112 -104 -263 -170q-155 -62 -253 -62zM742 1571q-60 0 -120 19q-111 40 -152 128q-10 26 -10 53q0 34 17 68q6 8 19 11l67 16l15 -15q-15 -31 -15 -62q0 -43 28 -82q34 -41 76.5 -61t82.5 -26t62 -6
q60 0 83 12q60 25 100 69q7 6 14 7.5t69 17.5l15 -19q-56 -62 -144 -90q-44 -16 -97 -28t-110 -12z" />
    <glyph glyph-name="u041A" unicode="&#x41a;" horiz-adv-x="1437" 
d="M15 3l-15 17l2 6q25 62 67 185q113 318 161 461l48 139q-46 9 -75 45q-20 25 -20 50q0 11 3 20q16 32 50.5 43t55.5 13.5t47 3.5l140 412h1l-127 -26l-7 24l70 20l150 29h25l-2 -11l-5 -13q-35 -110 -108 -319l-45 -133q69 -26 133 -95q5 2 18 5q34 10 72 27
q196 84 306 239q45 64 76.5 137t56.5 146q5 10 16 12t18 3q41 9 76 20l-18 -52q-70 -208 -173 -319q-93 -101 -227 -169q-88 -42 -198 -73q24 -27 57 -72q96 -133 173 -276l12 -22q112 -205 194 -307q41 -57 106 -96q48 -24 108 -24q33 1 58 5h4q30 10 60 25q14 6 29 9
q36 8 52 15l11 -25q-39 -17 -71 -29q-128 -44 -211 -44q-54 0 -100 17q-70 29 -119.5 85.5t-85.5 113.5q-76 115 -139 234q-136 254 -242 366q-56 -12 -108 -17q-55 -162 -108 -312q-44 -130 -89 -254l-37 -105q-22 -67 -39 -105q-4 -7 -87 -29zM403 849q28 1 52 5
q-29 28 -50 42l-15 -46zM303 884l19 53q-16 5 -31 6q-3 -4 -4 -17q0 -28 16 -42z" />
    <glyph glyph-name="u041B" unicode="&#x41b;" horiz-adv-x="1763" 
d="M187 5q-110 0 -195 81q-82 91 -82 194l1 19q0 15 42 20l63 15q-3 -17 -3 -38q0 -18 3 -34q21 -112 115 -177q52 -35 121 -37q29 2 31.5 2.5l7.5 1.5q55 25 100.5 66.5t81.5 85.5q54 66 133 178q49 70 352 519q94 137 169 230q171 226 379 284q102 35 193 35q33 0 75 -6
l-3 -22l-66 -18l-8 -2q-31 4 -76 4q-172 -587 -225 -758q-101 -322 -119 -368q-25 -67 -25 -114q0 -22 6.5 -43t22.5 -36q30 -29 96 -29q37 0 78 8l6 2q65 19 114 60q6 5 12.5 5.5t70.5 18.5l14 -20q-60 -48 -150 -76q-116 -40 -212 -42q-83 0 -125 40q-37 34 -37 94
q0 49 27 121l13 36q74 223 113 355q108 346 171 572l45 153q-110 -44 -224 -169q-85 -93 -158 -195.5t-141 -207.5l-11 -15q-172 -265 -352 -512q-148 -201 -278 -246q-101 -35 -166 -35z" />
    <glyph glyph-name="u041C" unicode="&#x41c;" horiz-adv-x="2114" 
d="M835 3l-16 16l3 13q24 88 39 165q45 199 140 648q53 251 93 427q12 61 26 111q-93 -37 -167 -128q-71 -91 -120 -188q-48 -88 -102 -204q-25 -53 -111 -248q-111 -253 -185 -386q-23 -45 -53 -89.5t-73 -78.5q-43 -29 -96 -41q-50 -14 -79 -14q-22 0 -45 7
q-53 17 -91 55.5t-71 86.5l-7 16q13 0 26.5 3.5t18.5 4.5q36 13 46 13q13 0 17 -8q33 -50 73 -88.5t89 -45.5h10q10 5 23 15q75 64 176 278q72 152 133 294q159 370 276 547q74 116 165 170q99 55 212 78q67 16 130 16v-24q-16 0 -39.5 -9.5t-38.5 -9.5h-12
q-14 -54 -44 -195q-50 -219 -112 -518q-44 -209 -112 -513q-23 -100 -25 -106q40 27 80 73q96 111 224 431q40 97 79 186q60 148 151 306q95 157 220 249q135 99 346 128l4 -24q-30 -7 -41 -11t-96 -299q-100 -335 -141 -469q-89 -287 -117 -362t-28 -119q0 -22 6.5 -42.5
t22.5 -36.5q31 -30 104 -30q112 5 191 70q7 5 83 24l14 -20q-60 -48 -150 -75q-116 -41 -213 -42q-83 0 -125 39q-36 35 -36 95q0 47 25 117l14 39q56 166 114 355q43 140 144 479l70 243q-96 -41 -191 -140q-62 -67 -108 -141.5t-79 -144.5q-106 -220 -186 -417l-9 -24
q-31 -76 -66 -151t-81 -144q-99 -147 -211 -182l-61 -17q-36 -9 -50 -13z" />
    <glyph glyph-name="u041D" unicode="&#x41d;" horiz-adv-x="1658" 
d="M1253 5h-17q-77 0 -131 30q-95 56 -95 177q0 35 7.5 69.5t17.5 64.5l38 124q49 153 76 253q32 121 37 136q-29 -12 -82 -26q-115 -33 -202 -46q-105 -16 -198 -24q-72 -4 -138 -12l-25 -3q-4 -11 -8 -28l-88 -270q-30 -97 -66 -185q-37 -92 -90 -149q-47 -51 -92 -74
q-63 -25 -82.5 -27t-33.5 -2q-16 0 -32 7q-49 37 -49 139q0 147 97 323q35 64 86.5 130.5t127.5 107.5q62 28 138 45q137 441 185 592l5 13q-8 -1 -17 -4q-140 -50 -263 -50v26q16 0 45 11q16 7 32 7q56 0 103 9q49 20 73.5 33t53.5 24q27 7 79 20l12 -20l-4 -11
q-39 -103 -69 -208l-24 -78l-107 -344q62 10 134 15l59 5q25 0 137 14q80 9 138 21l13 3q100 29 166 66q56 192 108 388q10 41 30 78t60 53q22 11 46 15.5t30 5.5t18 2q37 0 63 -26q23 -30 23 -62q0 -47 -7 -82q-48 -237 -270 -366l-3 -8q-45 -173 -110 -385l-38 -119
q-37 -107 -37 -174q0 -26 7 -55.5t24 -55.5q22 -30 50.5 -45t52.5 -19q30 -6 65 -6l34 3q8 1 22 6t20 6q37 13 130 63q19 9 81 22l11 -22l-9 -5q-179 -101 -348 -116zM136 60q18 13 40 35q47 47 76.5 106.5t52.5 124.5q75 216 135 407q-17 -4 -32 -10l-33 -19
q-67 -47 -114 -113t-78 -129q-80 -155 -80 -278q0 -24 3 -49t11.5 -47.5t18.5 -27.5zM1324 998l12 13q113 121 135 274q4 21 4 47q0 20 -5.5 38.5t-18.5 28.5l-1 1q-7 -6 -15 -25q-26 -53 -38 -114q-19 -80 -49 -180z" />
    <glyph glyph-name="u041E" unicode="&#x41e;" horiz-adv-x="1420" 
d="M467 5q-130 0 -237 69q-105 71 -154 173t-63 193q-13 70 -13 142q0 154 58 304q93 235 281 358q91 59 226 102q108 32 172 48h-12q-82 0 -182 -21l-5 24l73 20q89 20 185 20q77 0 162.5 -20t163.5 -74q159 -120 188 -359q4 -36 4 -74q0 -160 -73 -330q-85 -196 -241 -346
q-77 -73 -161 -123.5t-205 -80.5l-3 -1q-90 -24 -164 -24zM536 48q49 0 104 12q36 11 88 40q158 87 283 250q98 129 149 268t51 272q0 100 -29 192q-34 101 -92 169q-97 112 -268 136l-18 -5q-46 -14 -70 -18l-52 -13q-131 -37 -219 -87q-95 -54 -169 -139
q-138 -162 -178 -380q-13 -74 -13 -150q0 -116 33 -224.5t101.5 -188t173.5 -114.5q59 -20 125 -20z" />
    <glyph glyph-name="u041F" unicode="&#x41f;" horiz-adv-x="1799" 
d="M169 5h-13q-88 8 -164 74q-27 22 -49.5 55.5t-22.5 74.5q0 16 105 36l-2 -18q0 -12 4 -26q12 -40 39 -67.5t48 -41.5q63 -43 127 -43q46 23 77 101q25 66 49 131l13 40l5 12q154 442 194 561q-3 -2 -25 -8l-31 -7q-26 -12 -68 -12q-74 0 -121 57q-53 67 -53 162
q0 159 127 244q54 34 114.5 54t121.5 34q48 11 90 17.5t93 6.5q66 0 173 -20l37 -7q228 -43 418 -43q146 0 293 32l42 14q95 34 174 84q11 6 24 8l57 14l12 -22q-116 -72 -264 -114q-132 -36 -230 -48q-62 -187 -118 -364q-125 -401 -158 -657q-3 -32 -3 -60q0 -133 68 -178
q41 -25 89 -25q12 0 12 -1q22 8 37 15q53 28 71 40q21 9 30 9l51 12l12 -20q-50 -30 -95 -50t-93 -32l-6 -2q-44 -13 -91 -13q-41 0 -84 17q-104 49 -104 212q0 79 24 190l1 6q17 89 41 183q43 177 98 351t112 343l4 14q-32 -2 -78 -2q-123 0 -238 14.5t-211 33.5
q-51 10 -86 15q-56 -161 -91 -267q-154 -448 -311 -893q-14 -42 -31.5 -82.5t-48.5 -72.5q-33 -34 -64.5 -44.5t-77.5 -19.5q-28 -7 -55 -7zM527 910q38 18 64 48t26 75q0 20 -6 44q3 7 25 10l10 2l36 101l70 209q-62 0 -130 -15l-11 -4q-64 -18 -118 -55
q-109 -77 -109 -220q0 -84 45 -147q37 -48 98 -48z" />
    <glyph glyph-name="u0420" unicode="&#x420;" horiz-adv-x="1737" 
d="M116 5q-36 0 -62 14q-54 33 -54 168q0 32 3 70q32 363 376 720q204 212 401 325l38 117q2 8 20 12q67 15 89 24l-30 -93q20 9 38 15l14 5q57 18 121.5 31.5t131.5 13.5q86 0 170 -34q101 -46 168.5 -131t87.5 -191q6 -35 6 -71q0 -93 -41 -185.5t-119 -171.5
q-84 -84 -196 -132q-49 -22 -120 -41q-127 -37 -232 -37q-54 0 -116 11t-120.5 41t-91.5 71q-45 -112 -103 -237q-31 -73 -75 -144.5t-119 -117.5q-30 -17 -69 -28l-26 -8q-53 -16 -90 -16zM193 49q108 49 179 212q38 83 71 159q182 419 313 808q-148 -99 -320 -291
q-321 -352 -332 -705q0 -104 18 -148q16 -35 62 -35h9zM988 475q75 0 123 12q35 7 74 23q147 62 243 187q103 140 103 286q0 52 -14 102q-55 187 -233 269q-59 26 -157 28q-42 0 -107 -10l-13 -3q-69 -30 -127 -63q-122 -366 -267 -715q0 -1 -0.5 -1.5t5.5 1.5t17 6
q23 9 34 9q12 0 17 -7q40 -50 90.5 -76.5t106 -37t105.5 -10.5z" />
    <glyph glyph-name="u0421" unicode="&#x421;" horiz-adv-x="1380" 
d="M549 5q-137 0 -249 55q-127 65 -205.5 191t-92.5 287q-2 28 -2 58q0 146 50.5 288t145.5 257q107 131 263 199q72 31 168 58q130 38 233 38q156 0 279 -75q153 -100 213 -287l3 -15q-10 0 -33.5 -6t-36 -9t-19.5 -3q-14 0 -21 25t-25 60q-76 155 -221 225q-94 42 -206 42
q-43 0 -89 -7l-57 -11q-121 -38 -203 -91q-121 -81 -205 -212q-66 -103 -100.5 -221.5t-34.5 -236.5q0 -54 8 -107q22 -146 98.5 -254t192.5 -161q96 -44 211 -44q51 0 106 9q29 3 57 10q101 26 265 116q19 8 82 21l11 -21q-151 -82 -273 -121q-179 -57 -313 -57z" />
    <glyph glyph-name="u0422" unicode="&#x422;" horiz-adv-x="1963" 
d="M1567 5q-43 0 -88 20q-52 27 -69.5 72.5t-17.5 94.5q0 53 9 101q53 385 249 945l36 107l-32 -1l-47 -1q-193 0 -434 22q-110 9 -251 33q-32 7 -56 10l-60 -176q41 31 119 62q67 25 145 43l21 5q30 10 69 10l10 -1q99 -6 99 -147l-1 -34q-7 -82 -27 -161t-44 -154
l-45 -134q-17 -47 -71 -206q-81 -232 -149 -483q-2 -9 -84 -28l-20 13q75 274 179 569l59 171q18 50 33 100q23 71 42 146.5t24 153.5l1 28q0 121 -73 124q-26 0 -52 -8q-6 -2 -7.5 -2t-34.5 -13q-143 -60 -236 -180l-27 -76q-38 -105 -69 -198q-81 -236 -196 -556l-33 -90
q-36 -120 -138 -153l-5 -2q-14 -6 -50.5 -14.5t-65.5 -8.5q-93 2 -175 73q-27 23 -50.5 57t-23.5 74q0 15 105 36l-2 -18q0 -11 3 -22l1 -4q12 -40 39.5 -68t48.5 -42q65 -42 125 -42h1q50 27 81 111q111 306 262 743l-22 -6l-34 -9q-25 -8 -59 -8q-76 4 -118.5 56.5
t-52.5 116.5q-4 26 -4 52q0 99 58 178q48 58 114 88t133 46q86 26 172 34q31 4 66 4q54 0 117 -11q340 -60 724 -60q168 0 307 32q114 34 217 99q15 6 30 8l51 14l12 -22q-37 -23 -72 -41q-123 -62 -311 -104q-68 -14 -136 -21l-117 -354q-45 -138 -90.5 -312t-72.5 -367
l-4 -28q-7 -37 -7 -84q0 -39 11 -73.5t40 -57.5q39 -28 92 -28l23 1q41 18 82 42l19 10q11 6 38 11.5t42 13.5l12 -23l-3 -3q-43 -26 -91 -48q-38 -17 -108 -35q-39 -12 -85 -12zM557 930q48 31 77 89l137 396q-50 0 -121 -17l-20 -5l-29 -9q-194 -69 -194 -259q0 -28 5 -55
q7 -37 26 -70t47.5 -53t65.5 -20z" />
    <glyph glyph-name="u0423" unicode="&#x423;" horiz-adv-x="1320" 
d="M252 5q-62 0 -115.5 21t-95 66.5t-41.5 104.5v7q0 7 9.5 11t95.5 23l-2 -19q0 -57 43 -102q64 -63 164 -69q46 0 70 6q5 0 35 12l7 2q19 9 37 19q102 61 163.5 157.5t97.5 192.5q47 118 73 207q-41 -25 -121 -44l-26 -8q-74 -22 -148 -22q-182 0 -290 113q-88 97 -88 272
q0 81 16.5 160.5t42 156t53.5 146.5q6 11 35.5 15.5t74.5 18.5l-7 -21q-21 -54 -47 -126q-66 -191 -66 -337q0 -101 32 -172q72 -155 264 -180q24 -3 47 -3q20 0 40 2q42 6 43 9h6q81 30 163 98q11 42 24 82l7 23q45 159 111 356q26 78 54 148q24 60 57 82q16 10 38 16
q4 0 43 11q11 3 27 3q11 0 22.5 -3.5t21.5 -14.5q14 -26 14 -52v-6q1 -5 1 -24q0 -148 -116 -354q-91 -162 -204 -260l-23 -74q-32 -104 -72.5 -210t-107.5 -204q-66 -95 -151 -146q-56 -33 -114 -51.5t-108 -28.5q-46 -10 -89 -10zM962 880q3 4 31 53q77 126 111 227
q26 79 30 161l-1 24v35q-8 -12 -19 -40q-58 -145 -101 -293z" />
    <glyph glyph-name="u0424" unicode="&#x424;" horiz-adv-x="1789" 
d="M289 5h-5q-19 0 -41.5 6t-40.5 25q-26 35 -29 78q0 8 11 12.5t42 10.5l52 14l-2 -18q2 -41 28 -70q11 -9 24 -12t23 -3l10 1q51 23 93 73q50 62 80 128q31 62 58 123q53 121 69 160q-1 0 -25 -9q-132 -49 -239 -49q-81 0 -150 30q-186 87 -237 307q-10 49 -10 96
q0 171 125 305q140 147 372 200q94 25 177 25q40 0 94 -7.5t110 -30.5t88 -54l31 97q3 7 18 12l91 20l-27 -83q24 15 101 34q10 1 19 4q34 11 66 14.5t58 3.5q23 0 46 -3q102 -13 188.5 -80t134.5 -166q39 -85 39 -175q0 -154 -106 -294q-80 -105 -194 -168
q-102 -57 -265 -90q-25 -6 -64.5 -11t-85.5 -5q-66 0 -138 16.5t-123 52.5q-43 -102 -92 -207q-30 -70 -75 -143t-121 -119q-37 -20 -84 -32q-7 -1 -13 -4q-39 -12 -81 -15zM468 518q27 0 54 5t31.5 6t9.5 3q67 27 120 72q3 3 5.5 5t6.5 5q110 255 234 622q-6 18 -28 43
q-52 64 -133 89.5t-162 25.5q-68 0 -122 -13l-6 -2q-64 -19 -131 -61q-244 -151 -244 -391q0 -63 18 -126q59 -190 218 -259q60 -24 129 -24zM1083 500q26 0 51.5 1.5t92.5 12.5q229 76 343 275q59 109 59 217q-2 107 -56 201q-49 81 -124 133.5t-156 61.5q-18 3 -38 3
q-37 -1 -58 -4l-4 -1q-80 -31 -145 -100q-111 -336 -244 -657q0 -5 -11 -29l-1 -2q13 -18 27 -29q100 -83 264 -83z" />
    <glyph glyph-name="u0425" unicode="&#x425;" horiz-adv-x="1661" 
d="M151 5h-3q-49 1 -92 27.5t-55 77.5l-1 3q0 6 13.5 10.5t50.5 13.5q18 4 38 13q8 -57 43 -79t74 -22h6q70 33 140 116q56 65 102 138t87 147q89 156 176 285l-6 23q-74 303 -140 456q-48 107 -114 156q-24 18 -52 23.5t-58 5.5q-36 0 -70 -4h-11l-2 24q23 3 37 9
q33 14 113 14q40 0 77 -9t70 -36q72 -59 123 -184q55 -142 113 -364q104 146 195 258q60 84 157 179q90 81 200 120q50 18 124 35q26 7 56 7q32 0 68 -17l-6 -18l-22 -7l-54 -14l-9 2q-20 11 -45 11q-14 0 -27 -2q-56 -20 -110 -54t-98.5 -79t-83.5 -92q-156 -189 -296 -393
l-24 -36q12 -52 22 -104q26 -152 55 -259q20 -77 62.5 -162.5t123.5 -135.5q56 -32 131 -32q41 2 75 7q63 25 114 62l8 3q1 1 73 19l14 -20q-66 -47 -133.5 -70t-125.5 -34q-49 -10 -95 -10q-74 0 -134 29q-96 51 -145 143t-71 176q-28 105 -46 211l-10 53q-49 -76 -96 -159
l-37 -66q-49 -85 -109 -170.5t-144 -149.5q-54 -41 -119 -56q-24 -8 -48 -13.5t-49 -5.5z" />
    <glyph glyph-name="u0426" unicode="&#x426;" horiz-adv-x="1562" 
d="M941 -598q-42 0 -76 18q-50 28 -75 85q-15 36 -15 74q0 18 3 35q21 110 259 195q135 55 253 118l60 128q-8 -5 -42 -17q-100 -38 -176 -38q-35 0 -71 8q-177 41 -232 208q-47 -40 -105 -74q-92 -55 -221 -97t-193 -42q-40 0 -76 10q-111 35 -176 140q-32 53 -45 110.5
t-13 116.5q0 72 14.5 142.5t33.5 133.5q70 232 165 463q21 54 25.5 67t10.5 27.5t22 53.5q10 22 17.5 43.5t7.5 43.5q-1 42 -34 48q-12 -6 -40 -38q-9 -7 -17 -7l-67 -17l-14 18q52 60 110 73l18 5q32 12 65 12q34 0 61 -23q21 -25 21 -53q0 -19 -5.5 -37.5t-11.5 -31.5
l-39 -100q-107 -260 -184 -505q-24 -75 -40 -150.5t-16 -148.5q0 -50 9.5 -98.5t32.5 -94.5q51 -100 144 -141q43 -18 88 -18q33 0 47 3q26 8 52 19q104 39 178 86q95 64 158 126q-9 42 -9 103q0 101 27 199.5t62 199.5q42 120 89 237l54 142l36 102q59 174 79 175q6 3 13 4
l78 19q-37 -96 -67 -182q-24 -69 -85 -232q-53 -132 -99 -269q-31 -89 -57.5 -185t-26.5 -194q0 -29 3 -57q4 -42 19.5 -93t50.5 -99q55 -70 144 -97q36 -10 71 -10l39 2q83 34 171 120q8 8 76 25l18 -21l-79 -174q244 136 364 209q11 6 82 22l11 -21l-37 -22
q-178 -108 -450 -254l-116 -249q-65 -162 -147 -222q-58 -36 -124 -48q-28 -9 -61 -9zM1012 -555q48 26 80.5 74.5t56.5 100.5q57 122 114 248q-43 -21 -146 -64q-51 -21 -96 -43q-51 -22 -100 -62q-22 -21 -32.5 -47.5t-10.5 -54.5q0 -41 17 -77q39 -75 117 -75z" />
    <glyph glyph-name="u0427" unicode="&#x427;" horiz-adv-x="1259" 
d="M959 5q-27 0 -55 5q-103 18 -175 91q-99 105 -99 286q0 89 21 175t34 123q-78 -90 -178 -131q-56 -22 -113 -34l-18 -4q-27 -7 -63 -7l-25 2q-89 7 -155 68q-50 47 -76.5 113.5t-26.5 143.5q0 30 5 62q20 115 65 214l28 62q21 47 40 94q19 43 19 81q0 27 -15 46
q-8 8 -12 8q-34 -22 -61 -58q-7 -6 -43 -15l-41 -10l-15 19q37 48 90 76q18 10 32.5 14.5t57.5 13.5q24 5 37 5q54 0 70 -61q2 -11 2 -22q0 -52 -55 -168q-100 -208 -100 -344q0 -131 77 -223q72 -78 172 -78q32 0 33 2l6 3q17 8 35 17l7 4q49 30 88 67.5t68 73.5
q71 83 135 167q68 174 131 349q28 80 60 163q5 9 109 30q-25 -63 -44 -118l-23 -63q-44 -128 -89 -240q-74 -196 -94 -259q-30 -88 -51 -174t-21 -171q0 -44 7 -87q6 -39 24.5 -86.5t55.5 -89.5q58 -63 142 -84q34 -8 67 -8l21 1q13 2 30 10l7 3q81 46 146 110q7 7 38 14
l45 11l14 -19q-42 -40 -87 -74.5t-99 -57.5q-54 -22 -128 -36q-28 -5 -57 -5z" />
    <glyph glyph-name="u0428" unicode="&#x428;" horiz-adv-x="1953" 
d="M1717 5q-64 0 -121 19q-132 48 -171 153q-9 29 -10 34q-50 -88 -141 -141q-126 -65 -244 -65q-76 0 -144 29t-113 81q-54 62 -70 128q-101 -164 -241 -207q-21 -8 -59 -16q-31 -9 -66 -10q-41 0 -81 14q-98 36 -156.5 115t-80.5 161q-19 64 -19 140q0 227 180 595l18 37
q28 58 56 130q27 59 33 133q0 56 -33 66q-16 -15 -30 -34q-8 -11 -15 -11.5t-72 -17.5l-14 18q39 63 102 76l18 5q36 11 56 12q33 0 57 -19t31 -48q4 -17 4 -33q0 -41 -16 -82q-23 -71 -82 -195l-37 -83q-40 -86 -75.5 -177.5t-57.5 -189.5q-19 -86 -19 -162q0 -112 41 -201
q93 -197 257 -205l15 1q90 42 181 172q50 75 86 151v25q0 69 9.5 137.5t22.5 142.5l12 64q27 160 65 321l1 3q27 111 47 171q43 132 107 172q18 9 31 13q42 13 73 14q15 0 28 -5q63 -29 63 -125l-1 -29q-11 -91 -45 -178q-46 -138 -84 -231q-87 -203 -204 -436l-21 -43
q7 -229 166 -312q67 -34 141 -34q38 1 50 3q135 55 222 250q37 79 82 221q3 4 16 44q12 31 22 63q59 175 121.5 376t113.5 416q48 21 82 26l26 5l-5 -16q-88 -374 -285 -937q-30 -95 -30 -177q1 -72 18 -120q29 -85 127 -128q62 -26 132 -26q53 0 102 18q80 34 161 85
q11 6 83 22l11 -20q-81 -51 -141 -78q-169 -70 -286 -70zM806 628q74 148 152 356q41 111 64 197q19 57 19 113q0 37 -14 69q-10 21 -18 25q-6 -7 -21 -29q-49 -95 -73 -198q-32 -122 -60 -264q-37 -197 -49 -269z" />
    <glyph glyph-name="u0429" unicode="&#x429;" horiz-adv-x="2237" 
d="M1583 -617q-93 0 -138 91q-22 47 -22 93q0 82 81 134q90 56 188 93l15 6q115 47 230 108l78 168l-12 -6q-168 -70 -286 -70q-64 0 -121 19q-131 47 -171 153q-9 29 -10 34q-51 -88 -141 -141q-125 -65 -245 -65q-76 0 -143.5 29.5t-114.5 82.5q-53 61 -68 126
q-102 -165 -241 -207q-21 -8 -59 -16q-27 -7 -53 -9q-53 0 -94 13q-98 37 -157 115.5t-80 160.5q-19 64 -19 139q0 111 40 247q63 197 152 375q32 65 62 141q27 58 33 134q0 57 -32 65q-17 -15 -25 -29t-27 -17q-1 0 -66 -17l-14 18q38 62 103 77q4 0 7.5 1.5t10.5 2.5
q27 9 56 11q33 0 56.5 -18.5t30.5 -47.5q3 -16 3 -32q0 -65 -55 -186l-79 -175q-40 -86 -75.5 -177.5t-57.5 -189.5q-18 -86 -18 -162q0 -112 40 -201q93 -195 258 -205l13 1q89 40 182 172q50 74 86 151v25q0 68 9.5 137.5t22.5 142.5l12 65q51 305 113 494q44 133 107 173
q13 6 37 14q36 12 48 12l19 1q15 0 29 -6q62 -29 62 -125q0 -90 -45 -207l-10 -29q-67 -211 -234 -544l-66 -137q1 -52 11 -97q34 -151 155 -215q68 -34 141 -34q40 2 50 4q29 12 57 30q96 65 165 219q31 66 63 160q7 28 19 60q0 2 38 108q59 174 121 375t114 417
q0 11 82 26q7 1 25 10l-4 -22q-96 -395 -284 -936q-32 -95 -32 -177q4 -74 19 -120q28 -85 127 -128q62 -26 132 -26q36 0 73 7q92 33 190 96q15 7 81 22l15 -16l-80 -175q225 123 365 209q11 6 81 23l14 -26h-9q-157 -96 -377 -216q-61 -33 -104 -55l-130 -282
q-59 -131 -122 -182q-43 -31 -80.5 -43.5t-63 -17t-57.5 -4.5zM806 624q72 142 152 355q40 108 64 197q19 57 19 113q0 37 -14 69q-10 21 -18 25q-6 -7 -20 -29q-50 -95 -74 -198q-40 -147 -60 -270q-31 -153 -49 -262zM1657 -574l4 2q48 27 80.5 74.5t57.5 105.5l111 240
q-50 -24 -135 -59q-239 -85 -248 -189l-1 -14q0 -48 24 -94q36 -67 103 -67z" />
    <glyph glyph-name="u042A" unicode="&#x42a;" horiz-adv-x="1188" 
d="M480 5q-87 0 -163 50q-145 98 -152 309q0 77 19 153t42 150q34 111 87 259q49 132 142 418q-67 -18 -108 -18q-112 0 -159 103l-4 10q-9 22 -11 24q-32 -16 -73 -27q-41 -14 -95 -24l-5 26q20 4 32.5 8t23.5 7l8 3q26 11 42 22q26 14 38 18l5 1q3 2 13 4q11 3 19 5
q16 6 45 10q11 0 22 -4q29 -17 37 -45v-1q10 -24 25.5 -47t41.5 -36q27 -13 64 -13q18 0 36 3q10 3 16 11l6 19q0 1 3.5 9t13.5 11l32 9l63 15l-18 -56q-94 -298 -190 -560q47 33 128 54q22 5 41 11q73 22 139 22q43 0 85 -9q178 -38 262 -182q39 -74 39 -153
q0 -104 -54 -206t-135 -181q-115 -111 -248 -151q-36 -12 -75.5 -21.5t-79.5 -9.5zM552 48q17 0 32 2l9 4q123 47 231 169q59 66 101.5 154t42.5 180q0 83 -47 161q-80 120 -233 150q-34 6 -69 6q-36 0 -74 -7h-1l-6 -2q-40 -16 -87 -48q-13 -7 -28.5 -10t-39.5 -9
q-4 0 -18 -6q-25 -71 -46 -144q-19 -65 -34.5 -132t-15.5 -135q0 -26 3 -52q21 -162 140 -240q60 -38 140 -41z" />
    <glyph glyph-name="u042B" unicode="&#x42b;" horiz-adv-x="1595" 
d="M1177 5q-41 0 -82.5 14t-67.5 53q-17 29 -17 70t24 126q40 155 49 194q114 446 174 660q-40 -23 -111 -57q-271 -126 -456 -179q115 -46 177 -156q39 -75 39 -154q0 -104 -54 -205.5t-135 -179.5q-117 -113 -250 -153q-36 -11 -74 -20.5t-78 -9.5q-93 4 -165 50
q-144 98 -150 309q0 80 19 157t44 153q32 112 70 212q95 262 179 527q4 9 70 24q17 4 40 13q-101 -311 -150 -449l-59 -170q55 35 127 54q91 33 182 33q54 0 122 -18q37 7 78 25l20 7q105 41 160 65q238 96 374 190q29 102 67 227q3 11 39 20t49 9q35 0 57 -27.5t22 -58.5
l-2 -17q-10 -40 -40 -70t-61 -53l-30 -22q-84 -293 -194 -737l-38 -147l-9 -35q-23 -78 -23 -118q0 -34 14 -59q19 -32 53 -43t67 -11q17 0 32 2t25 4q79 31 120 68q7 5 86 24q7 -15 11 -20q-45 -42 -115 -69q-25 -10 -105 -33q-73 -19 -124 -19zM1405 1305l-2 -5
q13 8 22 19.5t13 34.5v7q-2 13 -13 15zM343 855q7 1 152 22q-16 3 -50 3q-56 0 -102 -25zM385 51q18 0 34 2l9 4q121 47 230 169q59 66 102 154t43 180q0 83 -47 161q-65 99 -183 137l-28 -5q-145 -24 -242 -38q-34 -4 -68 -9q-16 -4 -18 -4l-18 -7q-39 -112 -44 -141
q-20 -66 -36 -134.5t-16 -137.5q0 -25 3 -50q21 -161 139 -240q64 -39 140 -41z" />
    <glyph glyph-name="u042C" unicode="&#x42c;" 
d="M314 5q-87 0 -164 50q-144 98 -150 309q0 79 19 156t43 152q28 92 86 254q89 253 164 487q4 10 20 12q33 7 93 25q-11 -23 -37 -106q-89 -277 -138 -408l-37 -105q45 32 127 54l34 9q80 24 147 24q42 0 85 -9q178 -38 262 -182q38 -74 38 -153q0 -104 -53.5 -206
t-134.5 -181q-117 -111 -248 -151q-37 -12 -76 -21.5t-80 -9.5zM386 48q17 0 33 3l9 3q122 47 230 169q59 66 102 153.5t43 180.5q0 83 -47 161q-81 120 -234 150q-34 6 -68 6q-37 0 -75 -7q-49 -18 -94 -50q-15 -8 -31 -10l-38 -9q-2 0 -17 -6q-39 -115 -44 -140
q-20 -67 -36 -135.5t-16 -137.5q0 -25 3 -50q21 -162 139 -240q62 -38 141 -41z" />
    <glyph glyph-name="u042D" unicode="&#x42d;" horiz-adv-x="1345" 
d="M403 5q-110 0 -202 41q-129 59 -194 193l-7 13q12 0 25 4t22 7q31 11 43 11q15 0 18 -9q15 -32 33 -57q69 -100 186 -138q68 -22 145 -22q99 0 173 30q191 75 321 247q111 147 150 324l-8 -1q-74 -22 -143 -25q-164 0 -309 128l-19 18q-33 35 -45 44q-27 23 -67 23
l-16 -1q-41 -19 -74 -56q-5 -7 -17 -8q-3 -2 -66 -18l-16 18q49 60 141 87l6 2q26 9 54.5 14t53.5 5q16 0 31 -2q46 -6 85 -48q130 -145 291 -161l34 -1q26 0 52 4q22 8 42 19q15 84 15 169v13q-4 367 -234 489q-52 25 -105.5 35.5t-104.5 10.5q-110 0 -184 -30
q-125 -49 -191 -137q-8 -8 -14.5 -8.5t-28.5 -7.5l-42 -9l-15 17q28 37 61 66q119 97 356 140q57 13 127 13q60 0 124 -14t125 -49q96 -59 146 -146t67 -182t17 -174q0 -369 -241 -626q-108 -112 -245 -174q-59 -24 -141 -47q-117 -34 -215 -34z" />
    <glyph glyph-name="u042E" unicode="&#x42e;" horiz-adv-x="2112" 
d="M114 5q-61 2 -94 83q-20 48 -20 106q6 142 96 275q113 163 315 234q19 61 31 108l28 100q37 132 76.5 255.5t95.5 250.5q-130 -34 -137 -37t-18 -3l-17 4v18l37 9l181 49l75 18q-19 -44 -31 -73l-9 -22q-55 -137 -98.5 -278.5t-81.5 -282.5l-23 -84q72 19 157 26
q22 0 40 8l4 2q29 18 42 45l27 82q95 235 282 358q91 59 226 102q107 32 173 48h-12q-81 0 -180 -20l-5 24l70 19q89 20 185 20q77 0 163 -20t163 -74q159 -120 188 -359q4 -37 4 -74q0 -160 -72 -329q-87 -198 -242 -347q-76 -72 -160 -123q-81 -48 -206 -81
q-100 -25 -167 -25q-130 0 -237 68q-105 72 -153.5 174t-63.5 194q-13 69 -13 141q0 79 14 151q-82 -24 -142 -28q-64 -6 -94 -14q-82 -302 -192 -546l-10 -21q-33 -88 -112 -113q-52 -18 -83 -18zM162 54q26 25 41 62q32 65 63 141q81 212 133 401q-144 -71 -232 -226
q-64 -118 -64 -221q3 -85 39 -136q13 -19 20 -21zM1273 60q51 0 91 9l8 3q30 8 90 40q157 87 282 251q98 129 149 268t51 272q0 99 -29 190q-33 101 -91 170q-99 112 -270 136l-55 -15l-85 -21q-130 -37 -219 -87q-94 -54 -168 -140q-103 -121 -153 -279l-2 -6
q-4 -12 -7 -23q-29 -107 -29 -220q0 -116 33.5 -224.5t101.5 -188.5t172 -115q63 -20 130 -20z" />
    <glyph glyph-name="u042F" unicode="&#x42f;" horiz-adv-x="1513" 
d="M231 5q-175 0 -292 133l-9 12l57 17q24 8 34 8q12 0 17 -6q38 -45 87 -74q80 -46 176 -46q31 0 63 5q22 3 30 7q82 27 171 81q202 122 357 318q50 61 76 104q-100 -58 -298 -99q-76 -16 -143 -16q-152 0 -246 71q-113 87 -113 252q0 63 12 120t27 100q45 135 133 231
q144 159 423 211q54 11 103 11q67 0 127 -19q123 -40 185 -146q29 -50 41.5 -105t12.5 -110q0 -53 -10.5 -103t-15.5 -64q12 14 20 35q3 6 21.5 10t77.5 21l-24 -67q-99 -263 -131 -449q-8 -42 -14.5 -92t-6.5 -102l1 -37q6 -108 91 -148q37 -16 79 -16q15 0 24 1t42 21
q13 6 39 11l42 11l12 -22q-78 -40 -151 -54q-48 -12 -80 -12q-30 0 -57 7q-145 43 -145 209q0 37 3 69q13 184 78 380l1 5q-88 -176 -240 -330q-208 -209 -435 -291q-151 -53 -252 -53zM626 493q53 0 149 18q87 28 159 68q66 39 125 92q54 110 79 219q8 32 13.5 73t5.5 86
q0 72 -22.5 145t-81.5 128q-89 79 -226 79q-67 0 -115 -15q-216 -79 -323 -267q-57 -104 -78 -233q-9 -49 -9 -103q0 -36 6.5 -72.5t23.5 -70.5q36 -64 90 -96t109 -41.5t89 -9.5h6z" />
    <glyph glyph-name="u0430" unicode="&#x430;" horiz-adv-x="993" 
d="M741 5q-22 0 -43 3q-58 14 -75.5 62t-21.5 92l-2 9q-72 -100 -207 -141q-12 -5 -50 -13q-50 -10 -71 -10q-85 0 -158 72q-113 117 -113 289q0 79 27 160q97 274 414 330q32 6 61 6q35 0 67 -8q122 -31 157 -127l4 -14q-17 -3 -37 -9q-43 -12 -52 -12q-17 0 -17 10
q-32 88 -144 112q-24 4 -49 4q-17 0 -36 -3h-3q-37 -14 -87 -45q-153 -104 -192 -292q-9 -43 -9 -87q0 -61 22.5 -147.5t111.5 -158.5q50 -37 102 -37l16 1q100 44 171 152q61 99 99 206q51 121 75 244q1 7 11 11t31 8l65 17l-5 -31q-14 -81 -50 -175l-15 -39
q-6 -14 -10 -28q-28 -86 -28 -170q0 -42 4 -57q3 -40 15 -81.5t46 -54.5q19 -5 43 -5q95 0 188 95l15 6l20 5q0 1 16.5 4t22.5 7h12l12 -17q-84 -86 -204 -116q-86 -27 -149 -27z" />
    <glyph glyph-name="u0431" unicode="&#x431;" horiz-adv-x="921" 
d="M288 5q-126 0 -207 105q-81 113 -81 273l1 38q26 332 358 415l65 17q-67 54 -92 163q-11 45 -11 87q0 31 7 60q27 131 164 161q49 13 100 24q70 13 151 24l78 11q94 20 120 88q5 10 23 14q42 10 65 14l15 -15q-19 -45 -56 -69.5t-72 -35.5q-29 -11 -69 -22l-37 -9l-61 -8
l-50 -5q-53 -8 -115 -20l-59 -12q-18 -8 -33 -18q-36 -27 -51.5 -70t-15.5 -91q0 -51 13 -99q21 -80 67 -125q31 -29 67 -54q32 -21 61 -47q126 -117 131 -311q0 -140 -79 -270q-48 -76 -109 -122q-78 -51 -143 -65q-23 -9 -40 -11q-48 -15 -105 -15zM355 48q20 0 40 2h4
q70 26 120 76q68 68 104.5 159.5t36.5 185.5q0 103 -47 196q-43 79 -134 144q-15 10 -25 17q-21 -7 -37 -9t-30 -5l-10 -1l-7 -3q-161 -61 -227 -209q-39 -94 -39 -198q0 -53 10 -105q5 -31 23 -79t54.5 -92.5t94.5 -66.5q33 -11 69 -12z" />
    <glyph glyph-name="u0432" unicode="&#x432;" horiz-adv-x="888" 
d="M254 5q-124 0 -189 105q-56 93 -63 244l-1 39q0 184 85 392l-33 -1l-53 2l1 23q38 10 45 14q18 7 34 7l25 -1q70 157 137 270q131 221 261 281q93 39 167 39q25 0 54.5 -7t55.5 -26q24 -18 33 -39.5t9 -44.5q0 -36 -13 -71q-27 -87 -89 -164q-170 -205 -525 -269l-7 -1
l-20 -54q-63 -177 -63 -333q0 -65 11 -127q25 -136 90 -193q47 -41 116 -41l32 2q173 68 274 272q24 50 43.5 112.5t19.5 126.5q0 160 -127 209q-40 15 -86 15q-40 -2 -61 -6q-29 -9 -45 -16q-14 -5 -29 -8q-30 -6 -51 -15l-10 25q68 27 143 45q67 18 124 18q80 0 139 -36
q105 -67 105 -210q0 -57 -17 -123q-28 -111 -94 -209q-106 -158 -261 -211q-94 -35 -167 -35zM204 834l34 4q22 3 44 8q85 24 167 72q208 122 260 310q9 29 9 57q0 10 -1 19q-14 54 -82 68q-16 3 -33 3l-18 -1q-20 -10 -42 -25q-48 -36 -87 -81.5t-67 -87.5
q-94 -138 -184 -346z" />
    <glyph glyph-name="u0433" unicode="&#x433;" horiz-adv-x="739" 
d="M300 5q-56 0 -105 16q-107 37 -162 127q-33 61 -33 123q0 35 11 68q21 62 64.5 100t86.5 57q60 27 124 44t127 30q31 7 65 27q52 37 52 102q0 39 -21 71t-56 46q-24 10 -51 10l-15 -1l-2 -1q-25 -10 -78 -42q-14 -7 -40 -12q-11 -4 -26 -8q-3 0 -13 -8l-15 26
q65 43 131 64l12 4q58 22 113 22l16 -1q66 -7 107.5 -50.5t41.5 -100.5q-2 -62 -42 -103q-50 -42 -105 -54q-96 -28 -138 -34t-74 -23q-42 -16 -85 -47t-69 -83q-17 -40 -17 -83q0 -46 19 -92q39 -86 129 -127q54 -23 117 -23q41 0 71 7l52 21q135 60 241 174q9 7 17 7l25 7
l42 10l14 -18q-80 -87 -183 -148q-92 -54 -248 -92q-53 -12 -100 -12z" />
    <glyph glyph-name="u0434" unicode="&#x434;" horiz-adv-x="987" 
d="M73 -756q-39 0 -74 25q-31 28 -40 63t-9 57q0 175 213 384q151 144 360 248q32 78 52 124q-85 -74 -171 -100l-31 -9q-25 -8 -51 -14t-57 -6q-129 1 -195 130q-34 69 -34 165q4 129 43.5 236.5t97.5 171.5q75 80 199 114q38 11 76.5 19t77.5 8q48 0 96 -17
q52 -20 91 -55.5t72 -73.5l26 -29q-15 0 -29.5 -4t-20.5 -6q-35 -12 -46 -12q-10 0 -26 18q-37 41 -75 74.5t-85 49.5q-37 12 -77 12l-46 -3q-182 -70 -247 -317q-9 -32 -16.5 -75.5t-7.5 -91.5t11 -96.5t38 -90.5q60 -83 145 -83l17 1q5 2 10 3l1 1q56 25 140 96
q85 72 138 132l42 95q30 72 77 140q6 10 21 10l82 22q-8 -134 -120 -256q-22 -51 -97 -228q107 46 266 96l50 12q9 3 28 9l8 -25q-225 -71 -374 -144q-43 -109 -74 -196q-45 -133 -111 -283q-24 -56 -58.5 -114t-86.5 -103q-61 -54 -162 -75q-28 -9 -57 -9zM142 -713
q63 33 115 104q36 51 62 106.5t47 108.5q35 85 74 197q31 85 57 153q-154 -88 -273 -215q-170 -181 -170 -335q0 -93 62 -114q13 -5 26 -5z" />
    <glyph glyph-name="u0435" unicode="&#x435;" horiz-adv-x="869" 
d="M280 5q-42 0 -86 12t-84 43q-61 53 -85.5 128t-24.5 151q0 64 13 121q30 134 115 237q45 55 99 88q73 39 150 56l25 5q29 7 56.5 11t56.5 4q98 0 161 -50q33 -27 49.5 -63.5t16.5 -78.5q0 -166 -221 -255q-90 -33 -168 -52q-94 -25 -174 -26v25l25 4q44 14 54 14
q36 1 70 7l5 1q40 5 104 31l5 2q61 25 100 55q96 77 96 176v9q-11 111 -117 147q-35 11 -77 11q-79 0 -125 -34q-89 -56 -145.5 -156.5t-67.5 -221.5l-1 -42q0 -38 8 -91t33.5 -104t74.5 -86q30 -19 62.5 -27t64.5 -8q118 0 259 120q9 6 38.5 13t44.5 11l14 -20
q-93 -80 -195 -118q-134 -49 -229 -49z" />
    <glyph glyph-name="u0436" unicode="&#x436;" horiz-adv-x="1360" 
d="M1026 5q-45 0 -86 28q-37 30 -54.5 70.5t-22.5 76.5q-5 28 -5 58q0 69 25 151q34 113 99.5 214t135.5 148q-229 -46 -280 -67l-34 -12l-5 -10q-57 -133 -85 -298q-7 -39 -12.5 -84t-5.5 -94q0 -61 13 -124v-3q0 -8 -12 -11.5t-47 -11.5l-42 -11q-16 66 -16 142
q7 185 58 354q18 63 40 113q-58 -20 -129 -57v-9q-8 -86 -29 -155q-108 -350 -415 -404q-15 -2 -27 -2q-48 0 -72 31q-18 28 -18 60q0 22 6.5 45.5t15.5 42.5q33 75 91.5 134.5t124.5 111.5q99 81 221 141l2 39l-2 39q-7 110 -64 142q-29 17 -82 19l-28 -1q-66 -28 -94 -77
l-17 -8l-19 -5q-35 -9 -49 -13l-16 17q39 68 140 100l4 1q70 25 145 30q24 0 55.5 -6t59.5 -25q50 -35 64 -112q6 -35 6 -92q57 26 143 52q31 71 72 139q5 8 16 10l3 1l25 6l22 6q2 3 21 3l14 -16q-35 -59 -61 -115q170 49 459 104l16 3l4 -25l-35 -10q-20 -7 -43 -21
q-75 -49 -142 -155q-85 -136 -109 -275q-6 -32 -6 -72q0 -34 7 -70t26 -70q16 -35 58 -60q19 -8 39 -9q6 0 16 2h2q114 42 207 120q9 6 22 9.5t29 7t31 7.5l15 -21q-34 -29 -79 -57q-99 -60 -199 -89l-30 -8q-19 -5 -38.5 -9t-42.5 -4zM160 50q101 40 186 172
q90 137 108 297q-106 -66 -209 -162q-36 -33 -72 -77.5t-57 -102.5q-11 -29 -11 -60q0 -25 10 -43.5t27 -22.5z" />
    <glyph glyph-name="u0437" unicode="&#x437;" horiz-adv-x="804" 
d="M-15 -748q-23 0 -45 7t-40 24q-39 37 -40 116q0 58 18 130q47 191 171 337q69 79 154 132q82 49 183 86l2 45l-2 43q-9 112 -66 155q-33 25 -93 27q-30 0 -66 -6q-80 -20 -103 -20l-4 22q25 7 31 10q33 11 109 25l39 11q154 49 235.5 111.5t90.5 133.5l1 18
q0 48 -28.5 88.5t-74.5 58.5q-35 13 -74 13q-25 0 -27.5 -1t-4.5 -1q-50 -26 -70 -59q-9 -9 -33 -13l-53 -14l-16 17q26 39 63 59t76 30q29 10 49 13q48 12 89 12q44 0 82 -14q59 -23 92.5 -70t33.5 -101q0 -108 -141 -195q-86 -53 -188 -84q5 0 43.5 -15.5t67.5 -52.5
q28 -40 37 -86.5t9 -89.5l-1 -30q122 43 259 89l78 21l8 -25q-212 -69 -347 -121q-9 -112 -37 -219.5t-60 -195.5q-24 -72 -56 -147.5t-83 -142.5q-37 -47 -78 -75q-51 -31 -106 -42q-40 -14 -84 -14zM63 -704l15 8q86 56 151 200q40 90 79 213q61 188 75 327
q-173 -76 -284 -236q-99 -144 -128 -311q-7 -43 -7 -77q0 -124 89 -124h10z" />
    <glyph glyph-name="u0438" unicode="&#x438;" horiz-adv-x="953" 
d="M757 5q-64 0 -121 35q-96 60 -111 179q-84 -155 -212 -190l-51 -14q-35 -8 -56 -9q-53 0 -99 27t-73 72q-20 37 -27 77.5t-7 79.5q0 27 2 52q18 171 163 453q22 47 27 51l-44 -11q-53 -10 -143 -15l-1 24q16 2 25 6q45 14 53 14q61 2 107 10l14 3l5 2q35 11 70 13
q14 0 22 -5l2 -2q3 -2 3 -5l1 -2q0 -4 -4 -7q-6 -14 -13 -25l-3 -4q-104 -193 -151 -349q-27 -84 -30 -145l-1 -38q0 -37 6.5 -77t26.5 -74q53 -80 134 -80h4q19 10 39 26q132 107 221 391q14 56 32 112l11 37q23 95 69 193q5 9 23 12.5t58 14.5l22 -13l-2 -3
q-41 -92 -87 -261l-20 -69q-21 -82 -21 -148v-24q2 -62 21.5 -126.5t76.5 -108.5q49 -35 113 -35q52 23 113 63q31 21 46 30q13 5 39 10q28 7 41 14l12 -24l-32 -21l-31 -20q-89 -58 -173 -79l-20 -6q-35 -11 -69 -11z" />
    <glyph glyph-name="u0439" unicode="&#x439;" horiz-adv-x="948" 
d="M757 5q-64 0 -121 35q-96 60 -111 179q-82 -152 -205 -188l-6 -2l-52 -14q-32 -8 -56 -9q-53 0 -99 27t-73 72q-20 37 -27 77.5t-7 79.5q0 105 36 204q57 174 153 348l4 5l-4 -1q-89 -25 -184 -25l-2 24q11 0 49 12q13 6 52 8q49 3 85 9q11 2 13 3t7 2q33 11 69 13
q16 0 28 -14l-3 -7l-17 -29q-104 -193 -151 -349q-27 -84 -30 -145l-1 -38q0 -37 6.5 -77t26.5 -74q23 -38 59.5 -59t76.5 -21h2q17 7 34 21l5 5q132 107 221 391q14 57 32 111l9 33q24 98 71 198q5 9 70 25l17 3l15 -17q-43 -95 -87 -258l-21 -72q-21 -82 -21 -148v-24
q2 -62 21.5 -126.5t76.5 -108.5q49 -35 113 -35q60 27 113 63l46 29q13 6 39 11q27 7 42 14l11 -24q-20 -12 -62 -41q-87 -57 -174 -79l-20 -6q-35 -11 -69 -11zM474 1034h-7q-77 0 -111 55q-9 17 -9 34q0 40 47 80q11 6 84 22q6 -12 7 -12.5t6 -6.5q-41 -33 -41 -64l1 -10
q6 -23 22.5 -35.5t33.5 -15.5q13 -4 28 -4q44 2 93 55q7 6 43 14q21 5 42 8l14 -16q-47 -50 -109 -72q-37 -11 -72 -20q-35 -12 -72 -12z" />
    <glyph glyph-name="u043A" unicode="&#x43a;" horiz-adv-x="955" 
d="M20 -7l-20 15q29 73 108 258q27 62 61 146q-34 6 -56 27q-22 16 -22 37q0 6 3 13q15 20 40 27q20 7 82 12l31 84q40 101 61 190q3 8 5 20q-12 -1 -150 -21l-3 24q22 5 39 11t37 9l142 20q34 0 36 -32q0 -17 -6 -34q-26 -95 -61 -184l-38 -96q64 -15 106 -49q63 27 122 81
q122 112 179 301q2 7 20 12q24 7 49 12l39 8q-24 -90 -80.5 -190.5t-157.5 -177.5q-64 -47 -141 -70q42 -39 76 -91.5t63 -108.5q18 -33 37 -64q77 -130 178 -130h9q39 0 105 42q10 6 83 22q8 -16 11 -21l-7 -4q-47 -31 -107 -49q-88 -31 -157 -34q-108 0 -187 104
q-29 38 -69 114q-71 137 -139 192q-44 -10 -77 -12q-15 -38 -69 -163q-58 -135 -92 -222q-4 -9 -18 -11l-2 -1q-46 -9 -63 -16zM191 461l9 28l-21 3q2 -24 12 -31zM282 438q15 1 27 9q-12 8 -23 16q-4 -10 -8 -25h4z" />
    <glyph glyph-name="u043B" unicode="&#x43b;" horiz-adv-x="981" 
d="M64 5q-40 0 -72 16q-41 29 -55 55t-17 33q79 25 90 25q13 0 17 -8q21 -45 58 -68q20 -9 53 -9q44 22 82 61t69 81q71 98 121 199q28 55 120 225q55 98 104 222q3 10 45 19l64 16q-26 -78 -34 -155l-19 -145q-9 -64 -15 -131.5t-6 -134.5q0 -88 25 -151q32 -75 90 -94
q18 -4 48 -4q33 16 66 40l14 10q4 4 43 14l41 12l13 -21q-56 -47 -125 -72q-65 -27 -131 -27l-20 1q-78 12 -113.5 66t-45 115.5t-9.5 90.5q0 74 7 147.5t10 100.5l-100 -189q-72 -132 -145 -209q-38 -45 -100 -83q-26 -15 -59 -25l-30 -8q-53 -15 -84 -15z" />
    <glyph glyph-name="u043C" unicode="&#x43c;" horiz-adv-x="1259" 
d="M28 5q-38 0 -69 23q-49 39 -59 98v2q0 14 48 21l54 13q9 -69 54 -101q17 -11 29 -12q39 23 74 61t63 74q78 105 130 208l59 112q89 158 166 343q5 9 112 34q-27 -68 -41 -145l-4 -18q-6 -22 -10 -41t-17 -73q-34 -131 -34 -216q0 -128 41 -133q104 48 203 264l29 56
q80 136 117 261q4 8 21 12l32 8l56 15l-5 -21q-125 -451 -144 -623q-5 -43 -5 -60q0 -78 52 -103q19 -10 45 -10q18 2 20 2q66 23 169 85q13 7 27 10l32 6q7 1 23 6l12 -21q-129 -77 -227 -105q-6 -3 -18 -5q-10 -5 -23 -6q-40 -15 -85 -15q-84 0 -117 71q-14 36 -14 71
q6 113 36 240q-4 -8 -68 -80q-52 -52 -111 -75q-83 -27 -115 -27q-33 0 -55 22q-25 31 -27 70q-4 29 -4 60q1 79 5 96q-14 -27 -60 -109q-65 -119 -149 -213q-69 -84 -155 -113l-19 -7q-19 -6 -36.5 -9t-37.5 -3z" />
    <glyph glyph-name="u043D" unicode="&#x43d;" horiz-adv-x="1144" 
d="M15 4l-15 16q103 204 243 606q71 203 72 206l-170 -13l-2 27q14 0 21 2l27 9q14 6 30 6l153 12l19 2q27 0 27 -20q0 -7 -2 -13q-4 -8 -7 -16l-1 -5q-95 -271 -131 -369l51 14q65 17 144 18q45 1 148 1q67 162 148 294q12 19 32.5 39t52.5 31q35 15 56 15q13 4 31 4
q27 0 55 -18q38 -35 38 -92q-1 -56 -50 -122q-92 -118 -202 -156q-43 -13 -74 -21q-25 -65 -40 -126q-9 -34 -16 -69.5t-7 -71.5q0 -101 55 -131q15 -7 33.5 -9.5t38.5 -2.5h22q20 0 29 4q69 29 155 97q8 5 38 12t44 10l14 -20l-60 -43q-69 -48 -126 -67q-37 -13 -76 -23
q-43 -12 -108 -15q-22 0 -45 3.5t-45 13.5q-73 39 -73 154q0 40 8 81t20 80q15 54 35 107q-45 -2 -103 -2h-61q-45 0 -90 -4q-46 -3 -77 -22q-7 -5 -11 -6q-71 -198 -161 -380q-7 -11 -87 -27zM721 493q95 41 170 146q14 21 27 51t13 60q0 36 -26 65q-7 7 -8 7
q-25 -25 -44 -63q-80 -136 -132 -266z" />
    <glyph glyph-name="u043E" unicode="&#x43e;" horiz-adv-x="935" 
d="M305 5q-99 0 -178 56q-107 82 -125 247q-2 22 -2 45q0 100 37 199q49 122 141 193q40 21 63 35l87 43l-86 -21l-16 -4l-4 13q42 13 81 23q47 14 97 25.5t102 11.5q61 0 121 -24q123 -58 166 -206q13 -51 13 -105q0 -96 -39.5 -194.5t-114.5 -181.5q-50 -55 -106 -89
q-61 -33 -141 -52q-47 -14 -96 -14zM371 48q33 0 50 8q96 46 172 154q106 156 106 307q0 66 -21 127q-44 118 -143 164q-37 15 -80 18q-38 -11 -78 -25q-207 -78 -259 -313q-13 -57 -13 -116q0 -91 35 -171.5t112 -122.5q56 -29 119 -30z" />
    <glyph glyph-name="u043F" unicode="&#x43f;" horiz-adv-x="1047" 
d="M15 -6l-15 15v2q21 44 37 90q120 303 185 471q73 196 99 254l-136 -27l-5 26q15 2 33.5 8t215.5 46q-17 -67 -39 -119l-10 -27q103 63 217 99.5t166 36.5q44 0 65 -22t27.5 -49.5t7.5 -49.5l1 -20q0 -45 -8.5 -86t-19.5 -76q-9 -27 -66 -184q-35 -88 -53 -177
q-6 -32 -6 -62t10 -53t34 -32q14 -5 33 -5q13 0 27 2q19 6 54 26q40 21 77 45q18 13 60 24t57 16l7 -25q-24 -8 -42 -22l-4 -2q-5 -4 -10 -6q-103 -63 -189 -83l-29 -7q-31 -12 -74 -12l-15 1q-100 10 -100 109q0 21 3 41q12 92 45 174l30 81q28 68 50 138t25 142v12
q0 101 -42 115q-13 4 -25 4l-20 -2l-13 -3q-141 -47 -310 -166q-55 -148 -138 -359q-97 -247 -110 -274q-6 -12 -87 -28z" />
    <glyph glyph-name="u0440" unicode="&#x440;" horiz-adv-x="971" 
d="M-152 -554l-19 13q105 371 329 1028l95 269l19 44q-37 -12 -112 -27l-5 24l72 20l16 5l50 21l26 7q12 3 74 14l-21 -50l-19 -53q52 34 183 75q72 21 111 21q131 0 177 -164q17 -62 17 -131q0 -125 -57 -262q-76 -174 -185 -238q-40 -21 -84 -31l-38 -10q-35 -10 -75 -10
q-31 0 -63 9q-81 25 -123 102l8 15q71 21 78 21q14 0 16 -9q36 -68 105 -88q24 -7 49 -7l18 1q73 32 133 125q52 80 82 172q32 100 32 193q0 77 -22 144q-44 124 -135 124q-14 0 -29 -2l-12 -5q-54 -19 -110 -57q-75 -48 -118 -105q-236 -676 -379 -1169q-2 -11 -49 -21z
" />
    <glyph glyph-name="u0441" unicode="&#x441;" horiz-adv-x="863" 
d="M314 5q-26 0 -51 4q-101 22 -172 101.5t-87 184.5q-4 29 -4 61q0 70 19 144q52 193 210 291q76 47 202 72q33 6 65 6q84 0 153 -41q83 -57 95 -167q0 -16 -104 -34l1 8q0 3 -5 22.5t-16 46t-28 51t-39 39.5q-54 31 -132 31q-18 0 -35 -2q-140 -55 -220 -198
q-62 -116 -62 -256q0 -48 10 -88q22 -87 84.5 -149.5t142.5 -78.5q20 -5 42 -5q51 0 77 16l15 8q96 46 171 100q20 17 93 28l11 -21l-30 -19q-95 -66 -201 -110q-123 -45 -205 -45z" />
    <glyph glyph-name="u0442" unicode="&#x442;" horiz-adv-x="1413" 
d="M575 -5l-10 2q-51 48 -51 141q4 86 38 174q18 50 37 98q24 47 57 160q20 69 20 133q0 32 -5.5 63t-23.5 49q-7 6 -17 8t-20 2q-36 0 -49 -7l-12 -4q-92 -33 -156 -72q-88 -242 -243 -627l-9 -23q-28 -77 -42 -80.5t-74 -16.5l-15 16q21 45 37 91q120 303 185 471
q73 196 99 254l-136 -27l-5 26q19 3 36 8.5t213 45.5q-10 -42 -21 -70l-4 -10q33 14 92 31q110 38 173 38q27 0 51 -11q30 -18 39.5 -52t9.5 -57q99 51 185 79q113 37 165 37q44 0 65 -22t27.5 -49.5t7.5 -49.5l1 -20q0 -45 -8.5 -86t-19.5 -75q-10 -32 -66 -185
q-34 -87 -53 -177q-7 -32 -7 -62t10.5 -53t33.5 -32q16 -5 37 -5q12 0 23 2l6 2q5 1 8 4q44 17 103 56q37 22 53 28l79 20l7 -24q-23 -8 -42 -21l-14 -8q-102 -63 -188 -84q-18 -3 -34 -8q-29 -11 -70 -11l-15 1q-100 10 -100 110q0 20 2 40q13 92 46 174l30 82
q27 67 49 137t26 142v16q0 97 -42 111q-13 4 -25 4l-20 -2l-13 -3l-13 -5q-137 -51 -235 -118q-6 -102 -74 -267l-2 -5q-23 -55 -42 -111q-24 -64 -32 -142v-12q0 -86 41 -124q-13 -19 -14 -20l-28 -9q-34 -9 -42 -9z" />
    <glyph glyph-name="u0443" unicode="&#x443;" horiz-adv-x="970" 
d="M120 -732q-70 0 -104 73q-16 39 -16 93q0 164 114 303q54 63 115 109t114 78q78 47 152 84l52 159q-81 -46 -210 -84q-24 -6 -47 -11t-49 -5q-86 0 -143 75q-63 92 -63 217q0 20 2 42q8 75 30 142t47 120q11 25 23 51l32 64l18 35l-69 -22l-50 -13q-9 -1 -29 -9l-6 27
l218 63q4 3 15 3l26 8l9 -22q-6 -5 -16 -25q-17 -40 -36 -80q-110 -214 -110 -371q0 -105 50 -186q9 -16 26.5 -34.5t42.5 -30.5q22 -10 48 -11l21 1q118 48 228 113l15 7l34 95q91 250 143 497q0 11 107 32l-24 -106q-48 -205 -146 -474q-21 -55 -74 -216q17 7 50 19
q204 71 367 82l1 -23q-15 -3 -20 -5l-6 -2q-43 -13 -51 -14q-73 -5 -133 -19q-20 -6 -39 -12q-80 -23 -185 -74l-95 -311q-19 -65 -42.5 -129.5t-57.5 -123.5q-40 -66 -91 -108q-60 -47 -137 -63l-13 -3q-15 -5 -38 -5zM177 -688q23 13 45 33q51 48 82.5 105.5t48.5 104.5
q27 75 71 219l53 176q-83 -45 -158 -105q-215 -168 -215 -385q0 -26 4 -52q1 -20 13.5 -49.5t43.5 -43.5q5 -3 12 -3z" />
    <glyph glyph-name="u0444" unicode="&#x444;" horiz-adv-x="1246" 
d="M221 -544l7 22q52 184 103 341l71 219q-1 0 -24 -5l-5 -2q-4 -2 -40 -11l-11 -3q-30 -8 -63 -9q-48 0 -95 22q-54 28 -86.5 73t-47.5 87q-30 76 -30 163q7 203 132 331q62 61 141 88q36 13 87 26t105 13q85 0 155 -40q23 -13 25 -15l29 62q-40 -12 -86 -21l-5 24
q45 14 47 14l7 2q10 3 54 22q13 7 30 9q4 0 9 2t63 13l-55 -140q6 3 68 18q29 9 57.5 15.5t61.5 6.5q24 0 49 -5q71 -17 105.5 -65t46.5 -100.5t13 -88.5l1 -21q0 -167 -120 -335q-66 -92 -146 -123q-18 -7 -37 -12q-4 -4 -44 -12q-42 -10 -69 -10q-21 0 -42 4
q-104 24 -150 123q-107 -322 -201 -647q-4 -9 -18 -12q-63 -14 -92 -23zM329 51h2q45 20 102 86q86 257 171 503q-1 4 -4 8q-5 16 -21.5 40.5t-53.5 46.5q-55 32 -128 32q-36 0 -51 -3l-3 -1q-89 -35 -149 -115q-90 -123 -90 -275q0 -98 36 -176q68 -146 189 -146zM796 54h5
q79 36 151 154q31 50 57.5 121.5t26.5 157.5q0 21 -2 42q-3 55 -31.5 119t-100.5 86q-20 5 -44 5t-40 -4q-78 -28 -112 -83q-59 -172 -129 -379l1 -1q14 -73 62 -136t125 -79q15 -3 31 -3z" />
    <glyph glyph-name="u0445" unicode="&#x445;" horiz-adv-x="1020" 
d="M15 -6l-15 17q130 210 381 467l-10 50q-12 57 -27 113q-17 74 -51 137q-26 41 -49 46q-38 -28 -57 -80q-4 -11 -39.5 -18.5t-69.5 -17.5q37 122 140 146l38 10q19 6 38 7q40 0 75 -33q27 -29 42 -65.5t24 -67.5q23 -74 35 -138q138 135 311 291q7 6 13.5 6.5t17.5 4.5
l53 13l14 -20l-39 -35q-194 -176 -354 -338l18 -80q11 -58 26 -124q13 -60 39.5 -116t76.5 -88q46 -26 97 -26l20 1q40 17 74 55q8 6 17 7l2 1q2 0 10 2l15 4q22 5 22.5 6.5t19.5 1.5l14 -17q-59 -62 -140 -81l-40 -11q-40 -12 -86 -12q-174 0 -236 217q-13 49 -31 143
l-6 25q-190 -204 -296 -377q-8 -7 -87 -26z" />
    <glyph glyph-name="u0446" unicode="&#x446;" horiz-adv-x="1050" 
d="M688 -407q-38 0 -60 32t-30 68q-6 24 -6 46q0 44 20 84q27 48 72.5 76t92.5 48l69 31q20 8 41 18l7 31q-7 -3 -64 -18q-41 -11 -71 -11q-63 0 -115.5 31.5t-83.5 84.5q-29 48 -35 98q-33 -60 -88 -115q-63 -61 -113.5 -74.5t-66.5 -16.5t-53 -6q-52 0 -97.5 27t-71.5 72
q-21 37 -28 77.5t-7 78.5q0 27 2 52q18 169 163 454q24 46 29 52l-5 -1q-90 -26 -184 -26l-1 25q15 0 20 2l6 2q42 13 52 15q62 3 108 10h2l18 4q31 11 68 13q16 0 21 -4l7 -6q0 -8 -4 -11q-3 -9 -10 -19l-34 -63q-143 -286 -153 -440l-1 -39q0 -37 7 -76.5t26 -73.5
q23 -39 59.5 -60t76.5 -21h3q17 7 32 21l6 5q133 107 221 392q10 39 39 137q10 29 17 54q19 71 56 151q7 9 34.5 15.5t52.5 11.5l15 -16q-36 -77 -58 -160l-1 -4q-19 -59 -19 -62q-5 -28 -31 -107q-21 -82 -21 -142q0 -30 4 -64q22 -207 180 -232q12 -2 24 -2l14 1
q7 2 40 22q26 20 39 22l65 16l19 -17q-1 -25 -6 -44q105 43 131 47q17 3 41 13l10 -25l-9 -4q-90 -34 -183 -72q-11 -45 -23 -73q-9 -22 -15 -44q-69 -201 -157 -262q-15 -7 -50 -17q-43 -12 -55 -12zM731 -350l4 4q73 79 138 295l-39 -18q-57 -24 -99 -67q-40 -47 -40 -107
l1 -15q2 -26 14 -55.5t21 -36.5z" />
    <glyph glyph-name="u0447" unicode="&#x447;" horiz-adv-x="907" 
d="M381 5q-70 0 -123.5 33t-79.5 90q-22 58 -22 115q0 120 62 240q35 58 76 100q34 36 58 59q-7 -2 -43.5 -10t-72.5 -8q-149 0 -165 172q-5 -1 -8 -1l-51 -13l-12 21q40 27 73 59q8 7 100 30l-1 -43q0 -66 21 -112q34 -69 109 -69q35 2 55 6q12 6 26 11t31 14q40 30 83 59
l60 40l68 47l38 12l98 25l-22 -19q-146 -124 -233 -164q-62 -53 -116 -115l-9 -8q-36 -40 -61.5 -84.5t-43.5 -113.5q-17 -62 -17 -115q0 -58 20 -105q21 -53 66 -81.5t102 -28.5q21 0 40 3q107 41 209 133q10 5 83 22l14 -18q-85 -76 -170 -118q-58 -28 -121 -44
q-68 -21 -121 -21z" />
    <glyph glyph-name="u0448" unicode="&#x448;" horiz-adv-x="1401" 
d="M1208 5q-64 0 -121 35q-95 60 -111 179q-89 -167 -231 -195l-12 -4q-26 -11 -71 -13q-55 0 -97 34.5t-62 76.5q-21 41 -23 67q-50 -86 -137 -136q-56 -27 -124 -40q-15 -3 -30 -3q-53 0 -92.5 29.5t-60.5 65.5q-21 37 -28.5 78t-7.5 81l2 49q16 170 163 457l27 52l-3 -1
q-67 -20 -184 -26l-2 24q13 2 49 13q13 6 49 8t94 10q6 3 14 4q31 10 68 13q15 0 27 -8l-3 -15q-3 -9 -11 -19q-13 -22 -34 -64q-144 -284 -151 -442l-1 -38q0 -37 7 -77t29 -75q25 -40 64 -62q25 -13 44 -13q70 36 125 119q93 146 122 246l15 49l2 5q50 153 152 344l3 4
l1 2q-4 -1 -46 -12q-52 -10 -142 -15l-1 24q15 2 26 6l22 7q14 7 30 7q91 3 129 16q30 10 67 12q26 0 27 -12q0 -8 -3 -10q-3 -8 -9 -17q-14 -21 -34 -63q-83 -163 -124 -293q-32 -91 -32 -191q0 -34 6 -69.5t22 -67.5q19 -36 51.5 -63t68.5 -27l4 1q57 34 106 100
q88 119 151 316q12 50 27 98l22 73q20 82 61 171q6 10 88 28l15 -17q-41 -89 -65 -184l-18 -63q-10 -35 -26 -83q-21 -82 -21 -148l1 -24q2 -62 22 -126.5t76 -108.5q49 -35 113 -35q51 23 113 63q8 4 15 10l31 20q13 5 39 11t40 13l13 -23q-16 -11 -29 -20l-18 -12
q-96 -67 -188 -89l-23 -6q-32 -11 -67 -11z" />
    <glyph glyph-name="u0449" unicode="&#x449;" horiz-adv-x="1526" 
d="M1143 -397q-38 0 -60.5 31.5t-30.5 68.5q-6 23 -6 46q0 44 20 84q28 47 72.5 75.5t92.5 48.5l111 49q6 20 7 30q-9 -3 -38 -10q-17 -4 -26 -7q-42 -11 -73 -11q-61 0 -113.5 31t-84.5 85q-28 48 -34 95q-89 -168 -231 -201l-23 -6q-30 -10 -62 -12q-56 0 -98 34.5
t-63 76.5q-20 42 -23 68q-15 -26 -49 -63q-79 -91 -212 -113h-1q-15 -3 -30 -3q-52 0 -91 29.5t-60 64.5q-22 37 -29.5 79t-7.5 81q5 120 35 202q43 137 130 304l3 6q9 19 20 39l4 7l-1 -1q-93 -24 -186 -26l-1 25q16 0 25 5l15 5q4 0 7 2q17 6 30 7q75 4 111 11l17 4
q41 12 66 12q17 0 30 -8l-3 -13q-3 -9 -10 -19t-35 -65q-145 -289 -152 -442l-1 -38q0 -38 7.5 -78t28.5 -75q25 -38 63 -60q23 -13 46 -15q69 37 125 120q96 149 123 253q9 26 9 30l1 2q43 134 134 315q12 24 24 44l3 6l-45 -12q-70 -15 -142 -15l-2 25q15 0 29.5 5t17.5 7
q17 6 31 7q72 3 107 10h6q35 14 84 17q17 0 21.5 -4.5t5.5 -8.5l-4 -8l-16 -28q-12 -22 -27 -52q-82 -163 -123 -294q-32 -89 -32 -191q0 -34 6 -69.5t21 -67.5q19 -36 51.5 -62t68.5 -28q62 36 109 102q92 122 155 327q17 68 55 186q19 76 56 154q7 10 87 28l16 -17
q-37 -79 -60 -163l-22 -70q1 0 1 -3l-1 -1l-27 -94q-21 -82 -21 -149q0 -28 3 -58q25 -208 180 -232q11 -2 23 -2l15 1q13 4 37 20q16 16 55 27l49 12l22 -10q-1 -29 -5 -50l6 3q102 40 120.5 43.5t45.5 12.5l9 -24l-10 -4l-181 -73q-84 -298 -195 -378q-24 -13 -32.5 -13.5
t-11.5 -2t-9 -2.5q-41 -11 -52 -11zM1186 -341l4 4q50 58 89 159q35 88 49 137l-41 -19q-55 -24 -98 -66q-39 -47 -39 -107l1 -15q2 -26 13 -55.5t22 -37.5z" />
    <glyph glyph-name="u044A" unicode="&#x44a;" horiz-adv-x="825" 
d="M238 431q-1 -7 -2 -15q-3 -27 -3 -64q0 -52 12.5 -113.5t50.5 -117.5q18 -27 48.5 -50t72.5 -23q7 0 19 10q42 30 69 66q62 80 84 175q8 30 8 65q0 27 -7.5 53.5t-25.5 48.5q-44 47 -115 47q-18 -1 -20 -1q-36 -13 -105 -63q-12 -8 -27 -10l-14 -3q-28 -7 -28.5 -7
t-12.5 -4zM242 456q59 39 100 59q53 23 127 37q22 5 47 5q38 0 77.5 -14t68.5 -46q38 -44 38 -114q0 -39 -11 -84q-30 -110 -106 -194q-54 -58 -124 -78l-32 -8q-42 -14 -76 -14q-84 0 -148 77q-74 102 -74 250q0 39 5 80q17 112 59 215t82 180q-3 0 -34 -2q-44 0 -75 23
l-3 -2q-5 -5 -22 -14q-58 -35 -78 -37l-28 -6q-6 -1 -21 -9l-14 24l146 81l39 11q16 6 33 9q24 0 37 -17q18 -16 44 -19q20 7 81 25l16 -17q-54 -105 -99 -214q-37 -91 -55 -187z" />
    <glyph glyph-name="u044B" unicode="&#x44b;" horiz-adv-x="1165" 
d="M904 795l-11 -21q21 2 33 15q3 6 4 12l-1 8q-1 4 -3 8l-10 2zM228 484l114 30q-3 1 -23 1l-20 -1q-28 -7 -39 -13l-3 -1q-19 -10 -29 -16zM110 432l-2 -14q-4 -29 -4 -68q0 -51 13 -111.5t50 -115.5q18 -27 49 -50t73 -23h2q47 26 85 76q63 80 85 174q7 31 7 65
q0 28 -7.5 54.5t-25.5 47.5q-19 22 -44 33l-123 -34q-142 -37 -156 -37zM114 458q49 35 99 58q53 24 128 37q24 6 47 6q38 0 67 -10q70 22 128 43l10 4q38 14 79.5 32t78.5 42l13 8q37 84 79 164q1 14 21 15q5 2 27 8t44.5 11t26.5 5l13 -1q14 0 20.5 -17t6.5 -33
q0 -30 -22 -59q-42 -51 -102 -80l-14 -8q-35 -80 -54 -150q-9 -33 -17 -80t-8 -100q0 -51 10.5 -103.5t36.5 -102.5q53 -98 143 -98q16 0 21 1q62 30 112 79q8 5 14 5l54 15q4 0 15 6l15 -22q-65 -63 -151 -97q-90 -31 -147 -31l-21 1q-87 12 -129.5 71.5t-58.5 124.5
t-17 101l-1 38q0 130 58 275q-91 -39 -243 -86q75 -37 75 -145q0 -39 -11 -85q-30 -110 -105 -194q-61 -63 -131 -79q-1 0 -15 -4l-10 -3q-51 -13 -78 -13q-83 0 -147 77q-74 101 -74 247q0 39 6 82q17 116 61.5 223.5t94.5 203.5q3 14 89 35l16 -17q-54 -105 -99 -214
q-38 -90 -54 -186z" />
    <glyph glyph-name="u044C" unicode="&#x44c;" horiz-adv-x="696" 
d="M110 434l-2 -18q-4 -28 -4 -65q0 -52 13 -113.5t50 -116.5q18 -27 48.5 -50t72.5 -23h3q40 19 86 76q61 80 83 175q8 30 8 65q0 27 -7.5 53.5t-25.5 48.5q-44 47 -115 47q-38 -1 -125 -64q-12 -7 -41.5 -13.5t-37.5 -8.5zM114 456q59 39 98 59q54 23 129 37q21 4 45 4
q38 0 78 -13t69 -46q38 -45 38 -114q0 -38 -12 -84q-30 -111 -105 -194q-41 -44 -87 -65q-25 -11 -68 -21q-44 -14 -78 -14q-84 0 -146 77q-75 101 -75 248q0 40 6 82q17 117 62.5 226.5t96.5 206.5q3 8 49 19q18 4 37 10l15 -17q-54 -105 -99 -214q-37 -90 -53 -187z" />
    <glyph glyph-name="u044D" unicode="&#x44d;" horiz-adv-x="841" 
d="M251 -5q-87 0 -165 65q-79 71 -86 169q0 8 9 11.5t95 24.5q0 -104 80 -174q65 -53 138 -53l14 1q48 22 94 67q100 97 147 237q-13 -5 -41 -5q-35 0 -66 10.5t-53 23.5q-39 23 -69 53l-27 24q-30 24 -58 24q-4 0 -23 -4t-34 -12l-14 24q34 17 66 23q55 13 73 13h6
q36 -3 61.5 -21.5t47.5 -40.5q45 -43 96 -61q35 -12 45 -12q19 70 19 144q0 25 -2 49q-19 176 -145 224q-49 18 -103 18q-26 -1 -50 -4q-38 -15 -74 -41q-8 -7 -82 -24l-8 24q41 31 92 48.5t105 29.5q44 10 86 10q56 0 107 -17q90 -29 132 -104.5t45 -195.5
q0 -180 -108 -344q-99 -143 -222 -178l-28 -8q-52 -18 -100 -18z" />
    <glyph glyph-name="u044E" unicode="&#x44e;" horiz-adv-x="1377" 
d="M95 -5q-46 2 -70 45q-15 26 -20 54t-5 52q0 126 98 192q93 54 194 77l29 75q39 96 77 216q11 29 18.5 59t7.5 59v2l-60 -16q-18 -5 -39 -5l-18 1l1 23q48 12 99 20q88 24 95 24q27 0 27 -23l-1 -8q0 -35 -9 -68.5t-20 -63.5l-5 -13q-36 -112 -77 -214l-16 -42q32 6 70 10
q8 47 26 94q47 125 141 196q59 35 83 49q24 12 37 16l24 7l-1 2l-22 -4l-18 -5l-27 -9l-10 -3l-15 -5l-7 19l81 24q47 14 97.5 25t101.5 11q63 0 126 -25q114 -55 159 -191q16 -53 16 -114q0 -67 -20 -140q-36 -133 -125 -233q-45 -51 -101 -88q-64 -38 -139 -55l-10 -3
q-47 -14 -97 -14q-92 0 -170 51q-67 47 -102.5 124t-35.5 173q0 31 3 59q-39 0 -79 -6q-60 -153 -69 -190q-23 -65 -40 -103q-17 -46 -63 -83q-21 -13 -46 -19l-8 -2q-20 -6 -28 -8t-9 -2q-14 -4 -29 -4zM142 46q31 27 73 158q26 81 64 176q-76 -28 -114 -61
q-61 -59 -61 -153q0 -36 10.5 -74t27.5 -46zM838 48q35 0 56 12q61 32 103.5 75.5t66.5 80.5q39 57 67 136t28 164q0 69 -24 135q-65 160 -218 173q-4 -2 -11 -3l-33 -10l-38 -13q-108 -41 -171 -123.5t-86 -193.5q-11 -52 -11 -107q0 -60 15.5 -118.5t50.5 -105.5t92 -76
q54 -25 113 -26z" />
    <glyph glyph-name="u044F" unicode="&#x44f;" horiz-adv-x="1092" 
d="M872 -5q-115 0 -146 101q-17 64 -18 130q0 40 1 52l-8 -8l-8 -11q-103 -131 -220 -191q-66 -31 -133 -47q-27 -7 -58.5 -13.5t-65.5 -6.5q-140 1 -214 119l-7 12q22 5 45 11q36 12 47 12q13 0 16 -8q14 -25 33 -43q60 -59 150 -59q41 2 55 5q72 30 129 75q90 76 136 143
q-46 -17 -113 -17q-172 8 -225 160q-10 35 -10 73q0 98 64 201q78 119 235 162q30 9 68 17t77 8q42 0 80.5 -15t64.5 -55q18 -29 25.5 -61.5t7.5 -64.5q0 -44 -9.5 -84t-20.5 -69q-21 -58 -54 -113l47 5l-16 -73q-14 -64 -14 -109q2 -83 25 -139q28 -52 105 -56l17 1
q31 13 66 31q12 6 38 11q28 6 41 14l12 -25q-87 -48 -183 -67q-27 -8 -62 -8zM552 294q19 0 39 2l5 3q24 9 51 27q32 46 65.5 106.5t51.5 130.5q12 41 12 96q0 34 -9 68.5t-33 62.5q-32 36 -109 38q-21 0 -42 -3q-129 -56 -189 -184q-32 -73 -32 -139q0 -53 21 -98
q54 -100 169 -110z" />
    <glyph glyph-name="u0451" unicode="&#x451;" horiz-adv-x="892" 
d="M280 5q-42 0 -86 12t-84 43q-61 53 -85.5 128t-24.5 151q0 64 13 121q30 134 115 237q45 55 99 88q73 39 150 56l25 5q29 7 56.5 11t56.5 4q98 0 161 -50q33 -27 49.5 -63.5t16.5 -78.5q0 -166 -221 -255q-90 -33 -168 -52q-94 -25 -174 -26v25q16 0 25 4q44 14 54 14
q36 1 70 7l5 1q41 5 106 32l3 1q61 25 100 55q96 77 96 176v9q-11 111 -117 147q-35 11 -77 11q-79 0 -125 -34q-89 -56 -145.5 -156.5t-67.5 -221.5l-1 -42q0 -38 8 -91t33.5 -104t74.5 -86q30 -19 62.5 -27t64.5 -8q118 0 259 120q9 6 38.5 13t44.5 11l14 -20
q-93 -80 -195 -118q-134 -49 -229 -49zM297 1054l-17 19q16 18 16 38q-3 30 -29 46l4 21l39 9q29 9 41 9l8 -1q37 -24 41 -65q0 -27 -21 -51q-5 -4 -82 -25zM505 1054l-13 19q15 17 15 37q0 30 -29 47l5 18l7 4l30 8q32 9 42 9l8 -1q37 -23 41 -65q0 -27 -20 -51
q-10 -8 -86 -25z" />
    <glyph glyph-name="endash" unicode="&#x2013;" horiz-adv-x="930" 
d="M3 474l-3 24q24 4 41 11q16 7 35 9q59 5 589 5q70 0 151 -2l-1 -21q-10 -5 -18 -7q-22 -5 -27 -8q-16 -7 -33 -7q-60 2 -490 2q-204 -2 -244 -6z" />
    <glyph glyph-name="emdash" unicode="&#x2014;" horiz-adv-x="1178" 
d="M3 474l-3 24q24 4 41 11q16 7 35 9q89 6 761 6q82 0 174 -2l-1 -21l-13 -6q-22 -4 -28 -7q-20 -9 -37 -9q-65 2 -154 2q-690 0 -775 -7z" />
    <glyph glyph-name="quoteleft" unicode="&#x2018;" horiz-adv-x="208" 
d="M184 1462q-59 -34 -93 -106q48 -10 48 -63q0 -14 -5 -28q-24 -54 -70 -54q-11 0 -22 4q-41 20 -41 62q0 17 7 32q25 79 125 153h51z" />
    <glyph glyph-name="quoteright" unicode="&#x2019;" horiz-adv-x="189" 
d="M-7 1212h-24q59 33 93 106q-48 9 -48 63q0 13 5 28q24 53 70 53q10 0 22 -4q41 -19 41 -62q0 -17 -7 -31q-25 -79 -125 -154z" />
    <glyph glyph-name="quotesinglbase" unicode="&#x201a;" horiz-adv-x="247" 
d="M-7 -67h-24q59 33 93 106q-48 9 -48 63q0 13 5 28q24 53 70 53q10 0 22 -4q41 -19 41 -62q0 -17 -7 -31q-25 -79 -125 -154z" />
    <glyph glyph-name="quotedblleft" unicode="&#x201c;" horiz-adv-x="531" 
d="M421 1511h24q-59 -33 -94 -105q48 -10 48 -63q0 -14 -5 -28q-23 -54 -69 -54q-11 0 -22 4q-41 20 -41 62q0 17 7 31q24 80 125 154zM160 1511h24q-59 -33 -93 -105q48 -10 48 -63q0 -14 -5 -28q-24 -54 -70 -54q-11 0 -22 4q-41 20 -41 62q0 17 7 31q25 80 125 154z" />
    <glyph glyph-name="quotedblright" unicode="&#x201d;" horiz-adv-x="544" 
d="M25 1222h-24q59 33 93 105q-48 10 -48 64q0 13 5 27q24 54 70 54q10 0 22 -4q41 -20 41 -62q0 -17 -7 -31q-25 -79 -125 -154zM285 1222h-23q59 33 93 105q-48 10 -48 64q0 13 5 27q23 54 69 54q11 0 23 -4q41 -20 41 -62q0 -17 -7 -31q-25 -79 -125 -154z" />
    <glyph glyph-name="quotedblbase" unicode="&#x201e;" horiz-adv-x="485" 
d="M-1 -67h-24q59 33 93 106q-48 9 -48 63q0 13 5 28q24 53 70 53q10 0 22 -4q41 -19 41 -62q0 -17 -7 -31q-25 -79 -125 -154zM259 -67h-23q59 33 93 106q-48 9 -48 63q0 13 5 28q23 53 69 53q11 0 23 -4q41 -19 41 -62q0 -17 -7 -31q-25 -79 -125 -154z" />
    <glyph glyph-name="ellipsis" unicode="&#x2026;" horiz-adv-x="1025" 
d="M875 5q-11 0 -23 4q-46 22 -46 66q0 14 4 28q29 57 80 57q12 0 24 -4q46 -20 46 -64q0 -14 -6 -30q-28 -57 -79 -57zM517 5q-11 0 -23 4q-46 22 -46 66q0 14 5 28q28 57 80 57q11 0 23 -4q46 -20 46 -64q0 -14 -6 -30q-28 -57 -79 -57zM160 5q-12 0 -24 4q-46 22 -46 66
q0 14 5 28q29 57 80 57q12 0 24 -4q45 -20 45 -64q0 -14 -5 -30q-29 -57 -79 -57z" />
    <glyph glyph-name="u2116" unicode="&#x2116;" horiz-adv-x="2519" 
d="M62 5q-22 0 -46 4q-86 21 -119 88l-7 14q12 0 25 3.5t22 7.5q35 11 44 11q14 0 17 -9q30 -61 104 -73q15 -3 31 -3l17 1l3 1q76 40 144 148q119 187 229 505q42 126 82 252q71 235 165 468q4 10 44 18q19 5 27.5 7t15.5 2q13 -5 14 -9v-1q35 -143 85 -332
q118 -444 154 -567q73 -241 158 -384q15 60 24 103q7 37 16 72q39 181 102.5 379t167.5 390q165 296 391 372q117 41 223 49l2 -24q-16 -3 -26 -7q-37 -12 -50 -13q-30 -3 -55 -7q-54 -12 -108 -47q-180 -109 -320 -398q-82 -167 -139 -356q-51 -163 -103 -398
q-10 -59 -33 -140q-8 -30 -14 -58l-2 -8q-2 -5 -2 -16q0 -5 8 -20l-89 -24q-14 0 -18 8q-88 123 -155 278q-45 107 -78.5 219t-62.5 223l-7 24q-19 73 -23 89l-111 420q-35 -99 -102 -309q-56 -181 -118.5 -351.5t-150.5 -330.5q-43 -81 -100 -149.5t-144 -96.5l-56 -15
q-34 -10 -76 -10zM2148 877q-61 0 -108.5 33t-67.5 82.5t-20 104.5q0 66 26 130q44 110 81 125l42 11l-8 23h1l-1 1q135 45 203 45q24 0 44 -5q102 -24 140 -134q11 -39 11 -77q0 -71 -31 -133.5t-71 -105.5q-35 -36 -74 -57q-43 -22 -88 -30v-1l-11 -3q-33 -9 -68 -9z
M2215 919l8 1q55 26 100 91q66 96 66 190q0 40 -13 77q-26 71 -85 98q-22 10 -45 11l-39 -13q-48 -20 -83 -60q-68 -81 -68 -197q0 -55 21 -104.5t67 -75.5q29 -15 71 -18zM1938 722l-4 24q24 4 42 11q26 11 101 12q83 2 170 2q100 0 203 -3h10l-1 -23l-10 -3
q-59 -17 -67 -17l-200 3q-184 -1 -244 -6z" />
    <glyph glyph-name="minus" unicode="&#x2212;" horiz-adv-x="966" 
d="M3 670l-3 24q24 4 41 11q29 12 113 12q50 4 560 7l109 -1v-23l-10 -3q-9 -3 -28 -8l-13 -4q-11 -5 -24 -5l-121 1q-169 0 -351 -4q-233 -3 -273 -7z" />
  </font>
</defs>
</svg>
